<svg xmlns="http://www.w3.org/2000/svg" viewBox="0 0 100 100">
  <!-- GitHub Copilot icon: pilot/robot face -->
  <g fill="white">
    <!-- Head shape -->
    <path d="M50 15 C30 15, 15 30, 15 48 C15 58, 20 65, 28 70 L28 78 C28 82, 32 85, 36 85 L64 85 C68 85, 72 82, 72 78 L72 70 C80 65, 85 58, 85 48 C85 30, 70 15, 50 15Z" fill="white"/>
    <!-- Visor/goggles -->
    <rect x="22" y="38" width="56" height="22" rx="11" fill="#1F2328"/>
    <!-- Left eye -->
    <ellipse cx="38" cy="49" rx="8" ry="7" fill="white"/>
    <circle cx="38" cy="49" r="3.5" fill="#1F2328"/>
    <!-- Right eye -->
    <ellipse cx="62" cy="49" rx="8" ry="7" fill="white"/>
    <circle cx="62" cy="49" r="3.5" fill="#1F2328"/>
    <!-- Mouth area dots -->
    <circle cx="40" cy="72" r="2.5" fill="#1F2328"/>
    <circle cx="50" cy="72" r="2.5" fill="#1F2328"/>
    <circle cx="60" cy="72" r="2.5" fill="#1F2328"/>
  </g>
</svg>
