<svg width="1080" height="1080" viewBox="0 0 1080 1080" fill="none" xmlns="http://www.w3.org/2000/svg">
<g opacity="0.8">
<path d="M482.27 1004.79C466 1009.05 449.73 1011.58 433.45 1014.21C417.18 1016.64 400.91 1018.43 384.63 1019.91C352.09 1022.75 319.54 1024.06 287 1024.09C254.46 1024.13 221.91 1022.8 189.37 1019.98C173.1 1018.51 156.83 1016.71 140.55 1014.28C124.28 1011.63 108.01 1009.09 91.7305 1004.79H482.27Z" fill="url(#paint0_linear_6862_488)" fill-opacity="0.6"/>
</g>
<g opacity="0.8">
<path d="M913.22 991.92C896.95 996.18 880.68 998.71 864.4 1001.34C848.13 1003.77 831.86 1005.56 815.58 1007.04C783.04 1009.88 750.49 1011.19 717.95 1011.22C685.41 1011.26 652.86 1009.93 620.32 1007.11C604.05 1005.64 587.78 1003.84 571.5 1001.41C555.23 998.76 538.96 996.22 522.68 991.92H913.22Z" fill="url(#paint1_linear_6862_488)" fill-opacity="0.6"/>
</g>
<path d="M536.381 370.16C535.231 369.99 534.071 370.25 532.951 370.54C524.621 372.7 516.331 376.62 509.691 382.15C502.721 387.95 509.591 395.04 516.351 389.87C518.301 388.37 519.801 386.37 521.511 384.6C524.831 381.17 529.051 378.62 533.621 377.26C534.961 376.86 536.361 376.55 537.501 375.74C538.641 374.94 539.461 373.47 539.021 372.14C538.661 371.03 537.521 370.33 536.381 370.16Z" fill="#FDA763"/>
<path d="M541.76 376.62C540.61 376.45 539.45 376.71 538.33 377C530 379.16 521.71 383.08 515.07 388.61C508.1 394.41 514.97 401.5 521.73 396.33C523.68 394.83 525.18 392.83 526.89 391.06C530.21 387.63 534.43 385.08 539 383.72C540.34 383.32 541.74 383.01 542.88 382.2C544.02 381.4 544.84 379.93 544.4 378.6C544.04 377.5 542.9 376.79 541.76 376.62Z" fill="#FDA763"/>
<path d="M541.609 384.81C540.459 384.64 539.299 384.9 538.179 385.19C529.849 387.35 521.559 391.27 514.919 396.8C507.949 402.6 514.819 409.69 521.579 404.52C523.529 403.02 525.029 401.02 526.739 399.25C530.059 395.82 534.279 393.27 538.849 391.91C540.189 391.51 541.589 391.2 542.729 390.39C543.869 389.59 544.689 388.12 544.249 386.79C543.889 385.69 542.749 384.98 541.609 384.81Z" fill="#FDA763"/>
<path d="M535.531 393.91C536.451 393.67 537.391 393.46 538.331 393.6C539.261 393.74 540.191 394.32 540.491 395.21C540.851 396.29 540.181 397.49 539.251 398.15C538.321 398.81 537.171 399.06 536.081 399.39C532.341 400.5 528.901 402.59 526.191 405.39C524.791 406.83 523.571 408.47 521.981 409.69C516.471 413.91 510.851 408.12 516.551 403.39C521.961 398.88 528.731 395.68 535.531 393.91Z" fill="#FDA763"/>
<path d="M508.87 382.89C505.36 386.9 503.59 389.48 501.31 394.3C499.03 399.12 498.09 404.81 499.94 409.81C501.78 414.81 506.86 418.78 512.16 418.27C515.32 417.97 518.19 416.18 520.44 413.94C525.09 409.29 527.42 402.42 526.56 395.9C525.7 389.38 521.68 383.35 515.98 380.06L508.87 382.89Z" fill="#FDA763"/>
<path d="M305.39 370.93C304.16 383.2 308.73 395.44 315.57 405.24C322.41 415.04 331.389 422.79 340.269 430.43C363.509 450.42 386.749 470.4 409.989 490.39C414.139 493.96 418.479 497.63 423.649 498.95C431.559 500.97 439.71 497.13 446.89 492.93C469.03 479.98 488.99 462.62 505.45 441.98C510.49 435.65 515.499 427.95 514.32 419.73C513.26 412.33 507.13 406.67 500.42 404.84C493.72 403.01 486.59 404.39 479.98 406.7C461.92 413 446.49 425.86 431.469 438.47C410.13 421.6 386.38 402.97 367.32 383.17C358.77 374.29 350.3 364.57 339.14 360.2C328 355.82 306.67 358.11 305.39 370.93Z" fill="#005147"/>
<path d="M510.349 425.53C511.569 423.66 513.619 422.56 515.489 421.34C517.349 420.12 519.219 418.53 519.649 416.35C519.909 415.02 519.599 413.63 519.159 412.35C516.389 404.15 508.349 398.01 499.709 397.51C495.809 401.21 493.049 405.05 490.959 410L510.349 425.53Z" fill="#005147"/>
<path d="M359.379 591.29C293.669 599.16 294.639 640.1 294.639 640.1L331.479 798.23L361.549 942.15H396.179C399.249 888.54 402.429 824.62 401.149 796.89C395.729 680.35 359.379 591.29 359.379 591.29Z" fill="#175047"/>
<path d="M361.561 942.16L363.761 959.45H395.101C395.501 953.67 395.851 947.9 396.181 942.16H361.561Z" fill="#123633"/>
<path d="M366.35 959.45C366.36 964.11 366.39 968.63 366.44 972.98H391.24L392.63 959.45H366.35Z" fill="#C4690F"/>
<path d="M364.78 970.95L393.81 970.08C401.9 979.25 450.61 990.78 453.43 1003.11H358.07C359.14 992.14 361.3 981.34 364.78 970.95Z" fill="#123633"/>
<path d="M453.44 1003.12C453.71 1004.3 453.99 1005.48 454.2 1006.67C454.54 1008.54 453.25 1010.3 451.5 1010.3H360.5C358.9 1010.3 357.61 1008.82 357.74 1007.08C357.84 1005.76 357.95 1004.44 358.08 1003.12H453.44Z" fill="#208A6E"/>
<path d="M359.379 591.29C293.669 599.16 294.639 640.1 294.639 640.1L331.479 798.23L361.549 942.15H396.179C399.249 888.54 402.429 824.62 401.149 796.89C395.729 680.35 359.379 591.29 359.379 591.29Z" fill="url(#paint2_linear_6862_488)"/>
<path d="M312.301 637.76C312.301 637.76 341.531 617.37 344.951 599.52L235.221 603.77C235.221 603.77 210.131 738.5 217.391 942.16H251.861L312.301 637.76Z" fill="#175047"/>
<path d="M217.399 942.16C217.349 948.11 217.329 953.89 217.349 959.45H248.429L251.859 942.16H217.399Z" fill="#123633"/>
<path d="M219.92 959.45C219.93 964.11 219.96 968.63 220.01 972.98H244.81L246.2 959.45H219.92Z" fill="#C4690F"/>
<path d="M246.22 970.95L217.19 970.08C209.1 979.25 203.33 990.78 200.51 1003.11H252.92C251.87 992.14 249.71 981.34 246.22 970.95Z" fill="#123633"/>
<path d="M200.51 1003.12C200.24 1004.3 199.96 1005.48 199.75 1006.67C199.41 1008.54 200.7 1010.3 202.45 1010.3H250.5C252.1 1010.3 253.39 1008.82 253.26 1007.08C253.16 1005.76 253.05 1004.44 252.92 1003.12H200.51Z" fill="#208A6E"/>
<path d="M334.901 617.45C340.701 611.11 345.781 603.87 347.101 597L236.211 591.29C236.211 591.29 235.311 604.27 234.891 609.66C267.951 618.05 301.761 621.18 334.901 617.45Z" fill="#175047"/>
<path opacity="0.44" d="M388.92 403.63H314.49C314.84 404.17 315.2 404.71 315.57 405.24C322.41 415.04 331.39 422.79 340.27 430.43C363.51 450.42 386.75 470.4 409.99 490.39C414.14 493.96 418.48 497.63 423.65 498.95C425.59 499.44 427.54 499.58 429.49 499.46V436.9C416.24 426.42 402.18 415.3 388.92 403.63Z" fill="#022D29" fill-opacity="0.6"/>
<path d="M356.691 381.54C356.221 372.55 350.571 364.71 342.261 361.23C324.601 353.84 304.871 351.41 285.671 352.62C268.061 353.73 250.801 357.74 233.961 363.13C222.931 366.66 216.241 377.79 218.061 389.22C228.431 454.59 232.651 521.75 230.071 587.78C229.901 592.07 229.501 598.25 233.601 599.53C271.331 611.3 325.131 613.24 361.041 603.67C369.951 601.3 362.931 593.08 362.961 583.87C363.131 517.9 360.091 446.81 356.691 381.54Z" fill="#004F3F"/>
<path opacity="0.44" d="M362.96 583.86C363.12 525.27 360.73 462.64 357.81 403.63H220.24C229.01 464.43 232.47 526.59 230.07 587.77C229.98 590.16 229.81 593.13 230.39 595.52H365.15C364.43 592.17 362.94 588.13 362.96 583.86Z" fill="#022D29" fill-opacity="0.6"/>
<path d="M420.209 410.7H102.039V585.04H420.209V410.7Z" fill="#EBEFF1"/>
<path d="M216.078 497.87H404.518" stroke="white" stroke-width="4.013" stroke-miterlimit="10" stroke-linecap="round"/>
<path d="M216.078 509.5H404.518" stroke="white" stroke-width="4.013" stroke-miterlimit="10" stroke-linecap="round"/>
<path d="M216.078 521.14H404.518" stroke="white" stroke-width="4.013" stroke-miterlimit="10" stroke-linecap="round"/>
<path d="M300.418 532.77H404.518" stroke="white" stroke-width="4.013" stroke-miterlimit="10" stroke-linecap="round"/>
<path d="M197.559 427.69H129.139V524.93H197.559V427.69Z" fill="white"/>
<path d="M254.08 593.55C254.2 592.4 253.88 591.25 253.54 590.14C250.99 581.92 246.69 573.83 240.86 567.45C234.74 560.76 227.98 567.95 233.46 574.46C235.05 576.34 237.12 577.74 238.97 579.37C242.55 582.53 245.3 586.62 246.87 591.13C247.33 592.45 247.71 593.83 248.56 594.94C249.42 596.04 250.92 596.79 252.23 596.3C253.31 595.87 253.96 594.7 254.08 593.55Z" fill="#FDA763"/>
<path d="M247.879 599.23C247.999 598.08 247.679 596.93 247.339 595.82C244.789 587.6 240.489 579.51 234.659 573.12C228.539 566.43 221.779 573.62 227.259 580.13C228.849 582.01 230.919 583.41 232.769 585.04C236.349 588.2 239.099 592.29 240.669 596.8C241.129 598.12 241.509 599.51 242.359 600.61C243.219 601.71 244.719 602.46 246.029 601.97C247.109 601.55 247.759 600.38 247.879 599.23Z" fill="#FDA763"/>
<path d="M239.689 599.46C239.809 598.31 239.489 597.16 239.149 596.05C236.599 587.83 232.299 579.74 226.469 573.35C220.349 566.66 213.589 573.85 219.069 580.36C220.659 582.24 222.729 583.64 224.579 585.27C228.159 588.43 230.909 592.52 232.479 597.03C232.939 598.35 233.319 599.73 234.169 600.84C235.029 601.94 236.529 602.69 237.839 602.2C238.919 601.78 239.569 600.61 239.689 599.46Z" fill="#FDA763"/>
<path d="M230.309 593.81C230.589 594.71 230.849 595.65 230.749 596.59C230.649 597.53 230.119 598.48 229.239 598.82C228.169 599.23 226.949 598.61 226.249 597.71C225.549 596.81 225.239 595.68 224.869 594.6C223.589 590.92 221.339 587.58 218.419 585C216.909 583.67 215.219 582.53 213.929 580.99C209.449 575.68 214.979 569.8 219.969 575.27C224.719 580.49 228.229 587.1 230.309 593.81Z" fill="#FDA763"/>
<path d="M240.079 566.67C235.909 563.35 233.249 561.71 228.329 559.65C223.409 557.6 217.679 556.93 212.769 559C207.859 561.07 204.129 566.33 204.879 571.6C205.329 574.75 207.239 577.53 209.589 579.67C214.449 584.1 221.419 586.11 227.889 584.95C234.359 583.79 240.199 579.49 243.219 573.65L240.079 566.67Z" fill="#FDA763"/>
<path d="M242.56 362.85C230.25 362.19 218.23 367.33 208.76 374.62C199.29 381.91 191.96 391.24 184.75 400.47C165.87 424.62 146.98 448.76 128.1 472.91C124.73 477.22 121.26 481.72 120.18 486.95C118.53 494.94 122.75 502.91 127.28 509.89C141.25 531.41 159.52 550.53 180.9 566.01C187.45 570.75 195.38 575.39 203.53 573.83C210.88 572.43 216.24 566.04 217.76 559.26C219.27 552.48 217.56 545.42 214.95 538.93C207.81 521.18 194.26 506.37 180.96 491.95C196.82 469.85 214.32 445.26 233.21 425.29C241.69 416.33 251 407.42 254.85 396.08C258.7 384.73 255.43 363.54 242.56 362.85Z" fill="#005147"/>
<path d="M197.559 570.13C199.479 571.26 200.679 573.26 201.989 575.06C203.299 576.87 204.969 578.66 207.169 578.99C208.519 579.19 209.879 578.81 211.149 578.32C219.209 575.17 224.969 566.86 225.069 558.2C221.199 554.47 217.229 551.9 212.189 550.04L197.559 570.13Z" fill="#005147"/>
<path d="M242.56 362.85C230.25 362.19 218.23 367.33 208.76 374.62C199.29 381.91 191.96 391.24 184.75 400.47C165.87 424.62 146.98 448.76 128.1 472.91C124.73 477.22 121.26 481.72 120.18 486.95C118.53 494.94 122.75 502.91 127.28 509.89C141.25 531.41 159.52 550.53 180.9 566.01C187.45 570.75 195.38 575.39 203.53 573.83C210.88 572.43 216.24 566.04 217.76 559.26C219.27 552.48 217.56 545.42 214.95 538.93C207.81 521.18 194.26 506.37 180.96 491.95C196.82 469.85 214.32 445.26 233.21 425.29C241.69 416.33 251 407.42 254.85 396.08C258.7 384.73 255.43 363.54 242.56 362.85Z" fill="url(#paint3_linear_6862_488)"/>
<path d="M219.24 552.93C219.04 551.78 217.26 552.18 217.47 553.34C218.25 557.76 217.19 562.39 214.5 566C212 569.36 208.19 571.57 204.08 572.28C202.93 572.48 203.33 574.25 204.49 574.05C209.07 573.26 213.25 570.71 216.03 566.98C219.01 562.98 220.11 557.81 219.24 552.93Z" fill="#123633"/>
<path d="M614.08 291.79H512V387.32H614.08V291.79Z" fill="#1ACA84"/>
<path d="M504.52 396.45C507.19 396.5 510.01 396.52 512.34 395.22C514.67 393.92 516.22 390.79 514.87 388.48C518.69 386.09 521.6 381.83 523.5 377.49C523.92 376.53 522.82 375.6 521.93 376.16C515.8 380 509.57 383.55 504.55 388.8C503.05 390.38 503.56 394.49 504.52 396.45Z" fill="#FDA763"/>
<path d="M877.91 990.98C878.21 992.17 878.51 993.36 878.75 994.57C879.12 996.46 877.71 998.24 875.78 998.24H775.71C773.95 998.24 772.54 996.74 772.67 994.99C772.77 993.65 772.91 992.32 773.05 990.99H877.91V990.98Z" fill="#208A6E"/>
<path d="M681.37 990.9C681.06 992.14 680.74 993.38 680.5 994.64C680.11 996.61 681.59 998.46 683.6 998.46H747.39C749.22 998.46 750.7 996.9 750.55 995.07C750.44 993.68 750.3 992.29 750.16 990.9H681.37Z" fill="#208A6E"/>
<path d="M470.25 182.82H368.17V278.35H470.25V182.82Z" fill="#1ACA84"/>
<path d="M414.619 225.08L420.679 211.67C421.239 210.43 422.479 209.63 423.849 209.63C425.769 209.63 427.319 211.19 427.319 213.1V225.08H434.499C439.569 225.08 443.409 229.68 442.489 234.67L440.609 244.89C439.899 248.74 436.539 251.54 432.619 251.54H408.469V227.84L414.619 225.08Z" stroke="white" stroke-width="4.013" stroke-miterlimit="10"/>
<path d="M408.479 227.84H395.779V251.55H408.479V227.84Z" stroke="white" stroke-width="4.013" stroke-miterlimit="10"/>
<path d="M771.551 117H669.471V212.53H771.551V117Z" fill="#1ACA84"/>
<path d="M562.181 316.13L569.001 329.93L584.231 332.15L573.211 342.89L575.811 358.07L562.181 350.91L548.561 358.07L551.161 342.89L540.131 332.15L555.371 329.93L562.181 316.13Z" fill="white"/>
<path d="M277.261 314.45L275.311 357.38L288.511 379.9H298.681C310.191 379.9 319.881 371.31 321.241 359.89C321.581 357.08 321.341 340.47 321.341 340.47L277.231 314.46H277.261V314.45Z" fill="#FDA763"/>
<path opacity="0.8" d="M285.801 328.35C290.831 336.26 288.501 368.51 322.271 368.51L321.371 340.53L285.801 328.35Z" fill="url(#paint4_linear_6862_488)" fill-opacity="0.6"/>
<path d="M346.439 334.79C346.959 329.37 347.129 323.93 346.959 318.49C346.769 312.32 345.859 306.2 344.469 300.19L342.639 292.26C342.219 290.46 342.399 288.57 343.149 286.87C344.009 284.94 344.219 282.79 343.739 280.74C339.769 263.81 327.619 250.64 309.609 250.27C288.949 249.85 271.279 265.37 269.259 285.93C268.399 294.66 270.399 302.88 274.399 309.77C274.399 309.77 275.029 310.79 275.259 311.16L289.069 333.63C295.339 343.81 306.119 350.36 318.049 351.2L324.539 351.66L331.689 352.17C338.909 352.68 345.229 347.34 345.929 340.12L346.439 334.79Z" fill="#FDA763"/>
<path opacity="0.8" d="M271.32 307.3C272.66 313.59 279.67 325.89 287.17 324.3C292.13 323.25 291.53 313.84 289.31 303.47C287.97 297.18 282.85 292.95 277.89 294C272.92 295.04 269.99 301.01 271.32 307.3Z" fill="url(#paint5_linear_6862_488)" fill-opacity="0.6"/>
<g opacity="0.8">
<path d="M327.59 320.42L331.22 317.32C332.37 316.27 333.81 315.39 334.42 313.86C335.06 312.4 335.03 310.67 334.32 309.25C333.98 308.52 333.44 307.93 332.85 307.39L331.16 305.71L327.77 302.35C326.62 301.27 325.52 300.08 324.8 298.64C324.04 297.23 323.75 295.64 323.39 294.1L322.32 289.46C323.68 290.78 324.69 292.17 325.68 293.58C325.93 293.94 326.15 294.29 326.37 294.65C326.59 295.01 326.83 295.39 327 295.6C327.39 296.09 327.78 296.52 328.2 296.89C328.61 297.26 329.03 297.6 329.45 297.87C329.65 298.02 329.86 298.14 330.09 298.28C330.43 298.5 330.73 298.75 331.06 298.99C332.33 299.96 333.55 300.99 334.7 302.09C335.28 302.63 335.87 303.17 336.39 303.77L336.81 304.21C337.06 304.5 337.32 304.77 337.56 305.07C338.02 305.68 338.41 306.34 338.71 307.04C339.96 309.84 339.71 313.09 338.22 315.51C337.49 316.73 336.46 317.71 335.32 318.39C334.49 318.76 333.74 319.03 332.91 319.31C331.23 319.8 329.57 320.29 327.57 320.39V320.42H327.59Z" fill="url(#paint6_linear_6862_488)" fill-opacity="0.6"/>
</g>
<path fill-rule="evenodd" clip-rule="evenodd" d="M337.351 291.16C338.161 291.03 338.931 291.58 339.061 292.39L340.031 298.29C340.161 299.1 339.611 299.87 338.801 300C337.991 300.13 337.221 299.58 337.091 298.77L336.121 292.87C335.991 292.06 336.541 291.29 337.351 291.16Z" fill="black" fill-opacity="0.6"/>
<g opacity="0.8">
<path d="M331.93 290.15C332.96 289.1 333.86 288.68 334.73 288.37C335.59 288.12 336.39 288.08 337.17 288.23C337.93 288.4 338.66 288.76 339.34 289.35C340 289.98 340.64 290.76 341.14 292.15L331.96 290.15H331.93Z" fill="url(#paint7_linear_6862_488)" fill-opacity="0.6"/>
</g>
<path fill-rule="evenodd" clip-rule="evenodd" d="M311.31 291.16C312.12 291.03 312.89 291.58 313.02 292.39L313.99 298.29C314.12 299.1 313.57 299.87 312.76 300C311.95 300.13 311.19 299.58 311.05 298.77L310.08 292.87C309.95 292.06 310.5 291.29 311.31 291.16Z" fill="black" fill-opacity="0.6"/>
<g opacity="0.8">
<path d="M304.141 292.15C304.851 290.76 305.681 289.98 306.531 289.35C307.391 288.76 308.291 288.38 309.221 288.21C310.151 288.04 311.121 288.07 312.141 288.33C313.161 288.63 314.211 289.08 315.361 290.14L304.141 292.15Z" fill="url(#paint8_linear_6862_488)" fill-opacity="0.6"/>
</g>
<path d="M300.09 282.15C300.72 280.1 301.63 278.83 302.63 277.79C303.63 276.79 304.75 276.09 305.95 275.69C307.15 275.27 308.46 275.11 309.87 275.27C311.29 275.46 312.8 275.88 314.56 277.07L300.07 282.15H300.09Z" fill="url(#paint9_linear_6862_488)"/>
<path d="M329.529 277.07C331.169 275.92 332.479 275.53 333.659 275.37C334.849 275.23 335.879 275.4 336.809 275.83C337.719 276.25 338.539 276.93 339.219 277.91C339.879 278.93 340.419 280.16 340.639 282.15L329.539 277.07H329.529Z" fill="url(#paint10_linear_6862_488)"/>
<path d="M276.47 302.05C284.94 302.05 291.62 294.83 290.96 286.37L290.03 274.61C289.84 272.31 288.42 270.31 286.3 269.37L279.91 266.57H338.94C343.79 266.57 347.55 262.33 346.97 257.52C346.58 254.28 344.29 251.59 341.16 250.71L335.04 248.97L334.74 241.21C334.55 236.57 329.64 233.65 325.49 235.72L317.68 239.6L313.16 232.69C310.86 229.18 305.75 229.1 303.33 232.52L297.38 240.94L289.74 235.23C287.45 233.52 284.18 234.2 282.78 236.69L278.68 243.91L271.14 242.35C268.33 241.77 265.53 243.49 264.8 246.27L255.77 280.04C253.5 288.55 256.55 297.61 263.53 302.99L267.48 306.04C268.7 306.97 269.84 308.01 270.87 309.14C273.99 312.53 279.95 318.8 279.95 318.8L276.49 302.07V302.05H276.47Z" fill="#123633"/>
<path d="M268.66 304C270 310.29 277.01 322.59 284.51 321C289.47 319.95 288.87 310.54 286.65 300.17C285.31 293.88 280.19 289.65 275.23 290.7C270.25 291.75 267.32 297.71 268.66 304Z" fill="#FDA763"/>
<path d="M290.95 286.37C291.75 296.55 294.14 307.08 296.09 314.42C297.72 320.5 301.7 325.67 307.17 328.77L311.88 324.38C315.76 320.77 320.86 318.75 326.17 318.75H337.47C341.01 318.75 344.3 320.63 346.1 323.68C348.05 326.98 348.93 330.8 348.62 334.63L347.87 344.05C347.4 350.17 342.28 354.88 336.16 354.88H323.6C314.64 354.88 305.94 351.78 299.01 346.1L297.81 345.12C293.4 341.51 290.57 336.34 289.91 330.7L286.93 305.28C286.93 305.28 286.49 298.33 284.41 294.98C282.71 292.25 290.97 286.37 290.97 286.37H290.95Z" fill="#123633"/>
<path d="M337.12 324.96H322.97C320.97 324.96 319.58 326.96 320.29 328.82L320.65 329.79C321.65 332.48 324.23 334.28 327.11 334.28H335.14C337.72 334.28 339.87 332.35 340.12 329.79L340.26 328.45C340.46 326.59 338.99 324.96 337.11 324.96H337.12Z" fill="#FDA763"/>
<path d="M315.311 324.64C315.311 324.64 331.581 339.37 341.151 325.86L335.511 322.67L315.311 324.62V324.64Z" fill="black" fill-opacity="0.6"/>
<path d="M315.311 323.55C315.311 323.55 331.921 332.11 341.151 324.28L335.511 322.38L315.311 323.53V323.55Z" fill="white"/>
<path opacity="0.3" d="M341.25 328.47L318.1 327.72L319.51 323.87L341.15 324.28L341.25 328.47Z" fill="url(#paint11_linear_6862_488)" fill-opacity="0.6"/>
<path d="M387.62 450.15L392.51 460.04L403.42 461.63L395.52 469.33L397.39 480.2L387.62 475.07L377.86 480.2L379.72 469.33L371.82 461.63L382.74 460.04L387.62 450.15Z" fill="#1ACA84"/>
<path d="M334.87 450.15L339.75 460.04L350.67 461.63L342.77 469.33L344.64 480.2L334.87 475.07L325.11 480.2L326.97 469.33L319.07 461.63L329.99 460.04L334.87 450.15Z" fill="#1ACA84"/>
<path d="M282.12 450.15L287 460.04L297.92 461.63L290.02 469.33L291.89 480.2L282.12 475.07L272.36 480.2L274.22 469.33L266.32 461.63L277.24 460.04L282.12 450.15Z" fill="#1ACA84"/>
<path d="M229.37 450.15L234.25 460.04L245.17 461.63L237.27 469.33L239.13 480.2L229.37 475.07L219.6 480.2L221.47 469.33L213.57 461.63L224.49 460.04L229.37 450.15Z" fill="#1ACA84"/>
<path d="M387.62 450.15L392.51 460.04L403.42 461.63L395.52 469.33L397.39 480.2L387.62 475.07L377.86 480.2L379.72 469.33L371.82 461.63L382.74 460.04L387.62 450.15Z" fill="#1ACA84"/>
<path d="M334.87 450.15L339.75 460.04L350.67 461.63L342.77 469.33L344.64 480.2L334.87 475.07L325.11 480.2L326.97 469.33L319.07 461.63L329.99 460.04L334.87 450.15Z" fill="#1ACA84"/>
<path d="M282.12 450.15L287 460.04L297.92 461.63L290.02 469.33L291.89 480.2L282.12 475.07L272.36 480.2L274.22 469.33L266.32 461.63L277.24 460.04L282.12 450.15Z" fill="#1ACA84"/>
<path d="M229.37 450.15L234.25 460.04L245.17 461.63L237.27 469.33L239.13 480.2L229.37 475.07L219.6 480.2L221.47 469.33L213.57 461.63L224.49 460.04L229.37 450.15Z" fill="#1ACA84"/>
<path d="M777.85 840.99C779.06 852.35 779.89 954.53 781.05 962.7L811.23 965.3C812.58 956.11 820.2 854.06 821.48 843.59L777.85 840.99Z" fill="#FDA763"/>
<path d="M780.421 958.5L812.341 957.62C821.241 966.88 874.801 978.52 877.911 990.98H773.051C774.211 979.9 776.591 969 780.421 958.5Z" fill="#123633"/>
<path d="M699.961 840.99C701.171 852.35 707.651 954.53 708.811 962.7H741.341C742.681 953.55 744.381 851.5 745.661 840.99H699.961Z" fill="#FDA763"/>
<path d="M742.481 957.05L709.211 956.14C699.941 965.79 684.611 977.93 681.381 990.91H750.171C748.951 979.35 746.471 967.99 742.481 957.05Z" fill="#123633"/>
<path d="M821 851.84L779.5 880.34L778.5 849.84L776 844.44L821 826.84V851.84Z" fill="url(#paint12_linear_6862_488)" fill-opacity="0.6"/>
<path d="M744.5 858.84L743.5 888.34L701.5 858.84H744.5Z" fill="url(#paint13_linear_6862_488)" fill-opacity="0.6"/>
<path d="M806.111 512.08C806.111 512.08 886.951 734.93 869.971 841.03C869.971 841.03 834.961 841.03 769.181 856.94C703.401 872.85 633.381 838.9 633.381 838.9C633.381 838.9 682.861 567.14 724.431 500.38L806.111 512.08Z" fill="#175047"/>
<path d="M737.721 153.37C736.831 149.38 733.391 146.77 729.981 146.55C726.661 146.31 723.421 147.95 720.601 150.14C717.811 147.95 714.561 146.31 711.241 146.55C707.831 146.77 704.381 149.38 703.481 153.37C702.441 158.03 705.001 162.72 707.801 166.15C711.401 170.58 715.651 174.28 720.301 176.96C720.401 177.04 720.501 177.1 720.601 177.14L720.901 176.96C725.551 174.27 729.801 170.58 733.421 166.15C736.201 162.72 738.761 158.02 737.721 153.37Z" fill="white"/>
<path d="M713.24 518.82L806.46 516.23L698.24 567.21L713.24 518.82Z" fill="url(#paint14_linear_6862_488)" fill-opacity="0.6"/>
<path d="M777.071 383.8C775.311 385.78 772.651 387.39 770.031 388.97C763.191 393.1 756.361 397.23 749.521 401.36C748.421 402.02 747.201 402.73 745.671 402.83C743.001 403.02 741.021 401.38 739.811 399.9C736.311 395.62 734.071 390.85 734.631 386.07C735.201 381.29 738.851 376.53 745.271 373.82C755.901 369.33 787.221 372.4 777.071 383.8Z" fill="#FFC6B5"/>
<path d="M979.32 247.82H788.73V363.49H979.32V247.82Z" fill="#EBEFF1"/>
<path d="M800.201 314.17H965.551" stroke="white" stroke-width="4.013" stroke-miterlimit="10" stroke-linecap="round"/>
<path d="M800.201 324.37H965.551" stroke="white" stroke-width="4.013" stroke-miterlimit="10" stroke-linecap="round"/>
<path d="M800.201 334.58H965.551" stroke="white" stroke-width="4.013" stroke-miterlimit="10" stroke-linecap="round"/>
<path d="M874.211 344.79H965.551" stroke="white" stroke-width="4.013" stroke-miterlimit="10" stroke-linecap="round"/>
<path d="M957.1 262L961.39 270.68L970.96 272.07L964.03 278.82L965.67 288.37L957.1 283.86L948.53 288.37L950.17 278.82L943.24 272.07L952.82 270.68L957.1 262Z" fill="#1ACA84"/>
<path d="M910.821 262L915.101 270.68L924.681 272.07L917.751 278.82L919.381 288.37L910.821 283.86L902.251 288.37L903.881 278.82L896.951 272.07L906.531 270.68L910.821 262Z" fill="#1ACA84"/>
<path d="M864.53 262L868.81 270.68L878.39 272.07L871.46 278.82L873.1 288.37L864.53 283.86L855.96 288.37L857.6 278.82L850.67 272.07L860.25 270.68L864.53 262Z" fill="#1ACA84"/>
<path d="M818.251 262L822.531 270.68L832.111 272.07L825.181 278.82L826.811 288.37L818.251 283.86L809.681 288.37L811.311 278.82L804.381 272.07L813.961 270.68L818.251 262Z" fill="#1ACA84"/>
<path d="M868.67 454.37C877.05 439.85 880.89 426.37 877.23 424.26C873.58 422.15 863.82 432.21 855.43 446.73C847.05 461.25 843.21 474.73 846.87 476.84C850.53 478.95 860.29 468.89 868.67 454.37Z" fill="#0F0017" fill-opacity="0.6"/>
<path d="M838.42 401.91L829.97 444.12L873.21 472.15L864.29 478.14C857.14 482.92 850.5 488.41 844.45 494.51L825.69 513.42L821.97 510.57C818.38 507.83 813.39 507.86 809.84 510.67L797.34 520.56L805.55 543.94C807.5 549.5 814.22 551.68 819.07 548.31L910.51 484.89C918.88 479.09 919.3 466.88 911.37 460.51L838.43 401.89V401.91H838.42Z" fill="#FDA763"/>
<path d="M862.06 420.9L837.09 450.55L857.19 461.75L872.25 429.08L862.06 420.9Z" fill="url(#paint15_linear_6862_488)" fill-opacity="0.6"/>
<path d="M818.5 549.34C818.5 549.34 797.33 520.56 809.83 510.67C819.21 503.25 789 502.34 789 502.34L800 527.84L802.5 534.34L808.5 554.84L818.5 549.34Z" fill="url(#paint16_linear_6862_488)" fill-opacity="0.6"/>
<path d="M669.39 410.44L700.43 437.04L647.89 466.24L660.07 474.41C665.04 477.74 669.67 481.55 673.91 485.77L701.59 513.4L711.41 505.88L729.94 520.55L719.29 550.87L614.77 479.42C606.67 473.88 606.16 462.11 613.76 455.9L669.39 410.44Z" fill="#FDA763"/>
<path d="M680.351 438.49L652.561 430.86L657.731 460.78L662.731 458L680.351 438.49Z" fill="url(#paint17_linear_6862_488)" fill-opacity="0.6"/>
<path d="M709.979 509.474L715.354 495.84L736 506.34L718.5 550.34L705.5 541.84L713.723 528.234C715.171 524.201 715.108 519.788 713.493 515.81C712.71 513.871 711.586 511.707 709.979 509.474Z" fill="url(#paint18_linear_6862_488)" fill-opacity="0.6"/>
<path d="M686.921 394.55C694.201 389.29 702.051 384.84 710.311 381.32L717.821 378.11L729.961 436.6L675.111 466.72C673.351 467.69 671.151 467.41 669.701 466.02C658.591 455.48 652.301 440.83 652.301 425.51C652.301 421.81 654.081 418.32 657.081 416.15L686.921 394.55Z" fill="#208A6E"/>
<path d="M693.979 456.44L678.789 464.73C678.789 464.73 680.449 430.33 699.999 415.23C712.929 405.26 693.979 456.44 693.979 456.44Z" fill="url(#paint19_linear_6862_488)" fill-opacity="0.6"/>
<path d="M781.45 523.77L799.16 520.19C803.78 519.25 807.34 515.56 808.11 510.91L824.61 410.75C826.7 398.11 819.87 385.67 808.08 380.64L760 360.14L712.6 380.36C708.69 382.02 705.86 385.51 705.05 389.68L695.22 439.65C693.01 450.92 693.81 462.57 697.56 473.43L709.49 508C711.76 514.6 717.36 519.49 724.2 520.88L738.54 523.78C752.68 526.64 767.28 526.64 781.45 523.77Z" fill="#208A6E"/>
<path d="M846.88 476.83L790.01 436.59L808.07 380.63L818.04 384.88C824.77 387.75 831.16 391.34 837.11 395.59L877.25 424.25C873.59 422.14 863.83 432.2 855.45 446.72C847.05 461.25 843.23 474.73 846.88 476.83Z" fill="#208A6E"/>
<path d="M736.76 452.84L744.77 433.26H770.8C770.8 470.42 767.63 505.34 767.63 505.34H749C749 505.34 748.07 472.41 748.07 452.83L736.76 452.84Z" fill="#F7F7FC"/>
<path d="M805.889 257.99C805.889 247.17 797.119 238.4 786.299 238.4C775.479 238.4 766.709 247.17 766.709 257.99C766.709 268.81 775.479 277.58 786.299 277.58C797.109 277.59 805.889 268.82 805.889 257.99Z" fill="#175047"/>
<path d="M767.5 251.84C778.32 251.84 786.759 260.46 786.759 271.28L767.168 257.34L766.5 256.84L767.5 251.84Z" fill="url(#paint20_linear_6862_488)" fill-opacity="0.6"/>
<path d="M771.259 390.85H718.449L722.179 375.51L713.699 390.85H707.219C704.859 357.71 725.039 362.72 725.039 319.24C724.499 307.38 725.489 295.5 727.969 283.91C729.989 274.49 735.539 266.31 743.369 261.23C751.349 256.04 761.019 254.51 770.109 257C782.029 260.26 791.909 269 796.999 280.77C800.779 289.51 802.179 299.18 801.049 308.7L798.979 326.21L798.469 330.54C797.079 342.34 799.409 354.25 804.959 364.76C808.809 372.04 811.949 381.51 809.669 390.86H771.259V390.85Z" fill="#175047"/>
<path d="M727.539 331.68L760.139 327.75L752.909 383.36C727.949 384.31 727.539 331.68 727.539 331.68Z" fill="url(#paint21_linear_6862_488)" fill-opacity="0.6"/>
<path d="M767.17 391.8L809.67 390.85C815.17 365.08 778.61 370.72 791.91 324.47L767.17 391.8Z" fill="url(#paint22_linear_6862_488)" fill-opacity="0.6"/>
<path d="M753.24 273.473L745 260.34C760 250.84 779.63 259.293 779.63 259.293L753.24 273.473Z" fill="url(#paint23_linear_6862_488)" fill-opacity="0.6"/>
<path d="M720.86 390.85H729.25C733.63 390.85 737.67 388.51 739.85 384.72L761.31 347.45H785.29L772.81 390.85H794.19C786.13 407.91 767.6 420.74 749.51 420.74C731.44 420.74 719.78 407.91 720.86 390.85Z" fill="#FDA763"/>
<path d="M753.5 360.84L742.5 379.84C770.01 376.31 781.46 360.84 781.46 360.84H753.5Z" fill="url(#paint24_linear_6862_488)" fill-opacity="0.6"/>
<path d="M731.719 315.48L735.689 337.78C727.659 342.77 720.629 326.85 721.249 320.28C721.699 315.56 725.209 313.3 728.369 313.72C729.599 313.89 730.789 314.47 731.719 315.48Z" fill="#FDA763"/>
<path d="M749.309 274.72L750.039 274.42C757.589 271.32 766.029 271.25 773.629 274.21C784.089 278.29 791.609 287.59 793.429 298.66C794.839 307.27 794.319 316.08 791.909 324.46L781.079 362.13L750.519 366.06C745.499 366.71 740.599 364.18 738.219 359.7L736.249 355.99C731.999 348 729.569 339.16 729.149 330.12L728.519 316.86C728.189 309.94 728.889 303.01 730.589 296.3C733.059 286.55 739.999 278.54 749.309 274.72Z" fill="#FDA763"/>
<path d="M732.68 302.13C732.94 301.62 733.23 301.19 733.53 300.8C733.82 300.4 734.13 300.05 734.44 299.71C735.07 299.05 735.72 298.48 736.39 298.01C737.74 297.05 739.18 296.41 740.67 296.01C742.17 295.61 743.73 295.44 745.38 295.6C746.2 295.67 747.05 295.84 747.92 296.1C748.14 296.17 748.36 296.24 748.58 296.32C748.8 296.41 749.03 296.48 749.25 296.59C749.7 296.79 750.17 297.01 750.65 297.33L732.68 302.13Z" fill="url(#paint25_linear_6862_488)"/>
<path d="M781.15 302.13L763.16 297.32C763.65 297 764.11 296.78 764.56 296.58C764.79 296.47 765.01 296.4 765.23 296.31C765.45 296.23 765.67 296.16 765.89 296.09C766.76 295.83 767.61 295.67 768.43 295.59C770.08 295.44 771.64 295.6 773.14 296C774.64 296.41 776.07 297.05 777.42 298C778.1 298.47 778.75 299.04 779.37 299.7C779.68 300.04 779.99 300.39 780.28 300.79C780.59 301.2 780.88 301.62 781.15 302.13Z" fill="url(#paint26_linear_6862_488)"/>
<path d="M790.94 335.9L786.31 343.97L784.59 335.48L790.94 335.9Z" fill="url(#paint27_linear_6862_488)" fill-opacity="0.6"/>
<path opacity="0.8" d="M754.49 313.97C754.49 313.97 753.85 316.92 751.18 319.87C748.81 322.49 745.74 322.96 744.04 325.72C742.34 328.47 746.81 333.52 746.81 333.52C746.81 333.52 744.49 329.11 746.12 327.42C748.47 324.98 751.39 325.39 753.9 322.79C756.4 320.18 754.48 313.96 754.49 313.97Z" fill="url(#paint28_linear_6862_488)" fill-opacity="0.6"/>
<path d="M763.949 347.6C768.289 345.88 771.259 337.41 771.259 337.41C768.509 339.38 762.769 342.6 754.289 342.92C754.289 342.92 759.609 349.31 763.949 347.6Z" fill="url(#paint29_linear_6862_488)" fill-opacity="0.6"/>
<g opacity="0.8">
<path d="M771.259 337.41C769.609 338.49 761.459 336.36 758.809 337.38C756.159 338.4 756.579 342.76 754.289 342.92C762.759 342.6 768.509 339.37 771.259 337.41Z" fill="black" fill-opacity="0.6"/>
</g>
<g opacity="0.8">
<path d="M773.12 335.9C771.51 338.22 769.1 339.9 766.6 341.14C764.51 342.16 762.18 342.84 759.88 343.18C758.49 343.36 757.08 343.41 755.68 343.34C755.5 343.34 755.16 343.31 754.98 343.28C754.31 343.2 753.56 343.09 752.91 342.95L754.28 342.91C754.67 342.89 755.26 342.89 755.64 342.84C756.13 342.79 757.2 342.7 757.68 342.63C758.1 342.56 759.27 342.37 759.7 342.29C760.16 342.18 761.25 341.94 761.7 341.83C762.03 341.73 762.68 341.54 763.01 341.44C766.68 340.27 770.25 338.49 773.12 335.9Z" fill="black" fill-opacity="0.6"/>
</g>
<g opacity="0.8">
<path d="M736.45 309.08C736.63 308.79 736.82 308.53 737.01 308.29C737.4 307.81 737.8 307.4 738.22 307.07C739.06 306.39 739.97 305.96 740.93 305.71C741.88 305.46 742.89 305.4 743.95 305.58C744.48 305.67 745.03 305.83 745.6 306.06C745.89 306.18 746.17 306.32 746.47 306.49C746.77 306.66 747.07 306.85 747.39 307.11L735.93 310.07C736.09 309.68 736.27 309.37 736.45 309.08Z" fill="url(#paint30_linear_6862_488)" fill-opacity="0.6"/>
</g>
<path fill-rule="evenodd" clip-rule="evenodd" d="M744.96 314.23L744.11 320.13C743.96 321.14 743.02 321.85 742.01 321.7C741 321.55 740.29 320.61 740.44 319.6L741.29 313.7C741.44 312.69 742.38 311.98 743.39 312.13C744.4 312.27 745.11 313.21 744.96 314.23Z" fill="black" fill-opacity="0.6"/>
<g opacity="0.8">
<path d="M766.42 307.1C766.74 306.84 767.05 306.65 767.34 306.48C767.64 306.31 767.93 306.18 768.21 306.05C768.78 305.82 769.33 305.66 769.86 305.57C770.93 305.39 771.93 305.45 772.88 305.7C773.83 305.95 774.74 306.38 775.59 307.06C776.01 307.4 776.42 307.8 776.8 308.28C776.99 308.53 777.18 308.78 777.36 309.07C777.54 309.36 777.72 309.67 777.87 310.05L766.42 307.1Z" fill="url(#paint31_linear_6862_488)" fill-opacity="0.6"/>
</g>
<path fill-rule="evenodd" clip-rule="evenodd" d="M772.53 314.23L771.68 320.13C771.53 321.14 770.59 321.85 769.58 321.7C768.57 321.55 767.86 320.61 768.01 319.6L768.86 313.7C769.01 312.69 769.95 311.98 770.96 312.13C771.97 312.27 772.68 313.21 772.53 314.23Z" fill="black" fill-opacity="0.6"/>
<path d="M795.569 289.24C793.289 284.62 782.849 261.34 757.499 261.34C720.799 261.34 720.799 293.81 720.799 293.81H749.579H751.5H753.919H782.949C786.439 307.74 791.449 304.37 791.449 315.48C804.949 319.1 797.849 293.86 795.569 289.24Z" fill="#175047"/>
<path d="M726 305.84C767.654 305.84 791 293.84 791 293.84H730.79L726 305.84Z" fill="url(#paint32_linear_6862_488)" fill-opacity="0.6"/>
<path d="M791.45 315.48L782.75 334.04L787 337.4C787.51 337.81 788.07 338.15 788.68 338.38C796.2 341.21 802.52 326.53 801.93 320.29C801.48 315.57 797.97 313.31 794.81 313.73C793.56 313.89 792.37 314.47 791.45 315.48Z" fill="#FDA763"/>
<path d="M778.119 372.42L743.659 378.13L740.389 383.81L776.579 377.81L778.119 372.42Z" fill="#123633"/>
<path d="M755.239 387.81C756.909 385.1 756.509 381.81 754.329 380.46C752.149 379.12 749.029 380.23 747.349 382.94C745.679 385.65 746.079 388.94 748.259 390.29C750.449 391.63 753.569 390.52 755.239 387.81Z" fill="#175047"/>
<path opacity="0.5" d="M754.819 391.75L746.699 393.88L757.049 381.83L754.819 391.75Z" fill="url(#paint33_linear_6862_488)" fill-opacity="0.6"/>
<defs>
<linearGradient id="paint0_linear_6862_488" x1="86.945" y1="1014.44" x2="487.06" y2="1014.44" gradientUnits="userSpaceOnUse">
<stop stop-opacity="0"/>
<stop offset="1"/>
</linearGradient>
<linearGradient id="paint1_linear_6862_488" x1="517.899" y1="1001.57" x2="918.014" y2="1001.57" gradientUnits="userSpaceOnUse">
<stop stop-opacity="0"/>
<stop offset="1"/>
</linearGradient>
<linearGradient id="paint2_linear_6862_488" x1="296.689" y1="795.778" x2="387.111" y2="761.001" gradientUnits="userSpaceOnUse">
<stop/>
<stop offset="1" stop-opacity="0"/>
</linearGradient>
<linearGradient id="paint3_linear_6862_488" x1="44.1772" y1="202.789" x2="220.816" y2="490.034" gradientUnits="userSpaceOnUse">
<stop/>
<stop offset="1" stop-opacity="0"/>
</linearGradient>
<linearGradient id="paint4_linear_6862_488" x1="285.8" y1="348.434" x2="322.269" y2="348.434" gradientUnits="userSpaceOnUse">
<stop stop-opacity="0"/>
<stop offset="1"/>
</linearGradient>
<linearGradient id="paint5_linear_6862_488" x1="271" y1="309.134" x2="290.963" y2="309.134" gradientUnits="userSpaceOnUse">
<stop stop-opacity="0"/>
<stop offset="1"/>
</linearGradient>
<linearGradient id="paint6_linear_6862_488" x1="325.664" y1="321.453" x2="333.374" y2="291.085" gradientUnits="userSpaceOnUse">
<stop/>
<stop offset="1" stop-opacity="0"/>
</linearGradient>
<linearGradient id="paint7_linear_6862_488" x1="330.46" y1="290.299" x2="342.576" y2="290.079" gradientUnits="userSpaceOnUse">
<stop/>
<stop offset="1" stop-opacity="0.2"/>
</linearGradient>
<linearGradient id="paint8_linear_6862_488" x1="302.615" y1="290.218" x2="316.833" y2="289.963" gradientUnits="userSpaceOnUse">
<stop/>
<stop offset="1" stop-opacity="0.2"/>
</linearGradient>
<linearGradient id="paint9_linear_6862_488" x1="298.988" y1="277.399" x2="315.833" y2="281.042" gradientUnits="userSpaceOnUse">
<stop stop-color="#123633"/>
<stop offset="1" stop-color="#123633" stop-opacity="0.2"/>
</linearGradient>
<linearGradient id="paint10_linear_6862_488" x1="327.525" y1="276.501" x2="343.251" y2="279.908" gradientUnits="userSpaceOnUse">
<stop stop-color="#123633"/>
<stop offset="1" stop-color="#123633" stop-opacity="0.2"/>
</linearGradient>
<linearGradient id="paint11_linear_6862_488" x1="318.105" y1="326.174" x2="341.253" y2="326.174" gradientUnits="userSpaceOnUse">
<stop/>
<stop offset="1" stop-opacity="0"/>
</linearGradient>
<linearGradient id="paint12_linear_6862_488" x1="809.357" y1="885.597" x2="803.058" y2="836.269" gradientUnits="userSpaceOnUse">
<stop stop-opacity="0"/>
<stop offset="1"/>
</linearGradient>
<linearGradient id="paint13_linear_6862_488" x1="714.834" y1="890.954" x2="719.576" y2="853.822" gradientUnits="userSpaceOnUse">
<stop stop-opacity="0"/>
<stop offset="1"/>
</linearGradient>
<linearGradient id="paint14_linear_6862_488" x1="754.071" y1="544.995" x2="732.461" y2="503.806" gradientUnits="userSpaceOnUse">
<stop stop-opacity="0"/>
<stop offset="1"/>
</linearGradient>
<linearGradient id="paint15_linear_6862_488" x1="854.664" y1="461.749" x2="854.664" y2="420.898" gradientUnits="userSpaceOnUse">
<stop stop-opacity="0"/>
<stop offset="1"/>
</linearGradient>
<linearGradient id="paint16_linear_6862_488" x1="803.335" y1="551.886" x2="803.335" y2="503.062" gradientUnits="userSpaceOnUse">
<stop stop-opacity="0"/>
<stop offset="1"/>
</linearGradient>
<linearGradient id="paint17_linear_6862_488" x1="666.452" y1="460.782" x2="666.452" y2="430.858" gradientUnits="userSpaceOnUse">
<stop stop-opacity="0"/>
<stop offset="1"/>
</linearGradient>
<linearGradient id="paint18_linear_6862_488" x1="719.997" y1="549.846" x2="719.997" y2="495.843" gradientUnits="userSpaceOnUse">
<stop stop-opacity="0"/>
<stop offset="1"/>
</linearGradient>
<linearGradient id="paint19_linear_6862_488" x1="678.82" y1="466.498" x2="708.456" y2="410.023" gradientUnits="userSpaceOnUse">
<stop stop-opacity="0"/>
<stop offset="1"/>
</linearGradient>
<linearGradient id="paint20_linear_6862_488" x1="786.76" y1="261.483" x2="765.124" y2="261.483" gradientUnits="userSpaceOnUse">
<stop stop-opacity="0"/>
<stop offset="1"/>
</linearGradient>
<linearGradient id="paint21_linear_6862_488" x1="760.134" y1="355.559" x2="727.535" y2="355.559" gradientUnits="userSpaceOnUse">
<stop/>
<stop offset="1" stop-opacity="0"/>
</linearGradient>
<linearGradient id="paint22_linear_6862_488" x1="788.701" y1="391.804" x2="788.701" y2="324.467" gradientUnits="userSpaceOnUse">
<stop stop-opacity="0"/>
<stop offset="1"/>
</linearGradient>
<linearGradient id="paint23_linear_6862_488" x1="779.627" y1="264.656" x2="744.001" y2="264.656" gradientUnits="userSpaceOnUse">
<stop stop-opacity="0"/>
<stop offset="1"/>
</linearGradient>
<linearGradient id="paint24_linear_6862_488" x1="781.459" y1="370.32" x2="742.999" y2="370.32" gradientUnits="userSpaceOnUse">
<stop stop-opacity="0"/>
<stop offset="1"/>
</linearGradient>
<linearGradient id="paint25_linear_6862_488" x1="730.749" y1="298.836" x2="752.582" y2="298.836" gradientUnits="userSpaceOnUse">
<stop stop-color="#175047" stop-opacity="0.2"/>
<stop offset="1" stop-color="#175047"/>
</linearGradient>
<linearGradient id="paint26_linear_6862_488" x1="783.068" y1="298.837" x2="761.234" y2="298.837" gradientUnits="userSpaceOnUse">
<stop stop-color="#175047"/>
<stop offset="1" stop-color="#175047" stop-opacity="0.2"/>
</linearGradient>
<linearGradient id="paint27_linear_6862_488" x1="787.756" y1="343.971" x2="787.756" y2="335.484" gradientUnits="userSpaceOnUse">
<stop stop-opacity="0"/>
<stop offset="1"/>
</linearGradient>
<linearGradient id="paint28_linear_6862_488" x1="752.044" y1="332.134" x2="747.729" y2="315.743" gradientUnits="userSpaceOnUse">
<stop/>
<stop offset="1" stop-opacity="0"/>
</linearGradient>
<linearGradient id="paint29_linear_6862_488" x1="771.256" y1="342.65" x2="754.29" y2="342.65" gradientUnits="userSpaceOnUse">
<stop/>
<stop offset="1" stop-opacity="0"/>
</linearGradient>
<linearGradient id="paint30_linear_6862_488" x1="734.45" y1="307.77" x2="748.883" y2="307.77" gradientUnits="userSpaceOnUse">
<stop stop-opacity="0.2"/>
<stop offset="1"/>
</linearGradient>
<linearGradient id="paint31_linear_6862_488" x1="779.367" y1="307.77" x2="764.934" y2="307.77" gradientUnits="userSpaceOnUse">
<stop/>
<stop offset="1" stop-opacity="0.2"/>
</linearGradient>
<linearGradient id="paint32_linear_6862_488" x1="791.003" y1="299.846" x2="726.001" y2="299.846" gradientUnits="userSpaceOnUse">
<stop/>
<stop offset="1" stop-opacity="0"/>
</linearGradient>
<linearGradient id="paint33_linear_6862_488" x1="757.045" y1="387.853" x2="746.693" y2="387.853" gradientUnits="userSpaceOnUse">
<stop/>
<stop offset="1" stop-opacity="0"/>
</linearGradient>
</defs>
</svg>
