<svg width="301" height="266" viewBox="0 0 301 266" fill="none" xmlns="http://www.w3.org/2000/svg">
<path d="M152.677 241.788C227.609 241.788 288.353 213.199 288.353 177.932C288.353 142.666 227.609 114.077 152.677 114.077C77.7445 114.077 17 142.666 17 177.932C17 213.199 77.7445 241.788 152.677 241.788Z" fill="#E6E6FF"/>
<path d="M152.677 177.71C227.609 177.71 288.353 149.121 288.353 113.855C288.353 78.5889 227.609 50 152.677 50C77.7445 50 17 78.5889 17 113.855C17 149.121 77.7445 177.71 152.677 177.71Z" fill="#E6E6FF"/>
<path d="M160.526 223.89C159.825 223.696 159.825 222.608 160.526 222.414C165.402 221.087 167.102 219.417 168.429 214.526C168.623 213.825 169.711 213.825 169.905 214.526C171.232 219.402 172.917 221.087 177.808 222.414C178.509 222.608 178.509 223.696 177.808 223.89C172.932 225.217 171.232 226.887 169.905 231.778C169.711 232.479 168.623 232.479 168.429 231.778C167.102 226.902 165.417 225.217 160.526 223.89Z" fill="#24D76C" stroke="#221F20" stroke-miterlimit="10"/>
<path d="M237.572 186.75C237.572 186.75 237.263 186.988 236.675 187.392C233.984 189.303 225.48 195.095 215.873 199.546C210.215 202.18 204.193 204.342 198.734 204.99C196.981 205.208 195.304 205.269 193.712 205.128C193.682 205.122 193.676 205.152 193.661 205.15C192.575 205.134 191.59 205.075 190.683 205.015C190.136 203.185 189.311 200.183 188.216 195.87C188.2 195.789 188.184 195.709 188.152 195.625C186.996 190.974 181.343 185.811 176.617 182.191C168.056 175.6 161.243 166.89 157.5 156.745C151.552 140.727 155.681 128.843 156.616 120.067C157.928 107.845 153.14 81.7828 153.513 77.0274C153.683 74.8645 153.014 69.975 158.315 69.4432C162.467 68.8784 164.733 72.7559 165.912 76.1975C165.948 76.4221 165.966 76.6589 166.017 76.8863C166.006 76.9465 165.998 76.9916 166.016 77.0574C166.016 77.0574 166.018 77.0474 166.022 77.0273L166.028 76.9972C166.047 76.8919 166.078 76.7265 166.065 76.6306C166.043 76.5799 166.024 76.5141 166.018 76.4662C165.857 66.5532 163.005 55.944 170.283 55.5025C176.993 53.3366 179.894 64.1419 180.692 71.6368C180.655 71.0851 180.647 70.5391 180.628 69.9751C180.558 66.9271 180.443 63.8707 180.514 60.8178C180.559 58.3204 180.586 55.8352 180.958 53.3366C181.093 52.3655 181.371 51.3745 182.012 50.6068C183.48 48.826 186.145 48.809 188.107 49.7195C190.516 50.8222 192.032 53.5481 192.861 55.944C193.641 58.1904 193.68 60.4856 194.218 62.7803C194.643 64.7583 195.056 66.7185 195.364 68.7371C195.945 72.4717 196.514 76.2664 196.758 80.0474C196.599 70.4614 196.866 62.1843 198.222 60.3359C202.416 54.534 208.289 58.43 209.336 62.5006C209.715 63.972 214.679 101.395 214.679 101.395C215.525 99.6069 216.95 97.9737 219.253 96.4729C231.906 88.2941 229.877 121.394 230.807 125.925C233.025 136.658 232.655 143.655 227.919 152.78C225.056 158.285 225.119 164.88 227.935 170.401L231 176.42C231 176.42 230.874 176.427 230.811 176.431C231.231 177.101 231.623 177.75 232.031 178.402C232.053 178.453 232.077 178.488 232.117 178.527C235.063 183.263 237.552 186.777 237.552 186.777L237.572 186.75Z" fill="#D19D90" stroke="black" stroke-linejoin="round"/>
<path d="M198.609 115.551C198.609 115.551 198.62 115.491 198.603 115.332C198.44 113.201 197.054 94.9972 196.797 80.0078" stroke="black" stroke-linejoin="round"/>
<path d="M196.92 82.5981C196.896 81.7221 196.867 80.8763 196.793 80.022" stroke="black" stroke-linejoin="round"/>
<path d="M180.699 71.5918C180.848 77.8918 181.183 84.1954 181.536 90.4868C181.875 96.4332 182.28 102.361 182.694 108.321C182.818 110.165 182.959 111.997 183.052 113.835C183.064 114.024 183.008 115.741 183.129 115.842" stroke="black" stroke-linejoin="round"/>
<path d="M166.047 76.9697C168.14 93.0483 170.147 114.014 170.424 114.112" stroke="black" stroke-linejoin="round"/>
<path d="M181.097 78.3117C181.097 78.3117 181.1 75.3707 180.699 71.5918" stroke="black" stroke-linejoin="round"/>
<path d="M232.067 178.377L231.051 176.397" stroke="black" stroke-linejoin="round"/>
<path d="M214.7 101.366C212.511 105.845 214.013 111.23 214.334 117.36C214.334 117.36 210.81 124.827 209.86 139.779" stroke="black" stroke-linejoin="round"/>
<path d="M165.23 124.116C165.745 122.36 200.548 104.473 211.147 124.019" stroke="black" stroke-linejoin="round"/>
<path d="M244.658 180.21C244.463 181.59 242.489 183.666 237.572 186.749C237.572 186.749 235.083 183.235 232.137 178.499C232.112 178.463 232.073 178.425 232.051 178.374C231.659 177.725 231.248 177.088 230.831 176.404C230.891 176.415 230.957 176.396 231.02 176.392C233.898 176.15 245.113 176.684 244.631 180.189L244.625 180.22L244.658 180.21Z" fill="#691EDD" stroke="black" stroke-linejoin="round"/>
<path d="M190.673 204.981C186.513 204.672 184.455 203.853 183.76 202.821L183.48 202.068C183.176 199.942 186.42 197.153 188.221 195.839C189.313 200.167 190.139 203.169 190.688 204.983L190.673 204.981Z" fill="#691EDD" stroke="black" stroke-linejoin="round"/>
<path d="M255.39 203.719C255.39 203.719 250.746 213.857 229.296 223.556C207.857 233.288 193.805 231.852 193.805 231.852L183.761 202.821C184.453 203.868 186.513 204.672 190.673 204.981C191.577 205.056 192.565 205.1 193.652 205.116C193.652 205.116 193.682 205.121 193.703 205.094C195.283 205.217 196.972 205.174 198.724 204.956C204.184 204.308 210.205 202.146 215.863 199.512C225.468 195.077 233.972 189.284 236.665 187.358C237.254 186.954 237.563 186.716 237.563 186.716C242.462 183.645 244.451 181.572 244.649 180.177L255.381 203.686L255.39 203.719Z" fill="#8C61F2" stroke="black" stroke-linejoin="round"/>
<path d="M252.526 119.89C251.825 119.696 251.825 118.608 252.526 118.414C257.402 117.087 259.102 115.417 260.429 110.526C260.623 109.825 261.711 109.825 261.905 110.526C263.232 115.402 264.917 117.087 269.808 118.414C270.509 118.608 270.509 119.696 269.808 119.89C264.932 121.217 263.232 122.887 261.905 127.778C261.711 128.479 260.623 128.479 260.429 127.778C259.102 122.902 257.417 121.217 252.526 119.89Z" fill="#24D76C" stroke="#221F20" stroke-miterlimit="10"/>
<g clip-path="url(#clip0_1458_60963)">
<path d="M142.354 188.853C142.354 188.853 140.216 200.647 138.864 204.881C137.745 208.415 136.576 211.949 136.075 213.082C136.025 213.246 135.959 213.35 135.925 213.41C135.157 213.276 131.016 212.277 130.114 212.083C130.114 212.083 116.974 210.189 103.399 205.865C93.9979 202.898 84.4303 198.768 78.8533 193.326C78.5862 193.072 78.3691 192.849 78.152 192.595C78.102 192.64 78.102 192.535 78.102 192.535C77.768 192.207 77.4174 191.879 77.1168 191.581C76.833 191.313 76.5825 191.044 76.332 190.791C77.4675 188.122 78.6864 185.006 79.9053 181.368C83.1279 171.795 86.4173 158.734 88.638 141.483C88.638 141.483 89.7067 122.442 89.4896 121.16C88.2874 114.331 86.9349 109.62 83.1112 104.535C80.3895 100.942 91.0425 96.1705 98.6732 105.251C100.81 107.8 102.53 109.888 103.816 111.901C103.599 113.273 103.382 114.6 103.198 115.867C103.566 113.69 103.833 112.08 103.833 111.946C103.833 111.931 103.833 111.916 103.816 111.901C106.02 97.408 108.642 79.0982 109.61 68.1541C109.61 68.1541 109.393 63.2486 111.847 60.1026C113.885 57.4933 118.526 56.4794 123.085 60.0728C123.703 55.6444 123.085 56.4713 124.571 52.0958C129.033 49.9764 136.581 49.954 140.024 58.4696C143.296 58.4398 146.555 58.4696 149.016 62.9654C150.836 66.2904 150.986 80.5594 151.086 84.1528C152.673 82.9153 154.91 82.5574 157.932 83.8546C165.263 86.941 161.739 127.065 161.739 127.065C161.739 127.065 174.747 174.762 142.354 188.853Z" fill="#F4BEAB"/>
<path d="M103.816 111.901C102.53 109.888 100.81 107.8 98.6732 105.251C91.0425 96.1705 80.3895 100.942 83.1112 104.535C86.9349 109.62 88.2874 114.331 89.4896 121.16C89.7067 122.442 88.638 141.483 88.638 141.483C86.4173 158.734 83.1279 171.795 79.9053 181.368C78.6864 185.006 77.4675 188.122 76.332 190.791C76.5825 191.044 76.833 191.313 77.1168 191.581C77.4174 191.879 77.768 192.207 78.102 192.535C78.102 192.535 78.102 192.64 78.152 192.595C78.3691 192.849 78.5862 193.072 78.8533 193.326C84.4303 198.768 93.9979 202.898 103.399 205.865C116.974 210.189 130.114 212.083 130.114 212.083C131.016 212.277 135.157 213.276 135.925 213.41C135.959 213.35 136.025 213.246 136.075 213.082C136.576 211.949 137.745 208.415 138.864 204.881C140.216 200.647 142.354 188.853 142.354 188.853C174.747 174.762 161.739 127.065 161.739 127.065C161.739 127.065 165.263 86.941 157.932 83.8546C154.91 82.5574 152.673 82.9153 151.086 84.1528C150.986 80.5594 150.836 66.2904 149.016 62.9654C146.555 58.4696 143.296 58.4398 140.024 58.4696C136.581 49.954 129.033 49.9764 124.571 52.0958C123.085 56.4713 123.703 55.6444 123.085 60.0728C118.526 56.4794 113.885 57.4933 111.847 60.1026C109.393 63.2486 109.61 68.1541 109.61 68.1541C108.642 79.0982 106.02 97.408 103.816 111.901ZM103.816 111.901C103.599 113.273 103.382 114.6 103.198 115.867C103.566 113.69 103.833 112.08 103.833 111.946C103.833 111.931 103.833 111.916 103.816 111.901Z" stroke="black" stroke-width="0.955607" stroke-miterlimit="10"/>
<path d="M103.85 111.945C103.85 111.945 101.98 127.497 101.529 130.21C101.78 128.63 103.55 113.615 103.817 111.916C103.817 111.916 103.817 111.945 103.834 111.96L103.85 111.945Z" fill="#F4BEAB" stroke="black" stroke-width="0.955607" stroke-miterlimit="10"/>
<path d="M123.087 60.0571C120.549 78.188 116.992 124.469 116.992 124.469" stroke="black" stroke-width="0.955607" stroke-miterlimit="10"/>
<path d="M140.969 58.4922C137.362 58.522 133.989 60.8927 134.457 68.2286C135.342 82.2293 130.566 125.484 130.566 125.484" stroke="black" stroke-width="0.955607" stroke-miterlimit="10"/>
<path d="M151.087 84.1519C148.817 85.9262 147.898 89.5046 147.998 92.7998C148.165 98.3912 145.227 123.202 145.227 123.202" stroke="black" stroke-width="0.955607" stroke-miterlimit="10"/>
<path d="M141.536 212.56L141.52 212.56C141.52 212.56 141.353 212.679 141.252 212.739C141.052 212.828 140.818 212.917 140.568 212.977C140.301 213.052 140 213.096 139.666 213.141C138.764 213.246 137.579 213.246 136.076 213.081C136.577 211.948 137.746 208.415 138.865 204.881C141.453 207.937 143.456 211.292 141.536 212.56Z" fill="#16CC86" stroke="black" stroke-width="1.16465" stroke-linejoin="round"/>
<path d="M79.9223 181.367C78.7034 184.991 77.4845 188.122 76.3324 190.791C75.8983 190.343 75.4975 189.926 75.1469 189.523C74.145 188.405 73.3769 187.436 72.8426 186.586C72.7424 186.407 72.6089 186.243 72.5254 186.079C72.3751 185.751 72.2415 185.468 72.1246 185.199L72.1079 185.199C71.8575 184.558 71.774 184.007 71.8575 183.574C71.8575 183.515 71.8742 183.455 71.8742 183.38L72.2749 182.605C73.5606 181.129 77.2508 181.114 79.939 181.382L79.9223 181.367Z" fill="#16CC86" stroke="black" stroke-width="1.16465" stroke-linejoin="round"/>
<path d="M141.52 212.574L133.739 232.703C133.739 232.703 119.446 238.697 93.4313 229.706C67.4 220.715 58.8008 207.073 58.8008 207.073L71.8248 183.365C71.8248 183.365 71.7914 183.485 71.8248 183.559C71.7413 184.006 71.8248 184.543 72.0752 185.169L72.0919 185.169C72.1921 185.453 72.3257 185.751 72.4927 186.064C72.5929 186.243 72.7264 186.392 72.8099 186.571C73.3442 187.421 74.1123 188.405 75.1142 189.508C75.4648 189.911 75.8823 190.328 76.2997 190.776C76.5501 191.029 76.8173 191.297 77.1012 191.566C77.4017 191.879 77.7524 192.192 78.0863 192.52C78.0863 192.52 78.0863 192.61 78.1364 192.58C78.3535 192.833 78.5705 193.057 78.8377 193.31C84.4146 198.753 93.9656 202.883 103.383 205.85C116.958 210.159 130.099 212.067 130.099 212.067C131 212.261 131.835 212.425 132.62 212.56C133.138 212.649 133.622 212.738 134.106 212.813C136.561 213.201 138.397 213.29 139.65 213.126C139.984 213.096 140.284 213.037 140.551 212.962C140.802 212.902 141.052 212.813 141.236 212.724C141.336 212.664 141.436 212.619 141.503 212.56L141.52 212.574Z" fill="#208C6E" stroke="black" stroke-width="1.16465" stroke-linejoin="round"/>
<path d="M61.8482 74.3993C61.022 74.1697 61.022 72.8998 61.8482 72.6856C67.54 71.1402 69.5291 69.1818 71.0744 63.4747C71.3039 62.6484 72.5739 62.6484 72.8034 63.4747C74.3488 69.1665 76.3225 71.1402 82.0296 72.6856C82.8559 72.9151 82.8559 74.185 82.0296 74.3993C76.3225 75.9446 74.3488 77.9031 72.8034 83.6102C72.5739 84.4364 71.304 84.4364 71.0897 83.6102C69.5444 77.9184 67.5706 75.9446 61.8635 74.3993H61.8482Z" fill="#24D76C" stroke="#221F20" stroke-width="1.02609" stroke-miterlimit="10"/>
<path d="M151.515 56.4708L144.021 36.9873" stroke="black" stroke-width="0.999155"/>
<path d="M157.01 49.4768V25.4971M163.005 53.973L168.5 40.984" stroke="black" stroke-width="0.999155"/>
</g>
<path d="M41.6934 151.817V132" stroke="black"/>
<path d="M41.6934 181.774V161.957" stroke="black"/>
<path d="M46.7188 156.888H66.3871" stroke="black"/>
<path d="M17 156.888H36.6683" stroke="black"/>
<path d="M33.2832 148.403L38.1444 153.294" stroke="black"/>
<path d="M50.492 148.403L45.6309 153.294" stroke="black"/>
<path d="M50.492 165.089L45.6309 160.198" stroke="black"/>
<path d="M33.2832 165.089L38.1444 160.198" stroke="black"/>
<defs>
<clipPath id="clip0_1458_60963">
<rect width="115.902" height="212.82" fill="white" transform="translate(58.0938 22)"/>
</clipPath>
</defs>
</svg>
