<svg width="1080" height="1080" viewBox="0 0 1080 1080" fill="none" xmlns="http://www.w3.org/2000/svg">
<path d="M173.891 639.686L180.49 626.757L125.4 637.677L97.3857 653.955L100.295 655.72C103.461 657.631 107.308 658.033 110.79 656.804L127.615 651.106L118.046 660.188C123.233 663.463 128.054 658.058 137.927 652.019C154.777 641.707 151.514 653.078 160.243 653.078C168.973 653.078 172.735 649.791 178.043 646.126C180.892 644.166 184.02 642.632 187.32 641.597L196.536 638.7L173.867 639.698L173.891 639.686Z" fill="#FF757F"/>
<mask id="mask0_2666_86950" style="mask-type:luminance" maskUnits="userSpaceOnUse" x="97" y="626" width="100" height="36">
<path d="M173.892 639.686L180.491 626.757L125.401 637.677L97.3867 653.955L100.296 655.72C103.462 657.631 107.309 658.033 110.791 656.804L127.616 651.106L118.047 660.188C123.233 663.463 128.055 658.058 137.928 652.019C154.778 641.707 151.515 653.078 160.244 653.078C168.974 653.078 172.736 649.791 178.044 646.126C180.893 644.166 184.021 642.632 187.321 641.597L196.537 638.7L173.868 639.698L173.892 639.686Z" fill="white"/>
</mask>
<g mask="url(#mask0_2666_86950)">
<path style="mix-blend-mode:multiply" d="M190.754 640.527L117.146 681.409L93.0771 648.586L190.754 640.527Z" fill="url(#paint0_linear_2666_86950)" fill-opacity="0.6"/>
</g>
<path d="M186.588 619.351L183.338 621.287C177.36 624.854 146.12 631.915 146.12 631.915L122.659 637.26C119.238 638.039 115.951 639.342 112.92 641.119L97.19 650.323C95.863 651.102 95.8386 653.001 97.1291 653.817C98.9553 654.974 101.232 655.193 103.253 654.414L116.816 649.166C119.117 648.278 121.564 647.815 124.035 647.815H157.528C164.138 647.815 170.725 646.805 177.031 644.82L217.695 632.037L186.588 619.339V619.351Z" fill="#FF757F"/>
<mask id="mask1_2666_86950" style="mask-type:luminance" maskUnits="userSpaceOnUse" x="96" y="619" width="122" height="36">
<path d="M186.589 619.351L183.339 621.287C177.361 624.854 146.121 631.915 146.121 631.915L122.66 637.26C119.239 638.039 115.952 639.342 112.921 641.119L97.191 650.323C95.8639 651.102 95.8396 653.002 97.1301 653.817C98.9563 654.974 101.233 655.193 103.254 654.414L116.817 649.167C119.118 648.278 121.565 647.815 124.036 647.815H157.528C164.139 647.815 170.726 646.805 177.032 644.82L217.696 632.037L186.589 619.339V619.351Z" fill="white"/>
</mask>
<g mask="url(#mask1_2666_86950)">
<path style="mix-blend-mode:multiply" d="M220.094 634.144L196.561 638.685L186.59 619.351L220.094 634.144Z" fill="url(#paint1_linear_2666_86950)" fill-opacity="0.6"/>
</g>
<path d="M422.116 918.772C434.303 933.296 442.278 947.443 447.501 959.788C440.293 959.788 439.831 968.043 427.68 968.043C417.575 968.043 414.446 955.43 400.482 951.193C395.247 949.61 389.574 950.889 385.373 954.395L385.313 954.444C387.248 952.824 389.014 951.266 390.56 949.817C394.797 945.873 394.675 939.116 390.316 935.305L354.121 903.639L422.116 918.76V918.772Z" fill="#FF757F"/>
<mask id="mask2_2666_86950" style="mask-type:luminance" maskUnits="userSpaceOnUse" x="354" y="903" width="94" height="66">
<path d="M422.116 918.772C434.303 933.296 442.278 947.443 447.501 959.788C440.293 959.788 439.831 968.043 427.68 968.043C417.575 968.043 414.446 955.43 400.482 951.193C395.247 949.61 389.574 950.889 385.373 954.395L385.313 954.444C387.248 952.824 389.014 951.266 390.56 949.817C394.797 945.873 394.675 939.116 390.316 935.305L354.121 903.639L422.116 918.76V918.772Z" fill="white"/>
</mask>
<g mask="url(#mask2_2666_86950)">
<path style="mix-blend-mode:multiply" d="M371.238 918.626C391.168 927.477 384.703 944.545 447.488 935.841L414.531 903.639L371.226 918.626" fill="url(#paint2_linear_2666_86950)" fill-opacity="0.6"/>
</g>
<path d="M447.491 959.79C440.284 959.79 439.821 968.045 427.671 968.045C417.566 968.045 414.437 955.432 400.473 951.195C395.238 949.612 389.564 950.891 385.364 954.397C379.545 959.255 372.106 964.551 363.9 968.264C344.652 976.969 329.982 984.31 334.109 1000.81H457.401C457.401 1000.81 459.191 959.79 447.491 959.79Z" fill="#123633"/>
<mask id="mask3_2666_86950" style="mask-type:luminance" maskUnits="userSpaceOnUse" x="333" y="950" width="125" height="51">
<path d="M447.491 959.79C440.284 959.79 439.821 968.045 427.671 968.045C417.566 968.045 414.437 955.432 400.473 951.195C395.238 949.612 389.564 950.891 385.364 954.397C379.545 959.255 372.106 964.551 363.9 968.264C344.652 976.969 329.982 984.31 334.109 1000.81H457.401C457.401 1000.81 459.191 959.79 447.491 959.79Z" fill="white"/>
</mask>
<g mask="url(#mask3_2666_86950)">
<path d="M333.464 994.342H426.917C435.621 994.342 440.126 987.975 457.353 987.975C474.58 987.975 465.875 1008.15 465.875 1008.15L334.109 1000.82L327.462 995.316L333.464 994.342Z" fill="#208C6E"/>
<path style="mix-blend-mode:multiply" d="M427.685 968.045C383.381 968.045 392.39 1000.82 348.087 1000.82L383.832 1016.87L477.333 1006.78L471.379 950.538L434.709 952.705L427.673 968.057L427.685 968.045Z" fill="url(#paint3_linear_2666_86950)" fill-opacity="0.6"/>
</g>
<path d="M784.327 927.71C813.437 943.757 865.581 956.224 865.629 974.632C902.579 974.632 889.711 956.041 906.804 956.041L906.597 955.931C901.045 952.997 897.746 950.185 894.264 947.677L884.585 940.701L784.339 927.71H784.327Z" fill="#FF757F"/>
<mask id="mask4_2666_86950" style="mask-type:luminance" maskUnits="userSpaceOnUse" x="784" y="927" width="123" height="48">
<path d="M784.325 927.711C813.435 943.757 865.579 956.224 865.627 974.632C902.577 974.632 889.709 956.041 906.802 956.041L906.595 955.931C901.043 952.997 897.744 950.185 894.262 947.677L884.583 940.701L784.337 927.711H784.325Z" fill="white"/>
</mask>
<g mask="url(#mask4_2666_86950)">
<path style="mix-blend-mode:multiply" d="M833.719 974.632C833.719 974.632 846.32 980.561 858.214 974.632C870.109 968.703 874.236 947.154 878.911 944.232L873.566 925.872L829.336 943.976L833.707 974.632H833.719Z" fill="url(#paint4_linear_2666_86950)" fill-opacity="0.6"/>
</g>
<path d="M687.259 766.834C609.889 699.874 589.558 684.765 574.51 658.017C561.093 634.167 569.969 612.484 561.678 601.15L405.051 620.398L274.587 742.729C251.407 766.469 250.287 799.669 270.034 820.878L364.12 921.903C374.833 933.408 391.16 937.827 406.22 933.286L437.594 923.826C412.38 894.997 388.043 812.623 355.585 789.357C385.401 778.485 419.514 762.171 447.711 747.696C463.294 739.697 481.702 740.233 496.702 748.718C521.574 765.812 546.861 781.127 592.979 809.738C657.2 849.585 756.947 918.007 805.207 951.426C823.091 963.808 846.613 964.368 865.07 952.863L884.586 940.7C867.736 928.465 756.618 826.843 687.259 766.834Z" fill="#208C6E"/>
<mask id="mask5_2666_86950" style="mask-type:luminance" maskUnits="userSpaceOnUse" x="256" y="601" width="629" height="361">
<path d="M687.26 766.834C609.89 699.874 589.559 684.765 574.511 658.017C561.094 634.167 569.97 612.484 561.679 601.149L405.052 620.398L274.588 742.728C251.408 766.469 250.288 799.669 270.035 820.877L364.121 921.902C374.834 933.408 391.161 937.827 406.221 933.286L437.595 923.826C412.381 894.996 388.044 812.623 355.586 789.357C385.402 778.485 419.515 762.171 447.712 747.696C463.295 739.697 481.703 740.232 496.703 748.718C521.575 765.811 546.862 781.127 592.98 809.738C657.201 849.585 756.948 918.007 805.208 951.426C823.092 963.808 846.614 964.368 865.071 952.863L884.587 940.7C867.737 928.465 756.619 826.843 687.26 766.834Z" fill="white"/>
</mask>
<g mask="url(#mask5_2666_86950)">
<path style="mix-blend-mode:multiply" d="M496.702 748.731L427.136 772.702L360.76 741.742C360.76 741.742 457.414 723.103 496.702 748.731Z" fill="url(#paint5_linear_2666_86950)" fill-opacity="0.6"/>
<path style="mix-blend-mode:multiply" d="M687.552 871.241C728.617 896.686 750.519 888.517 793.142 922.205C835.766 955.892 865.07 952.86 884.586 940.698C937.461 907.729 852.616 985.111 852.616 985.111L716.15 916.702L687.564 871.229L687.552 871.241Z" fill="url(#paint6_linear_2666_86950)" fill-opacity="0.6"/>
<path style="mix-blend-mode:multiply" d="M355.573 789.355C318.294 800.519 344.421 821.143 363.206 833.975C382.004 846.807 409.141 878.68 420.926 898.16C432.723 917.639 447.491 861.027 447.491 861.027L355.573 789.367V789.355Z" fill="url(#paint7_linear_2666_86950)" fill-opacity="0.6"/>
<path style="mix-blend-mode:multiply" d="M411.223 639.743C432.358 650.895 499.927 728.472 595.315 685.435C690.704 642.397 543.573 619.363 543.573 619.363L411.223 639.755V639.743Z" fill="url(#paint8_linear_2666_86950)" fill-opacity="0.6"/>
</g>
<path d="M325.988 486.343L284.643 553.584C279.932 561.254 273.431 567.658 265.687 572.272L186.589 619.363L218.231 647.84L292.679 615.565C314.63 606.044 334.279 591.934 350.301 574.171L411.235 506.626L378.206 425.896L369.318 434.004C352.505 449.344 337.92 466.973 326.001 486.355L325.988 486.343Z" fill="#123633"/>
<mask id="mask6_2666_86950" style="mask-type:luminance" maskUnits="userSpaceOnUse" x="186" y="425" width="226" height="223">
<path d="M325.989 486.343L284.644 553.584C279.933 561.254 273.432 567.658 265.688 572.272L186.59 619.363L218.232 647.84L292.68 615.565C314.631 606.044 334.28 591.934 350.302 574.171L411.236 506.626L378.206 425.896L369.319 434.005C352.506 449.345 337.921 466.973 326.002 486.356L325.989 486.343Z" fill="white"/>
</mask>
<g mask="url(#mask6_2666_86950)">
<path style="mix-blend-mode:multiply" d="M217.695 600.833L261.573 637.113L217.695 661.183L168.193 605.265L217.695 600.833Z" fill="url(#paint9_linear_2666_86950)" fill-opacity="0.6"/>
<path style="mix-blend-mode:multiply" d="M374.103 486.525C320.826 558.526 334.535 597.412 270.131 625.328C239.451 638.623 289.538 647.827 289.538 647.827L405.696 535.674L374.103 486.525Z" fill="url(#paint10_linear_2666_86950)" fill-opacity="0.6"/>
</g>
<path d="M397.308 408.426L378.194 425.872C358.544 443.805 355.062 473.438 370.012 495.438L429.035 582.267L389.674 625.171C389.674 625.171 468.737 690.524 568.167 667.745C581.157 664.775 590.106 652.844 589.412 639.537L586.77 589.377C583.702 531.109 571.259 473.73 549.917 419.431L545.595 408.426H397.32H397.308Z" fill="#123633"/>
<mask id="mask7_2666_86950" style="mask-type:luminance" maskUnits="userSpaceOnUse" x="360" y="408" width="230" height="265">
<path d="M397.307 408.425L378.193 425.872C358.543 443.805 355.061 473.438 370.011 495.437L429.034 582.267L389.673 625.17C389.673 625.17 468.736 690.524 568.166 667.745C581.156 664.774 590.105 652.843 589.411 639.536L586.769 589.377C583.701 531.109 571.258 473.73 549.916 419.431L545.594 408.425H397.319H397.307Z" fill="white"/>
</mask>
<g mask="url(#mask7_2666_86950)">
<path style="mix-blend-mode:multiply" d="M429.035 582.267C439.724 597.997 451.448 611.109 435.293 607.323C419.137 603.536 411.236 601.138 389.687 625.171L392.669 590.132C392.669 590.132 417.664 565.527 429.047 582.255L429.035 582.267Z" fill="url(#paint11_linear_2666_86950)" fill-opacity="0.6"/>
<path style="mix-blend-mode:multiply" d="M533.262 498.7C533.262 498.7 539.3 592.883 602.706 626.765L560.082 482.033L533.274 498.7H533.262Z" fill="url(#paint12_linear_2666_86950)" fill-opacity="0.6"/>
</g>
<path d="M397.307 408.425C401.654 423.425 412.306 451.256 431.615 470.918C440.296 479.757 455.332 475.495 458.181 463.443L466.435 428.465C466.435 428.465 391.987 390.054 397.307 408.438V408.425Z" fill="#FF757F"/>
<mask id="mask8_2666_86950" style="mask-type:luminance" maskUnits="userSpaceOnUse" x="397" y="403" width="70" height="73">
<path d="M397.308 408.425C401.655 423.425 412.307 451.256 431.616 470.918C440.297 479.757 455.333 475.495 458.181 463.443L466.436 428.465C466.436 428.465 391.988 390.054 397.308 408.438V408.425Z" fill="white"/>
</mask>
<g mask="url(#mask8_2666_86950)">
<path style="mix-blend-mode:multiply" d="M405.695 415.304C404.234 432.239 449.718 502.827 465.18 433.261C465.18 433.261 407.156 398.369 405.695 415.304Z" fill="url(#paint13_linear_2666_86950)" fill-opacity="0.6"/>
</g>
<path d="M431.554 326.125C410.102 326.843 387.835 336.717 384.584 357.937C384.317 359.715 388.237 367.811 388.176 369.552C388.018 374.239 388.76 378.926 390.075 383.431L397.319 408.426C400.424 419.139 406.706 428.66 415.325 435.746L419.635 439.276C432.723 450.014 450.839 452.23 466.13 444.962C477.087 439.751 483.236 427.869 481.141 415.913L479.62 407.196C478.585 401.291 478.073 395.314 478.073 389.324V371.062C478.073 345.714 457.097 325.261 431.554 326.125Z" fill="#FF757F"/>
<g style="mix-blend-mode:multiply" opacity="0.5">
<path d="M447.855 372.742C448.306 373.131 448.671 373.545 449.085 373.947L450.169 375.189C450.887 376.017 451.496 376.869 452.104 377.721C452.689 378.573 453.249 379.438 453.76 380.314C454.028 380.716 454.271 381.264 454.491 381.556L455.16 382.542C456.073 383.821 456.986 384.977 457.973 386.024C458.459 386.548 458.934 387.071 459.458 387.534C459.713 387.777 459.957 388.021 460.213 388.252L461.101 389.019L463.232 391.004L464.303 392.099C464.985 392.757 465.594 393.512 466.069 394.327C468.053 397.566 468.114 401.73 466.41 404.785C465.582 406.319 464.364 407.586 462.964 408.413C462.258 408.827 461.528 409.156 460.773 409.351C460.42 409.448 459.957 409.546 459.689 409.558C459.433 409.558 459.178 409.582 458.91 409.582C457.863 409.582 456.816 409.582 455.732 409.46L454.101 409.302C453.541 409.205 452.993 409.144 452.409 408.998L457.814 406.843C458.715 406.502 459.628 406.112 460.347 405.455C461.077 404.81 461.649 403.994 461.99 403.093C462.696 401.279 462.453 399.136 461.345 397.529C460.809 396.701 460.018 396.117 459.3 395.472L457.108 393.548C454.138 391.052 451.873 387.729 450.643 384.04C450.047 382.189 449.682 380.278 449.195 378.403L447.831 372.742H447.855Z" fill="url(#paint14_linear_2666_86950)" fill-opacity="0.6"/>
</g>
<g style="mix-blend-mode:multiply">
<path fill-rule="evenodd" clip-rule="evenodd" d="M463.085 370.528C464.092 370.265 465.122 370.868 465.386 371.875L466.92 377.743C467.183 378.751 466.58 379.781 465.572 380.044C464.565 380.308 463.535 379.704 463.272 378.697L461.738 372.829C461.474 371.822 462.077 370.791 463.085 370.528Z" fill="black" fill-opacity="0.6"/>
</g>
<g style="mix-blend-mode:multiply" opacity="0.8">
<path d="M458.386 371.049C458.532 369.601 458.934 368.712 459.408 367.969C459.895 367.263 460.48 366.764 461.149 366.447C461.819 366.131 462.574 366.009 463.426 366.106C464.29 366.216 465.228 366.508 466.433 367.336L458.386 371.037V371.049Z" fill="url(#paint15_linear_2666_86950)" fill-opacity="0.6"/>
</g>
<g style="mix-blend-mode:multiply">
<path fill-rule="evenodd" clip-rule="evenodd" d="M432.099 379.903C433.107 379.639 434.137 380.242 434.4 381.25L435.934 387.118C436.198 388.125 435.594 389.155 434.587 389.419C433.58 389.682 432.549 389.079 432.286 388.072L430.752 382.203C430.489 381.196 431.092 380.166 432.099 379.903Z" fill="black" fill-opacity="0.6"/>
</g>
<g style="mix-blend-mode:multiply" opacity="0.8">
<path d="M423.944 378.402C424.894 377.015 425.917 376.223 426.964 375.614C428.023 375.03 429.106 374.677 430.214 374.531C431.322 374.385 432.467 374.434 433.635 374.726C434.804 375.042 436.009 375.541 437.288 376.637L423.944 378.402Z" fill="url(#paint16_linear_2666_86950)" fill-opacity="0.6"/>
</g>
<g style="mix-blend-mode:multiply" opacity="0.8">
<path d="M458.947 420.052L430.568 415.304C433.271 413.697 435.803 413.064 438.299 412.711C440.783 412.407 443.206 412.468 445.567 412.869C447.929 413.271 450.243 413.989 452.483 415.097C454.723 416.242 456.914 417.666 458.947 420.052Z" fill="url(#paint17_linear_2666_86950)" fill-opacity="0.6"/>
</g>
<path d="M451.679 418.834L449.524 422.122C446.906 426.103 441.269 426.602 438.007 423.144L430.58 415.304L451.679 418.834Z" fill="#0F0017" fill-opacity="0.6"/>
<mask id="mask9_2666_86950" style="mask-type:luminance" maskUnits="userSpaceOnUse" x="430" y="415" width="22" height="11">
<path d="M451.68 418.834L449.525 422.121C446.907 426.102 441.27 426.601 438.008 423.144L430.581 415.303L451.68 418.834Z" fill="white"/>
</mask>
<g mask="url(#mask9_2666_86950)">
<path d="M432.578 417.677C432.578 417.677 439.992 421.768 451.095 420.989C462.186 420.21 453.347 417.897 453.347 417.897L426.673 413.733L432.59 417.677H432.578Z" fill="white"/>
</g>
<path d="M415.63 370.112C417.371 367.982 419.173 366.825 420.987 365.973C422.801 365.157 424.651 364.719 426.502 364.622C428.365 364.524 430.239 364.743 432.139 365.352C434.038 365.997 435.962 366.935 437.934 368.846L415.63 370.1V370.112Z" fill="url(#paint18_linear_2666_86950)"/>
<path d="M452.725 364.707C452.859 362.296 453.48 360.725 454.247 359.423C455.038 358.144 456.012 357.207 457.157 356.562C458.301 355.916 459.604 355.551 461.101 355.515C462.623 355.515 464.279 355.77 466.422 356.866L452.713 364.719L452.725 364.707Z" fill="url(#paint19_linear_2666_86950)"/>
<path d="M398.817 390.395L402.543 388.386C404.588 387.278 405.866 385.172 405.964 382.846C406.378 372.814 404.186 366.471 401.751 362.551C399 358.132 399.353 352.726 402.031 348.672L391.622 343.267H437.277C453.372 343.267 453.518 330.995 453.518 330.995C453.518 330.995 456.415 332.346 464.828 339.225C464.828 339.225 460.969 315.375 423.933 315.375C393.984 315.375 375.697 344.168 382.698 370.428C389.698 396.689 400.509 418.311 400.509 418.311L398.817 390.395Z" fill="#208C6E"/>
<mask id="mask10_2666_86950" style="mask-type:luminance" maskUnits="userSpaceOnUse" x="381" y="315" width="84" height="104">
<path d="M398.818 390.395L402.544 388.386C404.589 387.278 405.867 385.172 405.965 382.846C406.379 372.814 404.187 366.471 401.752 362.551C399.001 358.132 399.354 352.726 402.032 348.672L391.623 343.267H437.278C453.373 343.267 453.519 330.995 453.519 330.995C453.519 330.995 456.416 332.346 464.829 339.225C464.829 339.225 460.97 315.375 423.934 315.375C393.985 315.375 375.698 344.168 382.699 370.428C389.699 396.689 400.51 418.311 400.51 418.311L398.818 390.395Z" fill="white"/>
</mask>
<g mask="url(#mask10_2666_86950)">
<path style="mix-blend-mode:multiply" d="M408.472 425.457L405.696 343.266H379.46L383.246 402.8L408.472 425.457Z" fill="url(#paint20_linear_2666_86950)" fill-opacity="0.6"/>
<path style="mix-blend-mode:multiply" d="M389.285 399.756L393.96 421.269H420.209L411.224 402.277L389.285 399.756Z" fill="url(#paint21_linear_2666_86950)" fill-opacity="0.6"/>
<path style="mix-blend-mode:multiply" d="M464.33 317.542L476.2 351.923L453.519 330.994V318.82L464.33 317.542Z" fill="url(#paint22_linear_2666_86950)" fill-opacity="0.6"/>
</g>
<path d="M383.89 389.859C385.851 396.47 394.373 409.022 402.25 406.684C407.461 405.138 406.024 395.155 402.786 384.247C400.825 377.636 395.006 373.545 389.783 375.091C384.572 376.637 381.93 383.248 383.89 389.859Z" fill="#FF757F"/>
<path d="M449.999 318.918L436.107 307.376C443.777 305.562 450.34 311.065 449.999 318.918Z" fill="#208C6E"/>
<path d="M452.727 319.734V311.004C455.965 313.245 455.941 317.481 452.727 319.734Z" fill="#208C6E"/>
<path d="M909.273 953.522C906.667 952.207 903.538 952.097 900.994 953.522C892.411 958.294 897.195 974.632 865.639 974.632C865.639 984.713 867.672 992.468 870.703 996.157C873.138 999.128 876.791 1000.82 880.626 1000.82H982.6C982.6 1000.82 976.233 974.085 952.651 970.737C925.708 966.926 916.297 957.077 909.285 953.522H909.273Z" fill="#123633"/>
<mask id="mask11_2666_86950" style="mask-type:luminance" maskUnits="userSpaceOnUse" x="865" y="952" width="118" height="49">
<path d="M909.273 953.522C906.667 952.207 903.538 952.097 900.994 953.522C892.411 958.294 897.195 974.632 865.639 974.632C865.639 984.713 867.672 992.468 870.703 996.157C873.138 999.128 876.791 1000.82 880.626 1000.82H982.6C982.6 1000.82 976.233 974.085 952.651 970.737C925.708 966.926 916.297 957.077 909.285 953.522H909.273Z" fill="white"/>
</mask>
<g mask="url(#mask11_2666_86950)">
<path d="M986.155 1005.06L873.576 1006.26L862.059 995.317L867.391 987.976H882.293C891.923 987.976 901.833 994.343 914.665 994.343H997.161L986.155 1005.06Z" fill="#208C6E"/>
<path style="mix-blend-mode:multiply" d="M893.628 963.481C889.038 972.393 893.518 985.456 914.824 985.456C936.13 985.456 957.788 985.919 969.476 1000.81C981.164 1015.71 856.727 1006.42 856.727 1006.42L858.102 968.947L893.628 963.469V963.481Z" fill="url(#paint23_linear_2666_86950)" fill-opacity="0.6"/>
</g>
<g style="mix-blend-mode:multiply" opacity="0.8">
<path d="M1079.99 1000.82C989.993 1008.94 899.986 1012.98 809.991 1016.09C719.996 1018.95 629.989 1020.27 539.994 1020.3C449.999 1020.34 359.992 1019 269.997 1016.15C180.002 1013.07 89.9949 1008.99 0 1000.83H1080L1079.99 1000.82Z" fill="url(#paint24_linear_2666_86950)" fill-opacity="0.4"/>
</g>
<path d="M154.216 635.057L141.822 664.093C141.347 665.213 141.944 666.516 143.112 666.869C145.474 667.599 148.043 666.893 149.699 665.067L175.205 637.102L154.216 635.044V635.057Z" fill="#FF757F"/>
<path d="M523.498 460.631L525.361 454.738C526.846 450.063 531.18 446.874 536.099 446.874H549.393L551.914 463.139L523.498 460.619V460.631Z" fill="#FF757F"/>
<mask id="mask12_2666_86950" style="mask-type:luminance" maskUnits="userSpaceOnUse" x="523" y="446" width="29" height="18">
<path d="M523.499 460.631L525.362 454.739C526.847 450.064 531.181 446.874 536.1 446.874H549.394L551.915 463.139L523.499 460.619V460.631Z" fill="white"/>
</mask>
<g mask="url(#mask12_2666_86950)">
<path style="mix-blend-mode:multiply" d="M548.542 460.997L520.029 460.376L521.575 450.746H545.925L548.542 460.997Z" fill="url(#paint25_linear_2666_86950)" fill-opacity="0.6"/>
</g>
<path d="M547.786 458.329H521.257C516.813 458.329 513.709 462.712 515.17 466.912L516.253 470.017C517.045 472.269 519.163 473.778 521.549 473.778L526.431 493.027C529.67 505.786 541.15 514.722 554.311 514.722H563.759L547.773 458.341L547.786 458.329Z" fill="#FF757F"/>
<mask id="mask13_2666_86950" style="mask-type:luminance" maskUnits="userSpaceOnUse" x="514" y="458" width="50" height="57">
<path d="M547.787 458.329H521.258C516.814 458.329 513.71 462.711 515.171 466.912L516.254 470.016C517.046 472.269 519.164 473.778 521.55 473.778L526.432 493.026C529.671 505.785 541.151 514.722 554.312 514.722H563.76L547.774 458.341L547.787 458.329Z" fill="white"/>
</mask>
<g mask="url(#mask13_2666_86950)">
<path style="mix-blend-mode:multiply" d="M534.613 473.778L516.522 481.509L515.134 473.778H534.613Z" fill="url(#paint26_linear_2666_86950)" fill-opacity="0.6"/>
<path style="mix-blend-mode:multiply" d="M543.635 468.287C546.362 483.725 542.198 510.618 529.598 511.069L567.643 525.045L552.973 466.607L543.635 468.287Z" fill="url(#paint27_linear_2666_86950)" fill-opacity="0.6"/>
</g>
<path d="M536.304 338.86L626.117 318.589C662.434 310.384 700.297 312.1 735.725 323.557L784.338 339.262C789.987 341.088 794.163 345.885 795.186 351.729L818.16 482.046C832.051 560.84 784.192 619.68 758.662 644.736C749.896 653.331 737.016 656.143 725.45 652.053C680.087 635.994 564.659 587.454 550.123 505.032L524.069 357.28C522.584 348.856 527.977 340.759 536.317 338.872L536.304 338.86Z" fill="#208C6E"/>
<mask id="mask14_2666_86950" style="mask-type:luminance" maskUnits="userSpaceOnUse" x="523" y="313" width="298" height="341">
<path d="M536.305 338.86L626.118 318.589C662.435 310.384 700.298 312.1 735.726 323.557L784.339 339.262C789.988 341.088 794.164 345.885 795.187 351.729L818.161 482.046C832.052 560.84 784.193 619.68 758.663 644.736C749.897 653.331 737.017 656.143 725.451 652.053C680.088 635.994 564.66 587.454 550.124 505.032L524.07 357.28C522.585 348.856 527.978 340.759 536.318 338.872L536.305 338.86Z" fill="white"/>
</mask>
<g mask="url(#mask14_2666_86950)">
<path d="M726.681 428.672L719.79 389.591C719.218 386.316 716.539 383.82 713.228 383.479C708.37 382.98 701.053 382.384 694.187 382.384C687.32 382.384 679.126 382.992 673.648 383.491C670.276 383.796 667.889 386.925 668.474 390.261L675.547 430.4C656.129 431.326 639.973 433.334 631.475 434.552C627.932 435.063 625.522 438.399 626.142 441.918L632.729 479.281C633.484 483.567 637.416 486.562 641.763 486.111C651.174 485.15 667.962 483.713 684.946 483.713L693.018 529.478C693.553 532.485 696.317 534.567 699.349 534.226C704.803 533.617 713.435 532.801 720.703 532.801C726.608 532.801 732.878 533.337 737.613 533.873C741.448 534.299 744.626 530.926 743.969 527.128L736.152 482.423C752.466 482.423 765.457 483.847 773.212 484.991C777.12 485.564 780.444 482.143 779.75 478.259L773.163 440.895C772.482 437.048 769.523 434.028 765.688 433.274C756.874 431.52 740.462 428.684 726.668 428.684L726.681 428.672Z" fill="#175047"/>
<path style="mix-blend-mode:multiply" d="M743.652 658.018L681.598 306.061L865.63 326.1L845.566 667.161L743.652 658.018Z" fill="url(#paint28_linear_2666_86950)" fill-opacity="0.6"/>
<g style="mix-blend-mode:multiply">
<path d="M736.164 482.423C740.182 481.157 744.236 480.597 748.302 480.305C752.369 480.037 756.435 480.098 760.477 480.439C764.519 480.792 768.536 481.449 772.493 482.46L773.236 482.655L773.82 482.813C774.125 482.91 774.453 482.947 774.782 482.971C775.439 482.996 776.17 482.874 776.864 482.521C778.252 481.851 779.481 480.354 779.786 478.248C780.833 480.11 780.492 482.874 778.812 484.798C777.984 485.771 776.84 486.526 775.525 486.904C774.879 487.111 774.186 487.22 773.492 487.22H772.578L771.836 487.196C767.842 487.086 763.898 486.855 759.941 486.502C755.997 486.149 752.052 485.686 748.095 485.065C744.138 484.42 740.182 483.677 736.164 482.423Z" fill="url(#paint29_linear_2666_86950)" fill-opacity="0.6"/>
</g>
<g style="mix-blend-mode:multiply">
<path d="M641.762 486.125C645.304 485.345 648.872 484.7 652.451 484.116C656.03 483.568 659.622 483.032 663.226 482.643C666.829 482.216 670.445 481.863 674.061 481.62C677.677 481.352 681.317 481.133 684.945 481.036L687.124 480.987L687.587 483.263C689.145 490.909 690.631 498.555 691.982 506.237L693.967 517.754L694.904 523.525L695.781 529.162C695.951 530.16 696.669 531.073 697.655 531.463C697.899 531.572 698.155 531.621 698.422 531.67C698.556 531.67 698.69 531.706 698.824 531.694H699.031L699.396 531.67L702.343 531.487C706.275 531.268 710.195 531.073 714.152 531.122C722.078 531.073 729.955 532.157 737.588 533.873C733.668 533.886 729.76 533.91 725.888 534.032C723.953 534.093 722.017 534.178 720.105 534.336C718.182 534.458 716.27 534.64 714.347 534.847C710.512 535.298 706.665 535.736 702.842 536.284L699.969 536.71L699.603 536.759L699.08 536.808C698.727 536.844 698.374 536.82 698.021 536.82C697.315 536.759 696.608 536.661 695.939 536.43C693.236 535.578 690.996 533.24 690.338 530.404L689.158 524.523L688.074 518.777L685.992 507.272C684.641 499.59 683.411 491.895 682.267 484.177L684.921 486.405C681.341 486.319 677.762 486.222 674.183 486.185L663.408 486.125H652.597C648.981 486.137 645.378 486.149 641.737 486.1L641.762 486.125Z" fill="url(#paint30_linear_2666_86950)" fill-opacity="0.6"/>
</g>
<g style="mix-blend-mode:multiply">
<path d="M673.647 383.492C671.614 384.356 670.421 386.012 670.202 387.619C670.056 388.41 670.177 389.165 670.421 389.835C670.725 390.748 671.054 391.831 671.334 392.818C672.503 396.872 673.44 400.962 674.171 405.102C674.901 409.229 675.425 413.393 675.717 417.605C675.985 421.818 676.07 426.067 675.546 430.413C673.574 426.505 672.198 422.487 671.005 418.433C669.836 414.379 668.899 410.288 668.181 406.149C667.45 402.022 666.927 397.846 666.647 393.645C666.574 392.574 666.525 391.588 666.488 390.431C666.428 389.019 666.768 387.619 667.462 386.475C668.802 384.149 671.504 382.993 673.659 383.492H673.647Z" fill="url(#paint31_linear_2666_86950)" fill-opacity="0.6"/>
</g>
<g style="mix-blend-mode:multiply">
<path d="M758.651 644.723C757.08 646.464 755.327 648.059 753.391 649.447C751.456 650.823 749.349 651.979 747.134 652.929C744.918 653.878 742.568 654.511 740.17 654.938C737.771 655.376 735.312 655.522 732.853 655.388C730.394 655.266 727.922 654.925 725.536 654.207C723.186 653.537 721.007 652.844 718.755 652.125C714.274 650.713 709.818 649.203 705.375 647.657C696.512 644.504 687.734 641.058 679.053 637.382C670.36 633.717 661.85 629.626 653.413 625.329C644.988 621.019 636.698 616.417 628.638 611.389C620.542 606.422 612.701 600.992 605.129 595.16C597.556 589.328 590.3 583.022 583.458 576.241C576.652 569.423 570.358 561.996 564.745 554.034C559.182 546.035 554.36 537.428 550.672 528.285C549.831 525.959 548.906 523.671 548.151 521.333L546.094 514.211L544.56 506.943C544.085 504.544 543.769 502.304 543.367 499.979C540.36 481.522 537.352 463.065 534.638 444.548C533.274 435.295 531.813 426.054 530.51 416.789L526.627 388.995C525.434 379.705 524.167 370.441 523.035 361.139L522.609 357.657L522.463 355.77C522.487 355.137 522.463 354.492 522.524 353.871C522.743 351.351 523.522 348.904 524.764 346.761C527.26 342.475 531.667 339.529 536.305 338.847C531.825 340.223 528.112 343.51 526.407 347.601C525.531 349.622 525.093 351.813 525.141 353.956C525.141 354.492 525.227 355.028 525.263 355.563L525.567 357.146L526.359 360.567C528.477 369.686 530.462 378.829 532.507 387.972L538.363 415.426C540.311 424.581 542.101 433.761 543.988 442.916C547.762 461.239 551.256 479.611 554.738 497.994C555.188 500.271 555.59 502.645 556.053 504.824L557.514 511.265L559.449 517.583C560.168 519.665 561.032 521.71 561.811 523.768C565.184 531.949 569.591 539.729 574.729 547.058C584.943 561.789 598.067 574.621 612.263 586.102C626.459 597.644 641.981 607.676 657.942 617.001C665.941 621.652 674.147 625.95 682.413 630.162C690.68 634.375 699.093 638.331 707.59 642.118C711.827 644.029 716.088 645.904 720.398 647.706C722.529 648.595 724.732 649.532 726.826 650.336C728.872 651.139 731.014 651.699 733.206 652.04C741.972 653.44 751.541 650.823 758.675 644.723H758.651Z" fill="url(#paint32_linear_2666_86950)" fill-opacity="0.6"/>
</g>
</g>
<path style="mix-blend-mode:multiply" d="M607.368 521.821L608.196 378.963L611.008 377.198L614.649 522.344L607.368 521.821Z" fill="url(#paint33_linear_2666_86950)" fill-opacity="0.6"/>
<path style="mix-blend-mode:multiply" d="M766.503 601.747L736.358 398.479L738.477 397.127L773.71 600.541L766.503 601.747Z" fill="url(#paint34_linear_2666_86950)" fill-opacity="0.6"/>
<path style="mix-blend-mode:multiply" d="M675.875 609.733L672.223 518.984L674.767 518.85L683.18 609.733H675.875Z" fill="url(#paint35_linear_2666_86950)" fill-opacity="0.6"/>
<path d="M709.087 292.669V281.067C709.087 272.764 712.545 264.826 718.62 259.165L738.136 241L739.998 261.587L763.629 263L743.176 283.161L725.304 284.074L739.511 288.652L709.087 292.657V292.669Z" fill="#208C6E"/>
<path d="M887.665 330.751L888.383 324.043C889.357 315.01 895.14 307.194 903.504 303.639L938.141 288.907L927.816 315.898L948.988 325.504L918.661 337.058C912.27 339.493 905.147 339.188 898.975 336.218L887.652 330.751H887.665Z" fill="#208C6E"/>
<path d="M608.196 378.963L728.932 271.692L723.868 278.936C717.841 287.555 710.768 295.396 702.805 302.262L621.844 370.526C617.729 373.995 613.139 376.832 608.196 378.963Z" fill="#123633"/>
<path d="M736.358 398.479C738.976 395.947 741.995 393.877 745.295 392.331C745.295 392.331 808.822 361.663 839.246 347.163C869.671 332.663 894.568 324.701 915.752 318.699L920.731 317.286L736.358 398.479Z" fill="#123633"/>
<path d="M841.608 507.868L850.618 492.638C853.174 488.316 858.239 485.418 864.01 484.967L886.947 483.19L878.218 496.546L897.295 482.386L917.627 480.816L899.414 504.544L920.731 523.707L878.461 524.986C867.565 525.314 857.022 521.686 849.607 515.027L841.608 507.856V507.868Z" fill="#208C6E"/>
<path d="M672.223 518.983C675.924 516.5 680.197 515.039 684.641 514.722L774.246 508.367C808.481 505.932 842.826 505.506 877.11 507.064L891.719 507.734L672.235 518.983H672.223Z" fill="#123633"/>
<defs>
<linearGradient id="paint0_linear_2666_86950" x1="93.0771" y1="660.968" x2="190.754" y2="660.968" gradientUnits="userSpaceOnUse">
<stop/>
<stop offset="1" stop-opacity="0"/>
</linearGradient>
<linearGradient id="paint1_linear_2666_86950" x1="186.59" y1="629.018" x2="220.094" y2="629.018" gradientUnits="userSpaceOnUse">
<stop/>
<stop offset="1" stop-opacity="0"/>
</linearGradient>
<linearGradient id="paint2_linear_2666_86950" x1="371.238" y1="920.939" x2="447.5" y2="920.939" gradientUnits="userSpaceOnUse">
<stop/>
<stop offset="1" stop-opacity="0"/>
</linearGradient>
<linearGradient id="paint3_linear_2666_86950" x1="348.087" y1="983.69" x2="477.345" y2="983.69" gradientUnits="userSpaceOnUse">
<stop stop-opacity="0"/>
<stop offset="1"/>
</linearGradient>
<linearGradient id="paint4_linear_2666_86950" x1="829.348" y1="951.573" x2="878.911" y2="951.573" gradientUnits="userSpaceOnUse">
<stop stop-opacity="0"/>
<stop offset="1"/>
</linearGradient>
<linearGradient id="paint5_linear_2666_86950" x1="360.76" y1="753.941" x2="496.702" y2="753.941" gradientUnits="userSpaceOnUse">
<stop stop-opacity="0"/>
<stop offset="1"/>
</linearGradient>
<linearGradient id="paint6_linear_2666_86950" x1="687.552" y1="928.17" x2="901.935" y2="928.17" gradientUnits="userSpaceOnUse">
<stop stop-opacity="0"/>
<stop offset="1"/>
</linearGradient>
<linearGradient id="paint7_linear_2666_86950" x1="392.072" y1="902.238" x2="392.072" y2="789.355" gradientUnits="userSpaceOnUse">
<stop stop-opacity="0"/>
<stop offset="0.86" stop-opacity="0.47"/>
<stop offset="1"/>
</linearGradient>
<linearGradient id="paint8_linear_2666_86950" x1="411.223" y1="658.833" x2="627.481" y2="658.833" gradientUnits="userSpaceOnUse">
<stop stop-opacity="0"/>
<stop offset="1"/>
</linearGradient>
<linearGradient id="paint9_linear_2666_86950" x1="168.193" y1="631.014" x2="261.573" y2="631.014" gradientUnits="userSpaceOnUse">
<stop stop-opacity="0"/>
<stop offset="1"/>
</linearGradient>
<linearGradient id="paint10_linear_2666_86950" x1="260.185" y1="567.17" x2="405.696" y2="567.17" gradientUnits="userSpaceOnUse">
<stop stop-opacity="0"/>
<stop offset="1"/>
</linearGradient>
<linearGradient id="paint11_linear_2666_86950" x1="389.674" y1="600.809" x2="443.243" y2="600.809" gradientUnits="userSpaceOnUse">
<stop stop-opacity="0"/>
<stop offset="1"/>
</linearGradient>
<linearGradient id="paint12_linear_2666_86950" x1="533.262" y1="554.399" x2="602.694" y2="554.399" gradientUnits="userSpaceOnUse">
<stop stop-opacity="0"/>
<stop offset="1"/>
</linearGradient>
<linearGradient id="paint13_linear_2666_86950" x1="421.297" y1="451.095" x2="461.917" y2="427.756" gradientUnits="userSpaceOnUse">
<stop stop-opacity="0"/>
<stop offset="1"/>
</linearGradient>
<linearGradient id="paint14_linear_2666_86950" x1="462.769" y1="407.659" x2="443.29" y2="374.422" gradientUnits="userSpaceOnUse">
<stop/>
<stop offset="0.05" stop-opacity="0.86"/>
<stop offset="0.8" stop-opacity="0"/>
</linearGradient>
<linearGradient id="paint15_linear_2666_86950" x1="456.633" y1="369.004" x2="467.992" y2="367.726" gradientUnits="userSpaceOnUse">
<stop/>
<stop offset="1" stop-opacity="0.2"/>
</linearGradient>
<linearGradient id="paint16_linear_2666_86950" x1="422.264" y1="377.002" x2="438.627" y2="375.164" gradientUnits="userSpaceOnUse">
<stop/>
<stop offset="1" stop-opacity="0.2"/>
</linearGradient>
<linearGradient id="paint17_linear_2666_86950" x1="428.133" y1="416.29" x2="461.382" y2="416.29" gradientUnits="userSpaceOnUse">
<stop/>
<stop offset="1" stop-opacity="0.2"/>
</linearGradient>
<linearGradient id="paint18_linear_2666_86950" x1="413.621" y1="366.363" x2="440.296" y2="369.54" gradientUnits="userSpaceOnUse">
<stop stop-color="#208C6E"/>
<stop offset="1" stop-color="#208C6E" stop-opacity="0.2"/>
</linearGradient>
<linearGradient id="paint19_linear_2666_86950" x1="450.911" y1="359.35" x2="468.345" y2="361.419" gradientUnits="userSpaceOnUse">
<stop stop-color="#208C6E"/>
<stop offset="1" stop-color="#208C6E" stop-opacity="0.2"/>
</linearGradient>
<linearGradient id="paint20_linear_2666_86950" x1="393.96" y1="425.457" x2="393.96" y2="343.266" gradientUnits="userSpaceOnUse">
<stop offset="0.17" stop-opacity="0"/>
<stop offset="0.88" stop-opacity="0.47"/>
<stop offset="1"/>
</linearGradient>
<linearGradient id="paint21_linear_2666_86950" x1="404.735" y1="399.744" x2="404.735" y2="421.257" gradientUnits="userSpaceOnUse">
<stop stop-opacity="0"/>
<stop offset="1"/>
</linearGradient>
<linearGradient id="paint22_linear_2666_86950" x1="464.853" y1="351.923" x2="464.853" y2="317.542" gradientUnits="userSpaceOnUse">
<stop/>
<stop offset="1" stop-opacity="0"/>
</linearGradient>
<linearGradient id="paint23_linear_2666_86950" x1="856.727" y1="986.381" x2="970.255" y2="986.381" gradientUnits="userSpaceOnUse">
<stop/>
<stop offset="1" stop-opacity="0"/>
</linearGradient>
<linearGradient id="paint24_linear_2666_86950" x1="-9.75189" y1="1010.55" x2="1089.73" y2="1010.55" gradientUnits="userSpaceOnUse">
<stop stop-opacity="0"/>
<stop offset="1"/>
</linearGradient>
<linearGradient id="paint25_linear_2666_86950" x1="520.029" y1="455.871" x2="548.542" y2="455.871" gradientUnits="userSpaceOnUse">
<stop stop-opacity="0"/>
<stop offset="1"/>
</linearGradient>
<linearGradient id="paint26_linear_2666_86950" x1="515.134" y1="477.638" x2="534.613" y2="477.638" gradientUnits="userSpaceOnUse">
<stop/>
<stop offset="1" stop-opacity="0"/>
</linearGradient>
<linearGradient id="paint27_linear_2666_86950" x1="529.585" y1="495.838" x2="567.631" y2="495.838" gradientUnits="userSpaceOnUse">
<stop stop-opacity="0"/>
<stop offset="1"/>
</linearGradient>
<linearGradient id="paint28_linear_2666_86950" x1="681.598" y1="486.611" x2="865.63" y2="486.611" gradientUnits="userSpaceOnUse">
<stop stop-opacity="0"/>
<stop offset="1"/>
</linearGradient>
<linearGradient id="paint29_linear_2666_86950" x1="736.164" y1="482.74" x2="782.903" y2="482.74" gradientUnits="userSpaceOnUse">
<stop offset="0.1" stop-opacity="0"/>
<stop offset="1"/>
</linearGradient>
<linearGradient id="paint30_linear_2666_86950" x1="641.457" y1="508.915" x2="737.953" y2="508.915" gradientUnits="userSpaceOnUse">
<stop offset="0.1" stop-opacity="0"/>
<stop offset="1"/>
</linearGradient>
<linearGradient id="paint31_linear_2666_86950" x1="665.344" y1="406.891" x2="678.553" y2="406.891" gradientUnits="userSpaceOnUse">
<stop offset="0.1" stop-opacity="0"/>
<stop offset="1"/>
</linearGradient>
<linearGradient id="paint32_linear_2666_86950" x1="517.727" y1="497.142" x2="762.912" y2="497.142" gradientUnits="userSpaceOnUse">
<stop stop-opacity="0"/>
<stop offset="0.65"/>
<stop offset="1" stop-opacity="0"/>
</linearGradient>
<linearGradient id="paint33_linear_2666_86950" x1="611.008" y1="522.344" x2="611.008" y2="377.198" gradientUnits="userSpaceOnUse">
<stop offset="0.1" stop-opacity="0"/>
<stop offset="1"/>
</linearGradient>
<linearGradient id="paint34_linear_2666_86950" x1="755.034" y1="601.747" x2="755.034" y2="397.127" gradientUnits="userSpaceOnUse">
<stop offset="0.1" stop-opacity="0"/>
<stop offset="1"/>
</linearGradient>
<linearGradient id="paint35_linear_2666_86950" x1="677.701" y1="609.733" x2="677.701" y2="518.85" gradientUnits="userSpaceOnUse">
<stop offset="0.1" stop-opacity="0"/>
<stop offset="1"/>
</linearGradient>
</defs>
</svg>
