<svg width="242" height="219" viewBox="0 0 242 219" fill="none" xmlns="http://www.w3.org/2000/svg">
<path d="M242 109.029C242 122.697 239.483 135.773 234.876 147.818C234.386 149.126 233.87 150.435 233.316 151.719C232.108 154.551 230.786 157.307 229.364 160C228.584 161.485 227.753 162.945 226.91 164.393H226.897C226.834 164.519 226.759 164.657 226.671 164.783C226.671 164.808 226.658 164.821 226.633 164.833C226.192 165.601 225.727 166.356 225.248 167.111C224.657 168.043 224.065 168.961 223.449 169.867C223.398 169.956 223.335 170.044 223.273 170.132C222.757 170.887 222.241 171.642 221.712 172.372C221.158 173.165 220.579 173.945 219.975 174.725C219.761 175.028 219.535 175.317 219.308 175.606C218.918 176.122 218.515 176.638 218.1 177.142C217.999 177.28 217.886 177.419 217.773 177.557C217.143 178.338 216.514 179.093 215.86 179.848C214.538 181.421 213.141 182.956 211.719 184.442C210.964 185.234 210.184 186.015 209.391 186.795C208.711 187.462 208.031 188.117 207.327 188.771C207.213 188.884 207.1 188.985 206.974 189.098C205.477 190.495 203.929 191.842 202.355 193.138C201.537 193.805 200.719 194.472 199.889 195.114C199.058 195.769 198.215 196.398 197.359 197.027C195.66 198.273 193.91 199.481 192.136 200.627C191.607 200.966 191.066 201.306 190.525 201.646C189.984 201.986 189.443 202.313 188.901 202.64C187.265 203.622 185.604 204.553 183.917 205.447C183.351 205.749 182.785 206.038 182.218 206.328C179.94 207.486 177.625 208.568 175.259 209.562C174.768 209.764 174.277 209.965 173.786 210.166C173.446 210.305 173.106 210.443 172.767 210.569C172.15 210.821 171.521 211.06 170.879 211.287C170.061 211.601 169.243 211.891 168.425 212.168C167.896 212.356 167.342 212.545 166.801 212.709C166.789 212.721 166.776 212.721 166.763 212.721C165.87 213.023 164.964 213.3 164.057 213.565C163.139 213.841 162.22 214.093 161.301 214.345C160.697 214.508 160.093 214.672 159.489 214.823C158.923 214.962 158.369 215.1 157.802 215.226C157.714 215.251 157.614 215.276 157.526 215.289C157.047 215.402 156.594 215.503 156.116 215.603C155.31 215.78 154.505 215.943 153.687 216.094C153.36 216.17 153.02 216.22 152.68 216.283C150.641 216.661 148.577 216.975 146.513 217.227C146.035 217.302 145.557 217.353 145.078 217.403C144.411 217.479 143.744 217.542 143.077 217.605C142.41 217.667 141.743 217.73 141.076 217.768C140.56 217.806 140.044 217.844 139.528 217.869C138.71 217.919 137.879 217.969 137.049 217.995C136.495 218.02 135.954 218.032 135.4 218.045C134.595 218.045 133.777 218.07 132.971 218.07C107.787 218.07 84.6047 209.537 66.1543 195.202C62.5548 192.408 59.1441 189.388 55.9222 186.166C51.6431 181.887 47.7038 177.255 44.1925 172.309C42.4305 169.855 40.7692 167.313 39.2212 164.707C38.0129 162.681 36.8551 160.604 35.7853 158.49C33.759 154.538 31.9845 150.448 30.4616 146.219C30.3987 146.068 30.3357 145.905 30.2854 145.754C26.1699 134.288 23.9297 121.916 23.9297 109.029C23.9297 48.8068 72.7491 0 132.971 0C172.225 0 206.622 20.741 225.815 51.8526C229.754 58.2209 233.039 65.0171 235.606 72.1657C235.934 73.0844 236.261 74.0032 236.55 74.9345C238.551 81.0007 240.037 87.2935 240.93 93.7751C241.635 98.759 242 103.856 242 109.029Z" fill="white"/>
<path opacity="0.6" d="M242 109.029C242 122.697 239.483 135.773 234.876 147.818C234.386 149.126 233.87 150.435 233.316 151.719C232.108 154.551 230.786 157.307 229.364 160C228.584 161.485 227.753 162.945 226.91 164.393H226.897C226.834 164.519 226.759 164.657 226.671 164.783C226.671 164.808 226.658 164.821 226.633 164.833C226.192 165.601 225.727 166.356 225.248 167.111C224.657 168.043 224.065 168.961 223.449 169.867C223.398 169.956 223.335 170.044 223.273 170.132C222.757 170.887 222.241 171.642 221.712 172.372C221.158 173.165 220.579 173.945 219.975 174.725C219.761 175.028 219.535 175.317 219.308 175.606C218.918 176.122 218.515 176.638 218.1 177.142C217.999 177.28 217.886 177.419 217.773 177.557C217.143 178.338 216.514 179.093 215.86 179.848C214.538 181.421 213.141 182.956 211.719 184.442C210.964 185.234 210.184 186.015 209.391 186.795C208.711 187.462 208.031 188.117 207.327 188.771C207.213 188.884 207.1 188.985 206.974 189.098C205.477 190.495 203.929 191.842 202.355 193.138C201.537 193.805 200.719 194.472 199.889 195.114C199.058 195.769 198.215 196.398 197.359 197.027C195.66 198.273 193.91 199.481 192.136 200.627C191.607 200.966 191.066 201.306 190.525 201.646C189.984 201.986 189.443 202.313 188.901 202.64C187.265 203.622 185.604 204.553 183.917 205.447C183.351 205.749 182.785 206.038 182.218 206.328C179.94 207.486 177.625 208.568 175.259 209.562C174.768 209.764 174.277 209.965 173.786 210.166C173.446 210.305 173.106 210.443 172.767 210.569C172.15 210.821 171.521 211.06 170.879 211.287C170.061 211.601 169.243 211.891 168.425 212.168C167.896 212.356 167.342 212.545 166.801 212.709C166.789 212.721 166.776 212.721 166.763 212.721C165.87 213.023 164.964 213.3 164.057 213.565C163.139 213.841 162.22 214.093 161.301 214.345C160.697 214.508 160.093 214.672 159.489 214.823C158.923 214.962 158.369 215.1 157.802 215.226C157.714 215.251 157.614 215.276 157.526 215.289C157.047 215.402 156.594 215.503 156.116 215.603C155.31 215.78 154.505 215.943 153.687 216.094C153.36 216.17 153.02 216.22 152.68 216.283C150.641 216.661 148.577 216.975 146.513 217.227C146.035 217.302 145.557 217.353 145.078 217.403C144.411 217.479 143.744 217.542 143.077 217.605C142.41 217.667 141.743 217.73 141.076 217.768C140.56 217.806 140.044 217.844 139.528 217.869C138.71 217.919 137.879 217.969 137.049 217.995C136.495 218.02 135.954 218.032 135.4 218.045C134.595 218.045 133.777 218.07 132.971 218.07C107.787 218.07 84.6047 209.537 66.1543 195.202C62.5548 192.408 59.1441 189.388 55.9222 186.166C51.6431 181.887 47.7038 177.255 44.1925 172.309C42.4305 169.855 40.7692 167.313 39.2212 164.707C38.0129 162.681 36.8551 160.604 35.7853 158.49C33.759 154.538 31.9845 150.448 30.4616 146.219C30.3987 146.068 30.3357 145.905 30.2854 145.754C26.1699 134.288 23.9297 121.916 23.9297 109.029C23.9297 48.8068 72.7491 0 132.971 0C172.225 0 206.622 20.741 225.815 51.8526C229.754 58.2209 233.039 65.0171 235.606 72.1657C235.934 73.0844 236.261 74.0032 236.55 74.9345C238.551 81.0007 240.037 87.2935 240.93 93.7751C241.635 98.759 242 103.856 242 109.029Z" fill="url(#paint0_linear_370_11201)"/>
<path d="M234.877 147.817C234.386 149.126 233.87 150.435 233.316 151.719C232.108 154.551 230.786 157.307 229.364 160C228.584 161.485 227.753 162.945 226.91 164.393H226.897C226.834 164.518 226.759 164.657 226.671 164.783C226.671 164.808 226.658 164.82 226.633 164.833C226.193 165.601 225.727 166.356 225.249 167.111C224.657 168.042 224.066 168.961 223.449 169.867C223.398 169.955 223.336 170.043 223.273 170.132C222.757 170.887 222.241 171.642 221.712 172.372C221.158 173.165 220.579 173.945 219.975 174.725C219.761 175.027 219.535 175.317 219.308 175.606C218.918 176.122 218.515 176.638 218.1 177.142C217.999 177.28 217.886 177.419 217.773 177.557C217.143 178.337 216.514 179.093 215.86 179.848C214.538 181.421 213.141 182.956 211.719 184.441C210.964 185.234 210.184 186.015 209.391 186.795C208.711 187.462 208.032 188.116 207.327 188.771C207.213 188.884 207.1 188.985 206.974 189.098C205.477 190.495 203.929 191.842 202.355 193.138C201.537 193.805 200.719 194.472 199.889 195.114C199.058 195.768 198.215 196.398 197.359 197.027C195.66 198.273 193.911 199.481 192.136 200.626C191.607 200.966 191.066 201.306 190.525 201.646C189.984 201.986 189.443 202.313 188.901 202.64C187.265 203.622 185.604 204.553 183.918 205.447C183.351 205.749 182.785 206.038 182.219 206.328C179.941 207.486 177.625 208.568 175.259 209.562C174.768 209.764 174.277 209.965 173.786 210.166C173.446 210.305 173.107 210.443 172.767 210.569C172.15 210.821 171.521 211.06 170.879 211.286C170.061 211.601 169.243 211.89 168.425 212.167C167.896 212.356 167.342 212.545 166.801 212.709C166.789 212.721 166.776 212.721 166.763 212.721C165.87 213.023 164.964 213.3 164.058 213.564C163.139 213.841 162.22 214.093 161.301 214.345C160.697 214.508 160.093 214.672 159.489 214.823C158.923 214.961 158.369 215.1 157.803 215.226C157.714 215.251 157.614 215.276 157.526 215.289C157.047 215.402 156.594 215.503 156.116 215.603C155.311 215.779 154.505 215.943 153.687 216.094C153.36 216.17 153.02 216.22 152.68 216.283C150.641 216.66 148.577 216.975 146.513 217.227C146.035 217.302 145.557 217.353 145.078 217.403C144.411 217.478 143.744 217.541 143.077 217.604C142.41 217.667 141.743 217.73 141.076 217.768C140.56 217.806 140.044 217.843 139.528 217.869C138.71 217.919 137.88 217.969 137.049 217.994C136.495 218.02 135.954 218.032 135.4 218.045C134.595 218.045 133.777 218.07 132.971 218.07C107.787 218.07 84.6048 209.537 66.1544 195.202C62.5549 192.408 59.1442 189.388 55.9223 186.166C51.6432 181.887 47.7039 177.255 44.1926 172.309C42.4306 169.855 40.7693 167.312 39.2213 164.707C38.013 162.681 36.8552 160.604 35.7854 158.49C62.5172 143.299 102.451 133.646 147.067 133.646C180.041 133.646 210.461 138.919 234.877 147.817Z" fill="#16CC86"/>
<path d="M35.4958 158.943C62.2276 143.752 102.162 134.099 146.777 134.099C179.752 134.099 210.171 139.372 234.587 148.27" stroke="black" stroke-width="0.893575"/>
<path d="M78.0729 66.4142C78.7777 66.6029 78.7777 67.6979 78.0729 67.8867C73.1771 69.2207 71.4781 70.8946 70.144 75.803C69.9552 76.5078 68.8603 76.5078 68.6589 75.803C67.3249 70.9198 65.6384 69.2207 60.73 67.8867C60.0252 67.6979 60.0252 66.6029 60.73 66.4142C65.6258 65.0801 67.3249 63.4062 68.6589 58.4978C68.8477 57.793 69.9426 57.793 70.1314 58.4978C71.4655 63.381 73.152 65.0801 78.0603 66.4142H78.0729Z" fill="white"/>
<path d="M112.029 23.7992C112.444 23.9124 112.444 24.5543 112.029 24.6676C109.172 25.4479 108.178 26.4295 107.397 29.2865C107.284 29.7018 106.642 29.7018 106.529 29.2865C105.749 26.4295 104.767 25.4479 101.897 24.6676C101.482 24.5543 101.482 23.9124 101.897 23.8117C104.754 23.0314 105.749 22.0498 106.529 19.1928C106.642 18.7775 107.284 18.7775 107.397 19.1928C108.178 22.0498 109.159 23.0314 112.029 23.8117V23.7992Z" fill="white"/>
<path d="M179.538 24.9191C179.79 24.9821 179.79 25.3722 179.538 25.4352C177.826 25.9008 177.235 26.4923 176.769 28.1914C176.706 28.4431 176.316 28.4431 176.253 28.1914C175.787 26.4923 175.196 25.9008 173.484 25.4352C173.232 25.3722 173.232 24.9821 173.484 24.9191C175.196 24.4535 175.787 23.862 176.253 22.1629C176.316 21.9112 176.706 21.9112 176.769 22.1629C177.235 23.862 177.826 24.4535 179.538 24.9191Z" fill="white"/>
<path d="M128.73 54.7976C129.158 54.9109 129.158 55.5653 128.73 55.6786C125.797 56.4715 124.778 57.4783 123.985 60.4108C123.872 60.8387 123.217 60.8387 123.104 60.4108C122.311 57.4783 121.292 56.4715 118.359 55.666C117.931 55.5528 117.931 54.8983 118.359 54.785C121.292 53.9921 122.311 52.9853 123.104 50.0529C123.217 49.625 123.872 49.625 123.985 50.0529C124.778 52.9853 125.797 53.9921 128.73 54.7976Z" fill="white"/>
<path d="M135.312 107.946L121.002 117.436L109.084 112.829C106.781 116.429 104.629 119.777 103.395 121.614C99.8083 127.001 94.3209 124.912 94.3209 124.912L51.6307 107.745L51.5552 107.544L111.802 86.9409V87.1675C111.802 93.4728 116.912 98.5574 123.217 98.5574C126.062 98.5574 128.667 97.5128 130.668 95.7886L131.599 98.2302L133.55 103.277L135.337 107.934L135.312 107.946Z" fill="#F7F5FD" stroke="black" stroke-width="1.03202" stroke-linejoin="round"/>
<path d="M121.002 117.436L81.748 143.462L79.4448 148.081H79.4197L66.8593 152.222L65.7014 148.837L60.0001 132.161L53.0529 111.835L51.6433 107.745L94.3336 124.911C94.3336 124.911 99.8209 127.001 103.408 121.614C104.641 119.789 106.793 116.429 109.096 112.829L121.015 117.436H121.002Z" fill="#F7F5FD" stroke="black" stroke-width="1.03202" stroke-linejoin="round"/>
<path d="M109.084 112.842C113.526 105.87 118.536 97.9155 118.536 97.9155" stroke="black" stroke-width="1.03202" stroke-miterlimit="10"/>
<path d="M51.6307 107.745L51.3035 107.606" stroke="black" stroke-width="1.03202" stroke-linejoin="round"/>
<path d="M134.62 87.1677C134.62 90.6287 133.084 93.7122 130.655 95.7888C128.654 97.513 126.049 98.5576 123.205 98.5576C116.899 98.5576 111.79 93.4604 111.79 87.1677V86.9411C111.915 80.7364 116.975 75.7651 123.205 75.7651C129.435 75.7651 134.62 80.8749 134.62 87.1802V87.1677Z" fill="#00FF86" stroke="black" stroke-width="1.03202" stroke-miterlimit="10"/>
<path d="M123.635 80.9708V91.9546H122.305V82.3652H122.24L119.559 84.1458V82.7943L122.305 80.9708H123.635Z" fill="black"/>
<path d="M84.479 121.501L65.5 149.114" stroke="black" stroke-width="1.03202" stroke-miterlimit="10"/>
<path d="M121.039 117.448L121.002 117.436" stroke="black" stroke-width="1.03202" stroke-miterlimit="10"/>
<path d="M109.084 112.842L108.807 112.741" stroke="black" stroke-width="1.03202" stroke-miterlimit="10"/>
<path d="M60 132.161L53.8835 135.483L3 120.871L53.0402 111.835L60 132.161Z" fill="#C2B3FF" stroke="black" stroke-width="1.03202" stroke-miterlimit="10"/>
<path d="M157.513 93.75L136.206 158.641L81.748 143.463L121.002 117.436L135.312 107.947L157.488 93.7626L157.513 93.75Z" fill="#C2B3FF" stroke="black" stroke-width="1.03202" stroke-linejoin="round"/>
<path d="M79.4197 148.094L68.4954 169.716L53.8835 135.483L60.0001 132.161L65.7014 148.837L66.8593 152.222L79.4197 148.094Z" fill="#8C61F2" stroke="black" stroke-width="1.03202" stroke-miterlimit="10"/>
<g style="mix-blend-mode:multiply">
<path d="M81.748 143.463L79.4197 148.094" stroke="black" stroke-width="1.03202" stroke-miterlimit="10"/>
</g>
<path d="M157.513 93.75L157.488 93.7626L133.537 103.29L131.587 98.2305L157.513 93.75Z" fill="#C2B3FF" stroke="black" stroke-width="1.03202" stroke-linejoin="round"/>
<path d="M157.488 93.7622L135.312 107.946L133.538 103.289L157.488 93.7622Z" fill="#8C61F2" stroke="black" stroke-width="1.03202" stroke-linejoin="round"/>
<path d="M131.587 98.23L131.486 98.2552" stroke="black" stroke-width="1.03202" stroke-miterlimit="10"/>
<path d="M60.0252 132.148L60 132.161" stroke="black" stroke-width="1.03202" stroke-miterlimit="10"/>
<path d="M133.538 103.29L133.122 103.441" stroke="black" stroke-width="1.03202" stroke-miterlimit="10"/>
<path d="M191.507 147.49V79.6792H196.906V147.49" fill="#A19CAC"/>
<path d="M191.507 147.49V79.6792H196.906V147.49" stroke="black" stroke-width="0.893575" stroke-linejoin="round"/>
<path d="M193.772 65.7344V76.4825H182.281C181.816 76.4825 181.438 76.1049 181.438 75.6392V62.8523C181.438 58.9634 182.911 55.4142 185.315 52.7461C186.926 53.4509 188.385 54.4703 189.619 55.7037C191.62 57.7048 193.03 60.2974 193.546 63.2047C193.697 64.0228 193.772 64.866 193.772 65.7218V65.7344Z" fill="#A19CAC" stroke="black" stroke-width="0.893575" stroke-linejoin="round"/>
<path d="M193.772 76.4824V82.7626C193.772 83.4548 193.445 84.0715 192.929 84.4491C192.576 84.726 192.123 84.8896 191.632 84.8896H167.544C166.373 84.8896 165.417 83.9457 165.417 82.7626V65.7343C165.417 58.8878 170.262 53.1865 176.693 51.865H176.756C177.675 51.6637 178.619 51.563 179.588 51.563C181.627 51.563 183.565 51.9909 185.315 52.7712C182.911 55.4393 181.438 58.9885 181.438 62.8774V75.6644C181.438 76.13 181.816 76.5076 182.281 76.5076H193.772V76.4824Z" fill="#C5C4D2" stroke="black" stroke-width="0.893575" stroke-linejoin="round"/>
<path d="M211.556 62.8651V75.652C211.556 75.9415 211.405 76.2058 211.178 76.3443L210.901 76.4701L192.941 84.4494C193.457 84.0718 193.785 83.4551 193.785 82.7629V65.7346C193.785 64.8662 193.709 64.0356 193.558 63.2175C193.042 60.3102 191.633 57.7176 189.631 55.7165C188.398 54.4831 186.938 53.4763 185.327 52.7589C183.578 51.9786 181.652 51.5507 179.601 51.5507C178.632 51.5507 177.688 51.6514 176.769 51.8402L193.042 48.1903C194.15 47.926 195.308 47.7876 196.503 47.7876C200.669 47.7876 204.432 49.4741 207.151 52.1925C209.869 54.911 211.556 58.6741 211.556 62.8399V62.8651Z" fill="#208C6E" stroke="black" stroke-width="0.893575" stroke-linejoin="round"/>
<path d="M176.706 51.8525H176.769" stroke="black" stroke-width="0.893575" stroke-linejoin="round"/>
<path d="M196.302 63.4687L212.701 58.2457C213.041 58.1325 213.418 58.3212 213.519 58.6736L215.193 63.947C215.344 64.4378 214.916 64.9035 214.412 64.7902C213.343 64.5259 211.732 63.8085 210.637 61.7949C210.486 61.5054 210.159 61.3669 209.856 61.455L196.956 65.5705C196.616 65.6838 196.239 65.495 196.138 65.1426L195.874 64.2994C195.761 63.9596 195.949 63.582 196.302 63.4813V63.4687Z" fill="#00FF77" stroke="black" stroke-width="0.893575" stroke-linejoin="round"/>
<path d="M181.715 76.0293L166.323 84.7008" stroke="black" stroke-width="0.893575" stroke-linejoin="round"/>
<path d="M187.014 146.156C187.668 146.156 193.936 150.485 202.154 145.501" stroke="black" stroke-width="0.893575" stroke-linejoin="round"/>
<path d="M150.188 36.9891V29.0728" stroke="black" stroke-width="0.893575"/>
<path d="M150.188 48.9451V41.0288" stroke="black" stroke-width="0.893575"/>
<path d="M153.184 39.4053H161.037" stroke="black" stroke-width="0.893575"/>
<path d="M140.334 39.0029H148.187" stroke="black" stroke-width="0.893575"/>
<path d="M146.828 35.6294L148.766 37.5802" stroke="black" stroke-width="0.893575"/>
<path d="M153.7 35.6294L151.761 37.5802" stroke="black" stroke-width="0.893575"/>
<path d="M153.7 42.2877L151.761 40.3369" stroke="black" stroke-width="0.893575"/>
<path d="M146.828 42.2877L148.766 40.3369" stroke="black" stroke-width="0.893575"/>
<path d="M218.918 90.6786V80.9248" stroke="black" stroke-width="0.893575"/>
<path d="M218.918 105.416V95.6626" stroke="black" stroke-width="0.893575"/>
<path d="M222.606 93.6616H232.284" stroke="black" stroke-width="0.893575"/>
<path d="M206.76 93.1704H216.439" stroke="black" stroke-width="0.893575"/>
<path d="M214.778 88.9922L217.169 91.396" stroke="black" stroke-width="0.893575"/>
<path d="M223.235 88.9922L220.844 91.396" stroke="black" stroke-width="0.893575"/>
<path d="M223.235 97.2105L220.844 94.8066" stroke="black" stroke-width="0.893575"/>
<path d="M214.778 97.2105L217.169 94.8066" stroke="black" stroke-width="0.893575"/>
<path d="M189.908 85.2167L192.186 84.9272C192.815 84.8265 192.501 84.5874 191.733 84.5874H166.94L160.106 86.1103C160.106 86.1103 152.831 87.759 161.112 88.1114C171.798 88.5644 182.369 86.2487 189.896 85.2167H189.908Z" fill="#C5C4D2" stroke="black" stroke-width="0.893575" stroke-linejoin="round"/>
<g style="mix-blend-mode:multiply">
<path d="M154.102 95.5747L64.342 143.652L66.8843 151.568L79.193 147.654L82.0499 142.909L154.102 95.5747Z" fill="#DEDDE8"/>
</g>
<defs>
<linearGradient id="paint0_linear_370_11201" x1="134.104" y1="239.717" x2="132.04" y2="3.73791" gradientUnits="userSpaceOnUse">
<stop offset="0.28" stop-color="white"/>
<stop offset="1" stop-color="#D1CCFF"/>
</linearGradient>
</defs>
</svg>
