<svg width="265" height="168" viewBox="0 0 265 168" fill="none" xmlns="http://www.w3.org/2000/svg">
<g clip-path="url(#clip0_1952_241643)">
<path d="M247.832 0H164.97C156.614 0 149.84 6.77117 149.84 15.1238V139.569C149.84 147.921 156.614 154.692 164.97 154.692H247.832C256.188 154.692 262.962 147.921 262.962 139.569V15.1238C262.962 6.77117 256.188 0 247.832 0Z" fill="#DEEEE9"/>
<path d="M118.221 56.5375C118.221 25.3127 92.8982 0 61.6603 0C30.4224 0 5.09912 25.3127 5.09912 56.5375V98.155C5.09912 129.38 30.4224 154.692 61.6603 154.692C92.8982 154.692 118.221 129.38 118.221 98.155V56.5375Z" fill="#E6E6FF"/>
<path d="M111.526 126.196V107.642" stroke="black" stroke-width="0.957982"/>
<path d="M111.526 154.237V135.683" stroke="black" stroke-width="0.957982"/>
<path d="M116.266 130.945H134.828" stroke="black" stroke-width="0.957982"/>
<path d="M88.2134 130.945H106.775" stroke="black" stroke-width="0.957982"/>
<path d="M103.583 123.006L108.167 127.587" stroke="black" stroke-width="0.957982"/>
<path d="M119.818 123.006L115.234 127.587" stroke="black" stroke-width="0.957982"/>
<path d="M119.818 138.609L115.234 134.028" stroke="black" stroke-width="0.957982"/>
<path d="M103.583 138.609L108.167 134.028" stroke="black" stroke-width="0.957982"/>
<path d="M39.4755 64.8856C40.2074 65.0895 40.2074 66.2169 39.4755 66.4208C34.3881 67.8001 32.6243 69.5511 31.2445 74.6484C31.0405 75.38 29.9126 75.38 29.7087 74.6484C28.3288 69.5631 26.577 67.8001 21.4776 66.4208C20.7457 66.2169 20.7457 65.0895 21.4776 64.8856C26.565 63.5064 28.3288 61.7553 29.7087 56.6581C29.9126 55.9265 31.0405 55.9265 31.2445 56.6581C32.6243 61.7433 34.3761 63.5064 39.4755 64.8856Z" fill="#00FF86" stroke="#221F20" stroke-width="0.957982" stroke-miterlimit="10"/>
<path d="M259.923 68.8475C260.655 69.0514 260.655 70.1788 259.923 70.3827C254.836 71.762 253.072 73.513 251.692 78.6103C251.488 79.3419 250.36 79.3419 250.156 78.6103C248.777 73.525 247.025 71.762 241.925 70.3827C241.193 70.1788 241.193 69.0514 241.925 68.8475C247.013 67.4683 248.777 65.7172 250.156 60.62C250.36 59.8884 251.488 59.8884 251.692 60.62C253.072 65.7052 254.824 67.4683 259.923 68.8475Z" fill="#00FF86" stroke="#221F20" stroke-width="0.957982" stroke-miterlimit="10"/>
<path d="M63.2203 25.8349C63.6402 25.9548 63.6402 26.6025 63.2203 26.7104C60.3166 27.502 59.3088 28.4975 58.5168 31.4119C58.3969 31.8317 57.7489 31.8317 57.641 31.4119C56.8491 28.5094 55.8532 27.502 52.9375 26.7104C52.5176 26.5905 52.5176 25.9428 52.9375 25.8349C55.8412 25.0433 56.8491 24.0479 57.641 21.1334C57.7609 20.7137 58.4089 20.7137 58.5168 21.1334C59.3088 24.0359 60.3046 25.0433 63.2203 25.8349Z" fill="#00FF86" stroke="#221F20" stroke-width="0.957982" stroke-miterlimit="10"/>
<path d="M58.7931 96.2966L58.7568 96.4052" stroke="black" stroke-width="0.957982" stroke-miterlimit="10"/>
<path d="M64.1084 80.9323C63.8565 80.8963 63.6045 80.8723 63.3525 80.8604" stroke="black" stroke-width="0.957982" stroke-miterlimit="10"/>
<path d="M71.3555 82.0952C71.3555 82.0952 70.6476 86.209 67.444 88.9196C67.444 88.9196 63.2685 93.5491 58.757 96.4035C58.2411 98.0706 51.4979 119.587 47.1184 122.741C42.559 126.039 33.4041 124.636 33.4041 124.636L24.5612 130.573C14.1584 123.233 15.1783 111.335 15.1783 111.335C15.1783 111.335 32.1562 103.995 38.7554 97.1471C38.7554 97.1471 52.3258 80.1883 63.3525 80.8599C65.3202 78.4972 67.528 75.8706 67.7439 75.8706C67.8519 75.8706 68.4879 75.8826 69.2198 76.1465C70.6356 76.6382 72.4114 78.0654 71.3555 82.0952Z" fill="#D19D90" stroke="black" stroke-width="0.957982" stroke-miterlimit="10"/>
<path d="M49.4702 109.993C55.0855 106.779 58.2052 96.7524 58.2052 96.7524C58.3851 96.6444 58.5771 96.5245 58.7571 96.4045" stroke="black" stroke-width="0.957982" stroke-miterlimit="10"/>
<path d="M46.0986 91.8224C46.0986 91.8224 59.309 85.7057 61.3128 83.295C61.8767 82.6354 62.5966 81.7599 63.3526 80.8604" stroke="black" stroke-width="0.957982" stroke-miterlimit="10"/>
<path d="M81.2064 92.2312C80.2225 94.6659 78.9987 96.309 77.8348 97.3884C77.8348 97.4004 77.8228 97.4004 77.8228 97.4004C75.9391 99.2234 74.2713 99.5593 74.2713 99.5593L65.3563 99.4153H65.3443L61.8168 99.3554C61.7208 98.252 62.1167 97.1486 62.1167 97.1486C64.9244 91.7275 72.7594 92.3272 72.7594 92.3272L74.6432 86.3904C74.6432 86.3904 75.3751 88.4173 78.2788 90.732C79.3346 91.5596 80.3425 92.0034 81.2064 92.2312Z" fill="#D19D90" stroke="black" stroke-width="0.957982" stroke-miterlimit="10"/>
<path d="M75.8908 81.927C75.8068 81.939 75.7588 81.951 75.7588 81.951" stroke="black" stroke-width="0.957982" stroke-miterlimit="10"/>
<path d="M81.29 92.0271C81.266 92.0991 81.2301 92.159 81.2061 92.231" stroke="black" stroke-width="0.957982" stroke-miterlimit="10"/>
<path d="M77.8225 97.3994C76.0587 103.852 72.6031 105.807 71.0433 106.359C70.5514 106.55 70.2514 106.586 70.2514 106.586H59.0088C60.2926 101.069 64.2402 99.7022 65.344 99.4143H65.356L74.2709 99.5583C74.2709 99.5583 75.9387 99.2224 77.8225 97.3994Z" fill="#D19D90" stroke="black" stroke-width="0.957982" stroke-miterlimit="10"/>
<path d="M77.8711 97.2559C77.8711 97.2559 77.8469 97.3524 77.8348 97.3886C77.8348 97.4006 77.8228 97.4006 77.8228 97.4006" stroke="black" stroke-width="0.957982" stroke-miterlimit="10"/>
<path d="M65.6319 99.355C65.6319 99.355 65.5359 99.367 65.356 99.415" stroke="black" stroke-width="0.957982" stroke-miterlimit="10"/>
<path d="M71.0435 106.359C70.9355 106.898 70.1436 110.161 67.48 112.223C66.5081 112.979 65.2602 113.579 63.7124 113.807C57.5932 114.706 56.8972 112.703 57.1012 110.197C57.1612 109.417 61.0727 107.258 62.3326 106.587H70.2516C70.2516 106.587 70.5516 106.551 71.0435 106.359Z" fill="#D19D90" stroke="black" stroke-width="0.957982" stroke-miterlimit="10"/>
<path d="M71.0553 106.287C71.0553 106.287 71.0553 106.311 71.0435 106.359" stroke="black" stroke-width="0.957982" stroke-miterlimit="10"/>
<path d="M62.7165 106.384C62.7165 106.384 62.5725 106.456 62.3325 106.588" stroke="black" stroke-width="0.957982" stroke-miterlimit="10"/>
<path d="M67.588 111.888C67.552 112.008 67.516 112.116 67.48 112.224" stroke="black" stroke-width="0.957982" stroke-miterlimit="10"/>
<path d="M83.81 92.3268C83.81 92.3268 82.7421 92.6146 81.2063 92.2308C80.3424 92.003 79.3345 91.5592 78.2786 90.7316C75.375 88.4169 74.6431 86.39 74.6431 86.39C74.859 85.5145 75.279 83.9433 75.8909 81.9284C76.6588 81.7845 80.7983 81.1368 81.7942 83.4036C82.8981 85.9103 83.81 92.3268 83.81 92.3268Z" fill="#D19D90" stroke="black" stroke-width="0.957982" stroke-miterlimit="10"/>
<path d="M122.937 14.2014C121.186 22.5728 116.794 40.743 110.855 45.3365C103.056 51.3453 96.4326 50.9495 92.6171 53.648C83.5702 60.0526 78.2308 74.2289 75.8911 81.9288C75.2792 83.9437 74.8592 85.5148 74.6432 86.3904L72.7595 92.3272C72.7595 92.3272 64.9244 91.7275 62.1167 97.1485C62.1167 97.1485 61.7208 98.2519 61.8168 99.3553L65.3444 99.4153C64.2405 99.7032 60.293 101.07 59.0091 106.587H62.3327C61.0729 107.259 57.1613 109.418 57.1014 110.197C56.8974 112.704 57.5933 114.707 63.7126 113.808C65.2604 113.58 66.5082 112.98 67.4801 112.224C62.8007 125.969 56.9094 130.754 52.6019 130.634C46.2067 130.455 47.0706 123.103 47.1186 122.743C51.498 119.588 58.2412 98.072 58.7572 96.4049C63.2686 93.5505 67.4441 88.921 67.4441 88.921C70.6477 86.2105 71.3556 82.0967 71.3556 82.0967C72.4115 78.0668 70.6357 76.6396 69.2199 76.1479C70.0958 73.9411 76.635 58.0737 87.6617 48.8746C87.6617 48.8746 87.6617 16.0484 96.5526 5.38612C97.5485 4.19876 99.1803 3.74301 100.68 4.1268L119.614 8.88823C121.966 9.4879 123.441 11.8266 122.937 14.2014Z" fill="#EEEBF4" stroke="black" stroke-width="0.957982" stroke-miterlimit="10"/>
<path d="M69.2195 76.1484C69.1595 76.3283 69.1235 76.4123 69.1235 76.4123" stroke="black" stroke-width="0.957982" stroke-miterlimit="10"/>
<path d="M182.954 42.8176C182.882 42.8776 182.81 42.9256 182.738 42.9735H182.726" stroke="black" stroke-width="0.957982" stroke-miterlimit="10"/>
<path d="M182.726 42.9739L182.582 43.1298C182.582 43.1298 182.642 43.0578 182.666 43.0218C182.69 43.0099 182.702 42.9979 182.726 42.9739Z" stroke="black" stroke-width="0.957982" stroke-miterlimit="10"/>
<path d="M185.641 49.6173C185.641 49.6173 185.605 49.5818 185.582 49.5581" stroke="black" stroke-width="0.957982" stroke-miterlimit="10"/>
<path d="M191.701 40.9106C191.497 41.1745 191.389 41.3424 191.389 41.3424" stroke="black" stroke-width="0.957982" stroke-miterlimit="10"/>
<path d="M203.903 45.48C203.807 45.492 203.759 45.504 203.759 45.504" stroke="black" stroke-width="0.957982" stroke-miterlimit="10"/>
<path d="M208.163 54.0435L207.851 54.2234" stroke="black" stroke-width="0.957982" stroke-miterlimit="10"/>
<path d="M208.067 50.6492L207.923 50.6372" stroke="black" stroke-width="0.957982" stroke-miterlimit="10"/>
<path d="M217.762 18.3748L217.726 18.1589" stroke="black" stroke-width="0.957982" stroke-linejoin="round"/>
<path d="M229.244 38.2126C229.136 38.2966 229.028 38.3446 228.92 38.3446L229.244 38.2126Z" stroke="black" stroke-width="0.957982" stroke-linejoin="round"/>
<path d="M225.754 35.334C225.705 35.2375 225.669 35.1892 225.669 35.1892" stroke="black" stroke-width="0.957982" stroke-linejoin="round"/>
<path d="M24.9092 130.478C24.9092 130.478 26.9489 128.943 29.4806 127.276C29.6366 128.428 29.6126 133.753 27.9928 133.585H27.9808C27.3449 133.525 26.385 132.661 24.9092 130.478Z" fill="#16CC86" stroke="black" stroke-width="0.957982" stroke-linejoin="round"/>
<path d="M15.886 110.906V110.882C15.838 108.063 16.21 106.768 16.7739 106.372L17.1098 106.228C18.3097 106.013 20.0975 108.339 20.3375 108.735C20.3375 108.735 15.97 110.942 15.886 110.906Z" fill="#16CC86" stroke="black" stroke-width="0.957982" stroke-linejoin="round"/>
<path d="M16.7617 106.359C16.8697 106.275 16.9897 106.215 17.0977 106.215L16.7617 106.359Z" stroke="black" stroke-width="0.957982" stroke-linejoin="round"/>
<path d="M3.77979 111.372L16.7742 106.359C16.2223 106.766 15.8503 108.062 15.8863 110.868C15.8863 110.868 15.8623 110.892 15.8863 110.892C15.5384 118.628 24.9092 130.466 24.9092 130.466C26.3851 132.636 27.3449 133.5 27.9809 133.572L17.5061 138.801C17.5061 138.801 12.8387 136.858 8.11126 127.299C3.35984 117.74 3.79178 111.36 3.79178 111.36L3.77979 111.372Z" fill="#208C6E" stroke="black" stroke-width="0.957982" stroke-linejoin="round"/>
<path d="M218.505 12.3784L218.146 12.5583" stroke="black" stroke-width="0.957982" stroke-linejoin="round"/>
<path d="M182.954 42.7456L182.738 42.9735H182.726" stroke="black" stroke-width="0.957982" stroke-miterlimit="10"/>
<path d="M204.023 52.436C204.023 52.436 204.887 51.7044 205.643 50.4331" stroke="black" stroke-width="0.957982" stroke-miterlimit="10"/>
<path d="M197.76 51.9209V52.1368V51.9209Z" fill="#F4BEAB"/>
<path d="M197.76 51.9209V52.1368" stroke="black" stroke-width="0.957982" stroke-miterlimit="10"/>
<path d="M205.642 50.4337L205.559 50.4219" stroke="black" stroke-width="0.957982" stroke-miterlimit="10"/>
<path d="M206.603 46.5955H206.543" stroke="black" stroke-width="0.957982" stroke-miterlimit="10"/>
<path d="M240.837 36.1148C240.748 36.0766 240.137 36.1529 236.257 37.6407C236.091 37.7043 235.913 37.7679 235.723 37.8441C230.163 39.9932 222.721 49.5811 222.721 49.5811C222.721 49.5811 217.302 49.454 217.429 49.5811H215.953C215.521 48.1569 213.651 48.3095 213.091 48.3985C214.274 46.3385 214.694 44.571 213.664 44.0242C211.107 42.6636 208.868 44.393 208.664 44.5583C210.152 41.9642 206.947 40.5273 204.339 40.807C202.392 41.0105 200.815 42.7144 200.153 43.5537C200.204 42.9433 200.102 42.4092 199.861 41.9642C198.792 40.0568 197.418 39.8914 196.401 40.133C195.535 40.3238 194.925 40.807 194.925 40.807C194.925 40.807 192.559 43.1213 190.574 45.7917C187.585 47.6356 181.784 45.0542 183.005 43.7571C184.252 42.4092 189.556 38.2002 189.556 38.2002C192.406 32.8467 194.747 29.7694 199.937 27.4932C204.504 25.4968 210 26.1962 211.781 25.8783C218.854 24.5939 224.337 21.682 227.746 19.4312C230.303 17.74 231.69 16.4175 231.69 16.4175C231.69 16.4175 241.167 28.3198 240.837 36.1148Z" fill="#EDAA93" stroke="black" stroke-width="0.92" stroke-linejoin="round"/>
<path d="M200.153 43.5554C199.975 46.4419 196.795 50.829 193.729 52.7873C192.838 53.3595 191.96 53.7283 191.172 53.7791C190.752 53.83 190.345 53.7791 189.989 53.6266C189.989 53.6266 186.859 53.4358 188.284 49.6718C188.742 48.502 189.556 47.1922 190.459 45.946L190.485 45.9079L190.637 45.7426C190.637 45.7426 190.599 45.7807 190.574 45.7934C192.558 43.123 194.925 40.8087 194.925 40.8087C194.925 40.8087 195.535 40.3255 196.4 40.1347C197.418 39.8931 198.792 40.0585 199.86 41.9659C200.102 42.4109 200.204 42.945 200.153 43.5554Z" fill="#EDAA93" stroke="black" stroke-width="0.92" stroke-miterlimit="10"/>
<path d="M208.664 44.5597C207.137 47.1665 201.845 52.8124 199.962 53.4355C198.092 54.0713 195.968 55.3938 193.742 52.787C196.808 50.8287 199.988 46.4417 200.166 43.5551C200.828 42.7158 202.405 41.0119 204.351 40.8084C206.959 40.5287 210.165 41.9656 208.677 44.5597H208.664Z" fill="#EDAA93" stroke="black" stroke-width="0.92" stroke-miterlimit="10"/>
<path d="M217.353 53.8674L217.276 57.6695L213.04 60.0729C207.061 61.904 206.603 56.6522 206.578 55.4569C209.058 53.8292 211.641 50.9045 213.091 48.3994C213.651 48.3104 215.521 48.1578 215.953 49.582C216.042 49.8872 216.081 50.2687 216.004 50.7519C215.839 51.8837 215.406 52.8755 214.936 53.6512L217.353 53.8674Z" fill="#EDAA93" stroke="black" stroke-width="0.92" stroke-miterlimit="10"/>
<path d="M222.721 49.5819V63.7858H217.162L217.276 57.6694L217.352 53.8672L217.429 49.5819C217.302 49.4547 222.721 49.5819 222.721 49.5819Z" fill="white" stroke="black" stroke-width="0.92" stroke-miterlimit="10"/>
<path d="M231.69 16.4187C231.69 16.4187 230.303 17.7411 227.746 19.4324C227.581 18.2752 226.932 13.1379 228.573 13.3032H228.586C229.222 13.3668 230.201 14.2315 231.69 16.4187Z" fill="#16CC86" stroke="black" stroke-width="0.92" stroke-linejoin="round"/>
<path d="M240.837 36.1154V36.1408C240.887 38.9765 240.519 40.2863 239.959 40.6932L239.615 40.8331C238.407 41.0492 236.677 38.328 236.257 37.6413C240.137 36.1535 240.748 36.0772 240.837 36.1154Z" fill="#16CC86" stroke="black" stroke-width="0.92" stroke-linejoin="round"/>
<path d="M253.037 35.6067L239.959 40.6931C240.519 40.2862 240.888 38.9765 240.837 36.1408C240.837 36.1408 240.862 36.1153 240.837 36.1153C241.167 28.3204 231.69 16.4181 231.69 16.4181C230.202 14.2309 229.222 13.3662 228.586 13.3026L239.132 8C239.132 8 243.839 9.94557 248.635 19.559C253.444 29.1723 253.037 35.6067 253.037 35.6067Z" fill="#208C6E" stroke="black" stroke-width="0.92" stroke-linejoin="round"/>
<path d="M244.869 140.127L169.442 142.488L172.218 65.5588L187.091 65.2523L192.655 65.1502L236.112 64.2649L244.869 140.127Z" fill="#FBF9FF" stroke="black" stroke-width="0.92" stroke-miterlimit="10"/>
<path d="M172.271 66.1499L169.328 142.488L166.159 137.589L160.957 138.861L172.271 66.1499Z" fill="#F7F5FD" stroke="black" stroke-width="0.92" stroke-miterlimit="10"/>
<path d="M191.172 53.7912L191.121 64.5108L184.849 64.6253L185.053 51.5658L190.459 45.9453C189.556 47.1915 188.742 48.5012 188.284 49.6711C186.859 53.4351 189.989 53.6258 189.989 53.6258C190.345 53.7784 190.752 53.8293 191.172 53.7912Z" fill="white" stroke="black" stroke-width="0.92" stroke-miterlimit="10"/>
<path d="M213.523 34.2844C209.478 39.3709 199.186 38.1883 199.186 38.1883L196.184 40.2737" stroke="black" stroke-width="0.92" stroke-miterlimit="10"/>
<path d="M213.091 48.3987C211.641 50.9038 209.058 53.8285 206.578 55.4562C205.815 55.9776 205.051 56.359 204.339 56.5752C204.339 56.5752 199.772 58.2792 199.95 53.4343C201.833 52.8112 207.125 47.1653 208.651 44.5712C208.855 44.3932 211.094 42.6638 213.651 44.0244C214.681 44.5712 214.262 46.3387 213.078 48.3987H213.091Z" fill="#EDAA93" stroke="black" stroke-width="0.92" stroke-miterlimit="10"/>
<path d="M217.429 49.5815L217.353 53.8669L214.936 53.6507C215.406 52.875 215.839 51.8832 216.004 50.7514C216.08 50.2682 216.042 49.8867 215.953 49.5815H217.429Z" fill="#EDAA93" stroke="black" stroke-width="0.92" stroke-miterlimit="10"/>
<path d="M205.27 119.869C219.85 119.869 231.67 112.696 231.67 103.848C231.67 94.9993 219.85 87.8262 205.27 87.8262C190.69 87.8262 178.871 94.9993 178.871 103.848C178.871 112.696 190.69 119.869 205.27 119.869Z" fill="#E6E6FF"/>
<path d="M101.376 9.77783C101.376 9.77783 94.1645 25.5965 93.3726 40.4445" stroke="black" stroke-width="0.957982" stroke-miterlimit="10" stroke-linecap="round"/>
<path d="M106.711 11.5557L97.8188 40.889" stroke="black" stroke-width="0.957982" stroke-miterlimit="10" stroke-linecap="round"/>
<path d="M112.491 13.3333C110.268 19.5555 101.82 42.2221 101.82 42.2221" stroke="black" stroke-width="0.957982" stroke-miterlimit="10" stroke-linecap="round"/>
<path d="M117.382 15.5554C117.382 15.5554 108.934 38.6665 105.377 43.5554" stroke="black" stroke-width="0.957982" stroke-miterlimit="10" stroke-linecap="round"/>
</g>
<defs>
<clipPath id="clip0_1952_241643">
<rect width="265" height="168" fill="white"/>
</clipPath>
</defs>
</svg>
