<svg width="1080" height="1080" viewBox="0 0 1080 1080" fill="none" xmlns="http://www.w3.org/2000/svg">
<path d="M600.72 894.98C588.44 895.64 588.68 819.11 599.7 816.86C632.84 810.1 636.59 862.78 636.59 862.78L627.97 884.15C627.97 884.15 618.92 894.01 600.72 894.99V894.98Z" fill="#0F0017" fill-opacity="0.6"/>
<path d="M936.19 722.24L952.4 706.11C956.72 701.81 956.76 694.83 952.5 690.48L939.42 677.14C938.49 676.19 936.88 676.56 936.47 677.83C935.33 681.3 935.68 685.09 937.43 688.3L942.01 696.67L934.02 701.71C929.31 704.68 923.42 705.11 918.33 702.86L915.8 701.71C911.62 699.81 910.01 694.72 912.33 690.76L917.13 682.58L926.71 683.92C931.01 684.52 935.12 681.96 936.48 677.83C936.98 676.33 936.1 674.71 934.57 674.3L918.3 669.94C913.66 668.7 908.72 669.94 905.21 673.21L880.29 696.53L845.37 680.5L828.91 722.08L899.22 744.36L918.8 730.81L936.21 722.24H936.19Z" fill="#FF8F71"/>
<mask id="mask0_2470_84463" style="mask-type:luminance" maskUnits="userSpaceOnUse" x="828" y="669" width="128" height="76">
<path d="M936.19 722.24L952.4 706.11C956.72 701.81 956.76 694.83 952.5 690.48L939.42 677.14C938.49 676.19 936.88 676.56 936.47 677.83C935.33 681.3 935.68 685.09 937.43 688.3L942.01 696.67L934.02 701.71C929.31 704.68 923.42 705.11 918.33 702.86L915.8 701.71C911.62 699.81 910.01 694.72 912.33 690.76L917.13 682.58L926.71 683.92C931.01 684.52 935.12 681.96 936.48 677.83C936.98 676.33 936.1 674.71 934.57 674.3L918.3 669.94C913.66 668.7 908.72 669.94 905.21 673.21L880.29 696.53L845.37 680.5L828.91 722.08L899.22 744.36L918.8 730.81L936.21 722.24H936.19Z" fill="white"/>
</mask>
<g mask="url(#mask0_2470_84463)">
<path opacity="0.6" d="M958.28 698.01L944.27 726.03L916.28 718.95L919.09 717.78C923.28 719.75 932.24 717.56 935.94 714.78L958.27 698H958.28V698.01Z" fill="url(#paint0_linear_2470_84463)" fill-opacity="0.6"/>
<path opacity="0.6" d="M913.04 689.53L921.43 698.15L904.22 704.55L913.04 689.53Z" fill="url(#paint1_linear_2470_84463)" fill-opacity="0.6"/>
</g>
<path d="M878.14 728.27L929.84 736.4H962.2L986.85 730.24C988.71 729.77 989.83 727.87 989.33 726.01C988.23 721.99 984.35 719.39 980.21 719.92L964.53 721.91C962.89 722.12 961.23 722.2 959.57 722.15L940.85 721.59C936.45 721.46 932.13 720.41 928.16 718.52L911.82 710.74L878.14 728.26V728.27Z" fill="#FF8F71"/>
<mask id="mask1_2470_84463" style="mask-type:luminance" maskUnits="userSpaceOnUse" x="878" y="710" width="112" height="27">
<path d="M878.14 728.27L929.84 736.4H962.2L986.85 730.24C988.71 729.77 989.83 727.87 989.33 726.01C988.23 721.99 984.35 719.39 980.21 719.92L964.53 721.91C962.89 722.12 961.23 722.2 959.57 722.15L940.85 721.59C936.45 721.46 932.13 720.41 928.16 718.52L911.82 710.74L878.14 728.26V728.27Z" fill="white"/>
</mask>
<g mask="url(#mask1_2470_84463)">
<path opacity="0.6" d="M993.859 711.74L997.789 736.4L917.229 733.88V712.16L993.859 711.74Z" fill="url(#paint2_linear_2470_84463)" fill-opacity="0.6"/>
</g>
<path d="M839.31 716.62L920.31 742.29H952.67L977.32 736.13C979.18 735.66 980.3 733.76 979.8 731.9C978.7 727.88 974.82 725.28 970.68 725.81L955 727.8C953.36 728.01 951.7 728.09 950.04 728.04L931.32 727.48C926.92 727.35 922.6 726.3 918.63 724.41L842.83 688.33L839.31 716.62Z" fill="#FF8F71"/>
<mask id="mask2_2470_84463" style="mask-type:luminance" maskUnits="userSpaceOnUse" x="839" y="688" width="141" height="55">
<path d="M839.31 716.62L920.31 742.29H952.67L977.32 736.13C979.18 735.66 980.3 733.76 979.8 731.9C978.7 727.88 974.82 725.28 970.68 725.81L955 727.8C953.36 728.01 951.7 728.09 950.04 728.04L931.32 727.48C926.92 727.35 922.6 726.3 918.63 724.41L842.83 688.33L839.31 716.62Z" fill="white"/>
</mask>
<g mask="url(#mask2_2470_84463)">
<path opacity="0.3" d="M988.15 720.77L992.07 745.43L911.51 742.9V721.19L988.15 720.77Z" fill="url(#paint3_linear_2470_84463)" fill-opacity="0.6"/>
</g>
<path d="M828.89 722.08L901.75 745.17C907.14 746.88 912.77 747.75 918.43 747.75H935.46C939.97 747.75 944.46 747.2 948.84 746.1L966.9 741.59C968.76 741.12 969.88 739.22 969.38 737.36C968.28 733.34 964.4 730.74 960.26 731.27L944.58 733.26C942.94 733.47 941.28 733.55 939.62 733.5L920.9 732.94C916.5 732.81 912.18 731.76 908.21 729.87L832.41 693.79L828.89 722.08Z" fill="#FF8F71"/>
<mask id="mask3_2470_84463" style="mask-type:luminance" maskUnits="userSpaceOnUse" x="828" y="693" width="142" height="55">
<path d="M828.89 722.08L901.75 745.17C907.14 746.88 912.77 747.75 918.43 747.75H935.46C939.97 747.75 944.46 747.2 948.84 746.1L966.9 741.59C968.76 741.12 969.88 739.22 969.38 737.36C968.28 733.34 964.4 730.74 960.26 731.27L944.58 733.26C942.94 733.47 941.28 733.55 939.62 733.5L920.9 732.94C916.5 732.81 912.18 731.76 908.21 729.87L832.41 693.79L828.89 722.08Z" fill="white"/>
</mask>
<g mask="url(#mask3_2470_84463)">
<path d="M841.699 704.46C860.579 701.2 864.819 730.53 896.339 736.41C927.859 742.29 931.439 742.08 943.629 740.82C955.819 739.56 957.419 744.06 966.919 741.6C976.419 739.14 968.639 752.8 968.639 752.8L903.489 764.56L832.669 739.35L841.709 704.46H841.699Z" fill="url(#paint4_linear_2470_84463)" fill-opacity="0.6"/>
</g>
<path d="M718.45 357.7L742.76 383.97C760.66 403.31 769.18 429.52 766.09 455.68L746.99 617.14C746.99 617.14 816.62 628.45 839.32 648.42C862.02 668.39 858.179 686.39 873.099 693.23C858.509 686.54 835.27 705.3 845.799 727.44L674.229 673.07L680.76 480.56L718.46 357.7H718.45Z" fill="#123633"/>
<mask id="mask4_2470_84463" style="mask-type:luminance" maskUnits="userSpaceOnUse" x="674" y="357" width="200" height="371">
<path d="M718.45 357.7L742.76 383.97C760.66 403.31 769.18 429.52 766.09 455.68L746.99 617.14C746.99 617.14 816.62 628.45 839.32 648.42C862.02 668.39 858.179 686.39 873.099 693.23C858.509 686.54 835.27 705.3 845.799 727.44L674.229 673.07L680.76 480.56L718.46 357.7H718.45Z" fill="white"/>
</mask>
<g mask="url(#mask4_2470_84463)">
<path d="M746.99 617.13C771.07 621.96 750.38 588.45 750.38 588.45L706.78 611.15C706.78 611.15 722.91 612.31 746.99 617.14V617.13Z" fill="url(#paint5_linear_2470_84463)" fill-opacity="0.6"/>
<path d="M677.49 578.64C677.49 619.62 681.64 667.13 759.98 685.93C838.32 704.73 828.95 674.29 873.09 693.22C917.22 712.15 861.31 751.8 861.31 751.8L680.86 710.74L677.5 578.63" fill="url(#paint6_linear_2470_84463)" fill-opacity="0.6"/>
<path d="M718.45 348.87C718.45 348.87 747.83 364.56 753.43 419.48C759.39 477.9 723.81 507.75 718.45 552.3C713.08 596.85 735.99 612.19 710.56 677.55L639.14 610.31L670.21 416.97L718.45 348.88V348.87Z" fill="url(#paint7_linear_2470_84463)" fill-opacity="0.6"/>
</g>
<path d="M182.6 722.24L166.39 706.11C162.07 701.81 162.03 694.83 166.29 690.48L179.37 677.14C180.3 676.19 181.91 676.56 182.32 677.83C183.46 681.3 183.11 685.09 181.36 688.3L176.78 696.67L184.77 701.71C189.48 704.68 195.37 705.11 200.46 702.86L202.99 701.71C207.17 699.81 208.78 694.72 206.46 690.76L201.66 682.58L192.08 683.92C187.78 684.52 183.67 681.96 182.31 677.83C181.81 676.33 182.69 674.71 184.22 674.3L200.49 669.94C205.13 668.7 210.07 669.94 213.58 673.21L238.5 696.53L273.42 680.5L289.88 722.08L219.57 744.36L199.99 730.81L182.58 722.24H182.6Z" fill="#FF8F71"/>
<mask id="mask5_2470_84463" style="mask-type:luminance" maskUnits="userSpaceOnUse" x="163" y="669" width="127" height="76">
<path d="M182.6 722.24L166.39 706.11C162.07 701.81 162.03 694.83 166.29 690.48L179.37 677.14C180.3 676.19 181.91 676.56 182.32 677.83C183.46 681.3 183.11 685.09 181.36 688.3L176.78 696.67L184.77 701.71C189.48 704.68 195.37 705.11 200.46 702.86L202.99 701.71C207.17 699.81 208.78 694.72 206.46 690.76L201.66 682.58L192.08 683.92C187.78 684.52 183.67 681.96 182.31 677.83C181.81 676.33 182.69 674.71 184.22 674.3L200.49 669.94C205.13 668.7 210.07 669.94 213.58 673.21L238.5 696.53L273.42 680.5L289.88 722.08L219.57 744.36L199.99 730.81L182.58 722.24H182.6Z" fill="white"/>
</mask>
<g mask="url(#mask5_2470_84463)">
<path opacity="0.6" d="M160.51 698.01L174.52 726.03L202.51 718.95L199.7 717.78C195.51 719.75 186.55 717.56 182.85 714.78L160.52 698H160.51V698.01Z" fill="url(#paint8_linear_2470_84463)" fill-opacity="0.6"/>
<path opacity="0.6" d="M205.75 689.53L197.36 698.15L214.56 704.55L205.75 689.53Z" fill="url(#paint9_linear_2470_84463)" fill-opacity="0.6"/>
</g>
<path d="M240.65 728.27L188.95 736.4H156.58L131.93 730.24C130.07 729.77 128.95 727.87 129.45 726.01C130.55 721.99 134.43 719.39 138.57 719.92L154.25 721.91C155.89 722.12 157.55 722.2 159.21 722.15L177.93 721.59C182.33 721.46 186.65 720.41 190.62 718.52L206.96 710.74L240.64 728.26H240.65V728.27Z" fill="#FF8F71"/>
<mask id="mask6_2470_84463" style="mask-type:luminance" maskUnits="userSpaceOnUse" x="129" y="710" width="112" height="27">
<path d="M240.65 728.27L188.95 736.4H156.58L131.93 730.24C130.07 729.77 128.95 727.87 129.45 726.01C130.55 721.99 134.43 719.39 138.57 719.92L154.25 721.91C155.89 722.12 157.55 722.2 159.21 722.15L177.93 721.59C182.33 721.46 186.65 720.41 190.62 718.52L206.96 710.74L240.64 728.26H240.65V728.27Z" fill="white"/>
</mask>
<g mask="url(#mask6_2470_84463)">
<path opacity="0.6" d="M124.92 711.74L121 736.4L201.56 733.88V712.16L124.92 711.74Z" fill="url(#paint10_linear_2470_84463)" fill-opacity="0.6"/>
</g>
<path d="M279.47 716.62L198.47 742.29H166.11L141.46 736.13C139.6 735.66 138.48 733.76 138.98 731.9C140.08 727.88 143.96 725.28 148.1 725.81L163.78 727.8C165.42 728.01 167.08 728.09 168.74 728.04L187.46 727.48C191.86 727.35 196.18 726.3 200.15 724.41L275.95 688.33L279.47 716.62Z" fill="#FF8F71"/>
<mask id="mask7_2470_84463" style="mask-type:luminance" maskUnits="userSpaceOnUse" x="138" y="688" width="142" height="55">
<path d="M279.47 716.62L198.47 742.29H166.11L141.46 736.13C139.6 735.66 138.48 733.76 138.98 731.9C140.08 727.88 143.96 725.28 148.1 725.81L163.78 727.8C165.42 728.01 167.08 728.09 168.74 728.04L187.46 727.48C191.86 727.35 196.18 726.3 200.15 724.41L275.95 688.33L279.47 716.62Z" fill="white"/>
</mask>
<g mask="url(#mask7_2470_84463)">
<path opacity="0.3" d="M130.639 720.77L126.709 745.43L207.269 742.9V721.19L130.639 720.77Z" fill="url(#paint11_linear_2470_84463)" fill-opacity="0.6"/>
</g>
<path d="M289.9 722.08L217.04 745.17C211.65 746.88 206.02 747.75 200.36 747.75H183.33C178.82 747.75 174.33 747.2 169.95 746.1L151.89 741.59C150.03 741.12 148.91 739.22 149.41 737.36C150.51 733.34 154.39 730.74 158.53 731.27L174.21 733.26C175.85 733.47 177.51 733.55 179.17 733.5L197.89 732.94C202.29 732.81 206.61 731.76 210.58 729.87L250.75 710.75L245.7 693.23L271.1 681.58L289.91 722.09L289.9 722.08Z" fill="#FF8F71"/>
<mask id="mask8_2470_84463" style="mask-type:luminance" maskUnits="userSpaceOnUse" x="149" y="681" width="141" height="67">
<path d="M289.9 722.08L217.04 745.17C211.65 746.88 206.02 747.75 200.36 747.75H183.33C178.82 747.75 174.33 747.2 169.95 746.1L151.89 741.59C150.03 741.12 148.91 739.22 149.41 737.36C150.51 733.34 154.39 730.74 158.53 731.27L174.21 733.26C175.85 733.47 177.51 733.55 179.17 733.5L197.89 732.94C202.29 732.81 206.61 731.76 210.58 729.87L250.75 710.75L245.7 693.23L271.1 681.58L289.91 722.09L289.9 722.08Z" fill="white"/>
</mask>
<g mask="url(#mask8_2470_84463)">
<path d="M245.69 693.23C264.23 684.72 275.05 719.58 259.98 723.58C244.91 727.58 243.34 736.83 226.12 742.29C208.9 747.75 226.51 764.55 226.51 764.55L286.04 736.4L279.47 688.33L247.79 677.55L245.69 693.23Z" fill="url(#paint12_linear_2470_84463)" fill-opacity="0.6"/>
</g>
<path d="M400.34 357.7L376.03 383.97C358.13 403.31 349.61 429.52 352.7 455.68L371.8 617.14C371.8 617.14 302.17 628.45 279.47 648.42C256.77 668.39 260.61 686.39 245.69 693.23C260.28 686.54 283.52 705.3 272.99 727.44L444.56 673.07L438.03 480.56L400.33 357.7H400.34Z" fill="#123633"/>
<mask id="mask9_2470_84463" style="mask-type:luminance" maskUnits="userSpaceOnUse" x="245" y="357" width="200" height="371">
<path d="M400.34 357.7L376.03 383.97C358.13 403.31 349.61 429.52 352.7 455.68L371.8 617.14C371.8 617.14 302.17 628.45 279.47 648.42C256.77 668.39 260.61 686.39 245.69 693.23C260.28 686.54 283.52 705.3 272.99 727.44L444.56 673.07L438.03 480.56L400.33 357.7H400.34Z" fill="white"/>
</mask>
<g mask="url(#mask9_2470_84463)">
<path d="M371.8 617.13C347.72 621.96 353.28 513.4 353.28 513.4L357.97 500.14C357.97 500.14 395.88 612.3 371.81 617.13H371.8Z" fill="url(#paint13_linear_2470_84463)" fill-opacity="0.6"/>
<path d="M289.9 722.08C326.33 710.53 367.74 652.34 436.21 650.65C504.68 648.96 393.53 710.75 393.53 710.75L298.65 727.44L289.9 722.08Z" fill="url(#paint14_linear_2470_84463)" fill-opacity="0.6"/>
</g>
<path d="M952.47 789.85C948.74 771.02 935.05 755.72 916.75 749.92L718.41 687.07H400.37L202.03 749.92C183.73 755.72 170.04 771.02 166.31 789.85C160.88 817.23 182.17 842.61 210.07 842.02L559.39 834.75L908.71 842.02C936.62 842.6 957.9 817.22 952.47 789.85Z" fill="#175047"/>
<mask id="mask10_2470_84463" style="mask-type:luminance" maskUnits="userSpaceOnUse" x="165" y="687" width="789" height="156">
<path d="M952.47 789.85C948.74 771.02 935.05 755.72 916.75 749.92L718.41 687.07H400.37L202.03 749.92C183.73 755.72 170.04 771.02 166.31 789.85C160.88 817.23 182.17 842.61 210.07 842.02L559.39 834.75L908.71 842.02C936.62 842.6 957.9 817.22 952.47 789.85Z" fill="white"/>
</mask>
<g mask="url(#mask10_2470_84463)">
<path d="M854.8 778.37C881.82 792.88 692.56 833.91 559.4 833.91C426.24 833.91 264 809.04 264 778.37C264 747.7 428.06 742.6 559.4 764.55C669.89 783.02 717.94 743.9 767.29 755.35C800.93 763.16 797.15 772.54 824.83 764.69C834.35 761.99 844.03 772.58 854.8 778.37Z" fill="url(#paint15_linear_2470_84463)" fill-opacity="0.6"/>
<path d="M899.2 744.36C931.2 754.5 655.97 633 559.39 633C462.81 633 384.52 660.21 384.52 693.79C384.52 727.37 462.81 754.58 559.39 754.58C741.66 754.58 744.94 695.48 899.2 744.36Z" fill="url(#paint16_linear_2470_84463)" fill-opacity="0.6"/>
<path d="M208.89 747.75C258.47 732.04 283.52 747.58 323.03 734C362.54 720.43 380.19 680.08 478.55 700.25L393.53 665.78L210.58 729.86L208.9 747.74H208.89V747.75Z" fill="url(#paint17_linear_2470_84463)" fill-opacity="0.6"/>
</g>
<path d="M704 643.57C714.52 656.86 719.61 673.64 718.22 690.54C717.18 703.25 707.81 713.71 695.3 716.16L647.65 725.47C589.36 736.86 529.42 736.86 471.13 725.47L423.48 716.16C410.97 713.72 401.6 703.25 400.56 690.54C399.17 673.65 404.26 656.86 414.78 643.57C426.03 629.37 443.15 621.09 461.26 621.09H657.52C675.63 621.09 692.75 629.37 704 643.57Z" fill="#208C6E"/>
<mask id="mask11_2470_84463" style="mask-type:luminance" maskUnits="userSpaceOnUse" x="400" y="621" width="319" height="114">
<path d="M704 643.57C714.52 656.86 719.61 673.64 718.22 690.54C717.18 703.25 707.81 713.71 695.3 716.16L647.65 725.47C589.36 736.86 529.42 736.86 471.13 725.47L423.48 716.16C410.97 713.72 401.6 703.25 400.56 690.54C399.17 673.65 404.26 656.86 414.78 643.57C426.03 629.37 443.15 621.09 461.26 621.09H657.52C675.63 621.09 692.75 629.37 704 643.57Z" fill="white"/>
</mask>
<g mask="url(#mask11_2470_84463)">
<path d="M727.58 552.88C732.5 570.16 755.45 648.92 750.67 666.24L718.42 687.06C718.64 651.94 699.53 651.22 674.3 654.44C665.77 655.53 656.56 656.7 647.34 657.88C600.82 663.81 553.8 663.81 507.28 657.88L480.32 654.45C455.1 651.24 434.07 632.17 426.83 605.95C422.05 588.63 422.12 570.17 427.04 552.89C431.37 537.66 444.43 527.27 459.21 527.27H695.4C710.19 527.27 723.24 537.67 727.57 552.89H727.58V552.88Z" fill="url(#paint18_linear_2470_84463)" fill-opacity="0.6"/>
<g opacity="0.4">
<g opacity="0.8">
<path d="M565.37 623.46H553.43L553.48 624.44L553.81 631.34L554.18 639.22L554.55 647.1L554.92 654.98L554.98 656.21L555.3 662.86L555.67 670.74L556.04 678.62L556.41 686.5L556.78 694.38L557.15 702.26L557.52 710.14L557.89 718.02L558.26 725.9L558.63 733.78L559 741.66L559.33 748.56L559.37 749.39C559.39 749.11 559.4 748.84 559.42 748.56L559.75 741.66L560.12 733.78L560.49 725.9L560.86 718.02L561.23 710.14L561.6 702.26L561.97 694.38L562.34 686.5L562.71 678.62L563.08 670.74L563.45 662.86L563.77 656.21L563.83 654.98L564.2 647.1L564.57 639.22L564.94 631.34L565.27 624.44L565.32 623.46H565.37Z" fill="url(#paint19_linear_2470_84463)" fill-opacity="0.6"/>
</g>
</g>
<path d="M423.49 716.15C462.27 722.02 543.28 737.09 595.4 715.31C647.52 693.53 718.45 736.41 718.42 687.07C743.07 747.75 677.55 744.36 677.55 744.36L475.18 747.75L423.48 716.16L423.49 716.15Z" fill="url(#paint20_linear_2470_84463)" fill-opacity="0.6"/>
</g>
<path d="M702.77 551.37C708.05 568.63 708.12 587.07 702.99 604.37C696.55 626.1 677.79 641.91 655.28 644.58L640.25 646.36C586.53 652.73 532.25 652.73 478.54 646.36L463.51 644.58C441 641.91 422.24 626.1 415.8 604.37C410.67 587.06 410.75 568.63 416.02 551.37C419.67 539.42 430.7 531.27 443.19 531.27H675.6C688.09 531.27 699.12 539.43 702.77 551.37Z" fill="#208C6E"/>
<mask id="mask12_2470_84463" style="mask-type:luminance" maskUnits="userSpaceOnUse" x="412" y="531" width="295" height="121">
<path d="M702.77 551.37C708.05 568.63 708.12 587.07 702.99 604.37C696.55 626.1 677.79 641.91 655.28 644.58L640.25 646.36C586.53 652.73 532.25 652.73 478.54 646.36L463.51 644.58C441 641.91 422.24 626.1 415.8 604.37C410.67 587.06 410.75 568.63 416.02 551.37C419.67 539.42 430.7 531.27 443.19 531.27H675.6C688.09 531.27 699.12 539.43 702.77 551.37Z" fill="white"/>
</mask>
<g mask="url(#mask12_2470_84463)">
<path d="M710.529 488.46C715.449 505.74 738.399 584.5 733.619 601.82L693.729 622.62C713.219 578.16 682.479 586.81 657.249 590.02C648.719 591.11 639.509 592.28 630.289 593.46C583.769 599.39 536.749 599.39 490.229 593.46L463.269 590.03C438.049 586.82 417.019 567.75 409.779 541.53C404.999 524.21 405.069 505.75 409.989 488.47C414.319 473.24 427.379 462.85 442.159 462.85H678.349C693.139 462.85 706.189 473.25 710.519 488.47L710.529 488.46Z" fill="url(#paint21_linear_2470_84463)" fill-opacity="0.6"/>
<g opacity="0.5">
<g opacity="0.8">
<path d="M565.359 555.07H553.419L553.469 556.05L553.799 562.95L554.169 570.83L554.539 578.71L554.909 586.59L554.969 587.82L555.289 594.47L555.659 602.35L556.029 610.23L556.399 618.11L556.769 625.99L557.139 633.87L557.509 641.75L557.879 649.63L558.249 657.51L558.619 665.39L558.989 673.27L559.319 680.17L559.359 681C559.379 680.72 559.389 680.45 559.409 680.17L559.739 673.27L560.109 665.39L560.479 657.51L560.849 649.63L561.219 641.75L561.589 633.87L561.959 625.99L562.329 618.11L562.699 610.23L563.069 602.35L563.439 594.47L563.759 587.82L563.819 586.59L564.189 578.71L564.559 570.83L564.929 562.95L565.259 556.05L565.309 555.07H565.359Z" fill="url(#paint22_linear_2470_84463)" fill-opacity="0.6"/>
</g>
</g>
</g>
<path d="M721.23 449.31C726.53 466.59 726.6 485.05 721.46 502.37C713.67 528.59 691.02 547.66 663.86 550.87C654.67 551.96 644.76 553.13 634.82 554.31C584.71 560.24 534.08 560.24 483.98 554.31L454.94 550.88C427.78 547.67 405.13 528.6 397.34 502.38C392.19 485.06 392.27 466.6 397.57 449.32C402.24 434.09 416.3 423.7 432.22 423.7H686.59C702.52 423.7 716.57 434.1 721.24 449.32H721.23V449.31Z" fill="#208C6E"/>
<mask id="mask13_2470_84463" style="mask-type:luminance" maskUnits="userSpaceOnUse" x="393" y="423" width="333" height="136">
<path d="M721.23 449.31C726.53 466.59 726.6 485.05 721.46 502.37C713.67 528.59 691.02 547.66 663.86 550.87C654.67 551.96 644.76 553.13 634.82 554.31C584.71 560.24 534.08 560.24 483.98 554.31L454.94 550.88C427.78 547.67 405.13 528.6 397.34 502.38C392.19 485.06 392.27 466.6 397.57 449.32C402.24 434.09 416.3 423.7 432.22 423.7H686.59C702.52 423.7 716.57 434.1 721.24 449.32H721.23V449.31Z" fill="white"/>
</mask>
<g mask="url(#mask13_2470_84463)">
<path d="M726.86 381.78C732.34 399.06 757.92 477.82 752.59 495.14L717.21 513.17C738.93 468.71 695.59 480.13 667.49 483.34C657.98 484.43 647.72 485.6 637.44 486.78C585.59 492.71 533.2 492.71 481.35 486.78L451.3 483.35C423.19 480.14 399.76 461.07 391.69 434.85C386.36 417.53 386.44 399.07 391.92 381.79C396.75 366.56 411.3 356.17 427.78 356.17H691C707.48 356.17 722.03 366.57 726.86 381.79V381.78Z" fill="url(#paint23_linear_2470_84463)" fill-opacity="0.6"/>
<g opacity="0.6">
<g opacity="0.8">
<path d="M565.37 457.67H553.43L553.48 458.65L553.81 465.55L554.18 473.43L554.55 481.31L554.92 489.19L554.98 490.42L555.3 497.07L555.67 504.95L556.04 512.83L556.41 520.71L556.78 528.59L557.15 536.47L557.52 544.35L557.89 552.23L558.26 560.11L558.63 567.99L559 575.87L559.33 582.77L559.37 583.6C559.39 583.32 559.4 583.05 559.42 582.77L559.75 575.87L560.12 567.99L560.49 560.11L560.86 552.23L561.23 544.35L561.6 536.47L561.97 528.59L562.34 520.71L562.71 512.83L563.08 504.95L563.45 497.07L563.77 490.42L563.83 489.19L564.2 481.31L564.57 473.43L564.94 465.55L565.27 458.65L565.32 457.67H565.37Z" fill="url(#paint24_linear_2470_84463)" fill-opacity="0.6"/>
</g>
</g>
</g>
<path d="M657.98 283.3L690.86 306.21C716.3 323.94 732.14 352.4 733.81 383.36L734.2 390.55C735.36 412.04 724.19 432.31 705.41 442.82C699.87 445.92 693.84 448.07 687.58 449.16L658.8 454.2C593.04 465.71 525.77 465.71 460.01 454.2L431.23 449.16C424.97 448.06 418.94 445.92 413.4 442.82C394.62 432.31 383.46 412.04 384.61 390.55L385 383.36C386.66 352.4 402.51 323.94 427.95 306.21L460.83 283.3H657.99H657.98Z" fill="#208C6E"/>
<mask id="mask14_2470_84463" style="mask-type:luminance" maskUnits="userSpaceOnUse" x="384" y="283" width="351" height="180">
<path d="M657.98 283.3L690.86 306.21C716.3 323.94 732.14 352.4 733.81 383.36L734.2 390.55C735.36 412.04 724.19 432.31 705.41 442.82C699.87 445.92 693.84 448.07 687.58 449.16L658.8 454.2C593.04 465.71 525.77 465.71 460.01 454.2L431.23 449.16C424.97 448.06 418.94 445.92 413.4 442.82C394.62 432.31 383.46 412.04 384.61 390.55L385 383.36C386.66 352.4 402.51 323.94 427.95 306.21L460.83 283.3H657.99H657.98Z" fill="white"/>
</mask>
<g mask="url(#mask14_2470_84463)">
<path d="M456.02 298.48C456.02 325.89 458.27 390.34 564.84 390.34C671.41 390.34 657.11 321.18 713.92 328.54C772.65 336.15 698.22 251.91 698.22 251.91L465.4 278.1L456.01 298.48H456.02Z" fill="url(#paint25_linear_2470_84463)" fill-opacity="0.6"/>
<g opacity="0.7">
<g opacity="0.8">
<path d="M565.37 373.07H553.43L553.48 374.05L553.81 380.95L554.18 388.83L554.55 396.71L554.92 404.59L554.98 405.82L555.3 412.47L555.67 420.35L556.04 428.23L556.41 436.11L556.78 443.99L557.15 451.87L557.52 459.75L557.89 467.63L558.26 475.51L558.63 483.39L559 491.27L559.33 498.17L559.37 499C559.39 498.72 559.4 498.45 559.42 498.17L559.75 491.27L560.12 483.39L560.49 475.51L560.86 467.63L561.23 459.75L561.6 451.87L561.97 443.99L562.34 436.11L562.71 428.23L563.08 420.35L563.45 412.47L563.77 405.82L563.83 404.59L564.2 396.71L564.57 388.83L564.94 380.95L565.27 374.05L565.32 373.07H565.37Z" fill="url(#paint26_linear_2470_84463)" fill-opacity="0.6"/>
</g>
</g>
</g>
<path d="M559.39 195.04L574.24 198.97C602.8 206.52 628.21 222.98 646.77 245.96C662.9 265.92 667.4 292.86 658.65 316.98L653.93 329.98C645.82 352.31 626.35 368.58 602.92 372.57C574.11 377.48 544.67 377.48 515.85 372.57C492.43 368.58 472.95 352.32 464.84 329.98L460.12 316.98C451.36 292.86 455.87 265.92 472 245.96C490.57 222.98 515.97 206.53 544.53 198.97L559.38 195.04H559.39Z" fill="#208C6E"/>
<mask id="mask15_2470_84463" style="mask-type:luminance" maskUnits="userSpaceOnUse" x="455" y="195" width="209" height="182">
<path d="M559.39 195.04L574.24 198.97C602.8 206.52 628.21 222.98 646.77 245.96C662.9 265.92 667.4 292.86 658.65 316.98L653.93 329.98C645.82 352.31 626.35 368.58 602.92 372.57C574.11 377.48 544.67 377.48 515.85 372.57C492.43 368.58 472.95 352.32 464.84 329.98L460.12 316.98C451.36 292.86 455.87 265.92 472 245.96C490.57 222.98 515.97 206.53 544.53 198.97L559.38 195.04H559.39Z" fill="white"/>
</mask>
<g mask="url(#mask15_2470_84463)">
<path d="M510.96 317.36L555.46 344.39L605.62 317.14C623.66 307.34 633.13 286.78 628.65 266.74C623.27 242.74 606.68 215.96 559.4 215.96C512.12 215.96 494.47 244.54 489.65 269.11C485.94 288.07 494.46 307.33 510.97 317.36H510.96Z" fill="url(#paint27_linear_2470_84463)" fill-opacity="0.6"/>
<path d="M620.45 294.51C620.45 294.51 644.5 236.11 655.24 259.08C657.03 262.9 658.7 233.89 658.7 233.89L631 229.42L602.79 294.74L620.45 294.51Z" fill="url(#paint28_linear_2470_84463)" fill-opacity="0.6"/>
</g>
<path d="M511.09 134.34C492.49 136.94 479 130.89 480.07 149.64L483.83 215.23H634.86L641.1 118.29L511.09 134.34Z" fill="#175047"/>
<mask id="mask16_2470_84463" style="mask-type:luminance" maskUnits="userSpaceOnUse" x="480" y="118" width="162" height="98">
<path d="M511.09 134.34C492.49 136.94 479 130.89 480.07 149.64L483.83 215.23H634.86L641.1 118.29L511.09 134.34Z" fill="white"/>
</mask>
<g mask="url(#mask16_2470_84463)">
<path d="M470.89 189.19H639.93L635.78 200.82L482.49 205.71L470.89 189.19Z" fill="url(#paint29_linear_2470_84463)" fill-opacity="0.6"/>
</g>
<path d="M493.03 206.27C489.63 201.1 482.88 199.32 477.38 202.16C472.12 204.87 469 210.46 469.45 216.36C470.28 227.27 473.66 237.83 479.32 247.19L483.68 254.41C486.31 258.77 491.87 260.34 496.4 258.01C499.16 256.59 500.8 253.65 500.57 250.55L498.39 221.97C497.96 216.37 496.12 210.97 493.04 206.27H493.03Z" fill="#FF8F71"/>
<mask id="mask17_2470_84463" style="mask-type:luminance" maskUnits="userSpaceOnUse" x="469" y="200" width="32" height="60">
<path d="M493.03 206.27C489.63 201.1 482.88 199.32 477.38 202.16C472.12 204.87 469 210.46 469.45 216.36C470.28 227.27 473.66 237.83 479.32 247.19L483.68 254.41C486.31 258.77 491.87 260.34 496.4 258.01C499.16 256.59 500.8 253.65 500.57 250.55L498.39 221.97C497.96 216.37 496.12 210.97 493.04 206.27H493.03Z" fill="white"/>
</mask>
<g mask="url(#mask17_2470_84463)">
<path d="M485.28 192C462.58 192 447.47 249.65 485 258.77C522.53 267.89 493.03 206.27 493.03 206.27L485.28 192Z" fill="url(#paint30_linear_2470_84463)" fill-opacity="0.6"/>
<path opacity="0.5" d="M488.07 193.9C465.37 193.9 492.4 251.55 492.4 251.55L490.09 221.47L488.08 193.9H488.07Z" fill="url(#paint31_linear_2470_84463)" fill-opacity="0.6"/>
</g>
<path d="M625.76 206.27C629.16 201.1 635.91 199.32 641.41 202.16C646.67 204.87 649.79 210.46 649.34 216.36C648.51 227.27 645.13 237.83 639.47 247.19L635.11 254.41C632.48 258.77 626.92 260.34 622.39 258.01C619.63 256.59 617.99 253.65 618.22 250.55L620.4 221.97C620.83 216.37 622.67 210.97 625.75 206.27H625.76Z" fill="#FF8F71"/>
<mask id="mask18_2470_84463" style="mask-type:luminance" maskUnits="userSpaceOnUse" x="618" y="200" width="32" height="60">
<path d="M625.76 206.27C629.16 201.1 635.91 199.32 641.41 202.16C646.67 204.87 649.79 210.46 649.34 216.36C648.51 227.27 645.13 237.83 639.47 247.19L635.11 254.41C632.48 258.77 626.92 260.34 622.39 258.01C619.63 256.59 617.99 253.65 618.22 250.55L620.4 221.97C620.83 216.37 622.67 210.97 625.75 206.27H625.76Z" fill="white"/>
</mask>
<g mask="url(#mask18_2470_84463)">
<path d="M633.51 192C656.21 192 671.32 249.65 633.79 258.77C596.26 267.89 625.76 206.27 625.76 206.27L633.51 192Z" fill="url(#paint32_linear_2470_84463)" fill-opacity="0.6"/>
<path opacity="0.5" d="M630.72 193.9C653.42 193.9 626.39 251.55 626.39 251.55L628.7 221.47L630.71 193.9H630.72Z" fill="url(#paint33_linear_2470_84463)" fill-opacity="0.6"/>
</g>
<path d="M581.69 115.75C607.32 124.37 625.69 146.99 628.87 173.84L629.41 178.38C632.61 205.42 631.01 232.82 624.67 259.3L621.42 272.87C616.15 294.91 601.18 313.38 580.71 323.1C567.22 329.51 551.57 329.51 538.08 323.1C517.61 313.38 502.64 294.91 497.37 272.87L494.12 259.3C487.79 232.82 486.18 205.42 489.38 178.38L489.92 173.84C493.1 146.99 511.47 124.37 537.1 115.75C551.56 110.89 567.22 110.89 581.69 115.75Z" fill="#FF8F71"/>
<mask id="mask19_2470_84463" style="mask-type:luminance" maskUnits="userSpaceOnUse" x="487" y="112" width="145" height="216">
<path d="M581.69 115.75C607.32 124.37 625.69 146.99 628.87 173.84L629.41 178.38C632.61 205.42 631.01 232.82 624.67 259.3L621.42 272.87C616.15 294.91 601.18 313.38 580.71 323.1C567.22 329.51 551.57 329.51 538.08 323.1C517.61 313.38 502.64 294.91 497.37 272.87L494.12 259.3C487.79 232.82 486.18 205.42 489.38 178.38L489.92 173.84C493.1 146.99 511.47 124.37 537.1 115.75C551.56 110.89 567.22 110.89 581.69 115.75Z" fill="white"/>
</mask>
<g mask="url(#mask19_2470_84463)">
<path d="M640.359 146.67C640.359 146.67 645.739 172.45 621.219 179.73C576.029 193.16 523.399 162.41 523.399 162.41L640.359 146.66V146.67Z" fill="url(#paint34_linear_2470_84463)" fill-opacity="0.6"/>
<path d="M559.39 346.18C519.16 346.18 510.08 327.28 494.12 259.29C501.21 282.01 523.48 305.99 559.39 305.99C595.3 305.99 617.57 282.01 624.66 259.29C608.7 327.28 599.62 346.18 559.39 346.18Z" fill="url(#paint35_linear_2470_84463)" fill-opacity="0.6"/>
</g>
<path d="M612.58 189.19C610.85 190.71 609.19 191.65 607.54 192.47C605.9 193.26 604.28 193.8 602.69 194.21C599.5 194.98 596.39 195.14 593.35 194.75C590.3 194.37 587.33 193.45 584.42 191.94C582.97 191.16 581.54 190.24 580.13 189.08C578.73 187.89 577.35 186.58 576.03 184.7L612.58 189.2V189.19Z" fill="url(#paint36_linear_2470_84463)"/>
<path d="M544.26 184.69C542.95 186.58 541.56 187.9 540.16 189.09C538.76 190.25 537.32 191.17 535.87 191.96C532.96 193.48 529.98 194.39 526.94 194.75C523.89 195.12 520.78 194.95 517.59 194.19C515.99 193.78 514.38 193.24 512.74 192.45C511.09 191.64 509.43 190.7 507.7 189.19L544.25 184.69H544.26Z" fill="url(#paint37_linear_2470_84463)"/>
<g opacity="0.8">
<path d="M514.5 217.91C516.44 218.85 518.56 219.34 520.68 219.68C522.81 220.01 524.96 220.16 527.11 220.16C529.26 220.16 531.41 220.01 533.54 219.68C535.66 219.33 537.78 218.85 539.72 217.91C539.63 218.33 539.47 218.66 539.31 219.03C539.14 219.36 538.95 219.68 538.75 220C538.36 220.64 537.9 221.17 537.41 221.68C536.44 222.67 535.35 223.43 534.21 224.05C531.93 225.24 529.48 225.79 527.09 225.78C524.7 225.78 522.25 225.22 519.97 224.04C518.84 223.42 517.75 222.67 516.78 221.68C516.3 221.17 515.84 220.65 515.44 220.01C515.24 219.69 515.05 219.37 514.88 219.04C514.73 218.67 514.56 218.34 514.47 217.92H514.5V217.91Z" fill="url(#paint38_linear_2470_84463)" fill-opacity="0.6"/>
</g>
<g opacity="0.8">
<path d="M580.57 217.91C582.51 218.85 584.63 219.34 586.75 219.68C588.88 220.01 591.03 220.16 593.18 220.16C595.33 220.16 597.48 220.01 599.61 219.68C601.73 219.33 603.85 218.85 605.79 217.91C605.7 218.33 605.54 218.66 605.38 219.03C605.21 219.36 605.02 219.68 604.82 220C604.43 220.64 603.97 221.17 603.48 221.68C602.51 222.67 601.42 223.43 600.28 224.05C598 225.24 595.55 225.79 593.16 225.78C590.77 225.78 588.32 225.22 586.04 224.04C584.91 223.42 583.82 222.67 582.85 221.68C582.37 221.17 581.91 220.65 581.51 220.01C581.31 219.69 581.12 219.37 580.95 219.04C580.8 218.67 580.63 218.34 580.54 217.92H580.57V217.91Z" fill="url(#paint39_linear_2470_84463)" fill-opacity="0.6"/>
</g>
<g opacity="0.8">
<path d="M526.03 263.6L555.08 278.11C543.69 280.6 530.92 274.17 526.03 263.6Z" fill="black" fill-opacity="0.6"/>
</g>
<path d="M472.3 137.97C461.61 135.58 455.41 125.17 458.52 114.64L472.3 137.97Z" fill="#175047"/>
<path d="M475.51 126.31C467.51 117.14 467.46 102.61 475.51 93.4502V126.31Z" fill="#175047"/>
<path d="M487.99 215.23C492.06 219.27 495.83 206.1 496.99 184.69C498.15 163.28 510.53 178.37 514.49 153.42L484.88 149.36L485.32 186.94L487.99 215.23Z" fill="#175047"/>
<mask id="mask20_2470_84463" style="mask-type:luminance" maskUnits="userSpaceOnUse" x="484" y="149" width="31" height="67">
<path d="M487.99 215.23C492.06 219.27 495.83 206.1 496.99 184.69C498.15 163.28 510.53 178.37 514.49 153.42L484.88 149.36L485.32 186.94L487.99 215.23Z" fill="white"/>
</mask>
<g mask="url(#mask20_2470_84463)">
<path d="M521.36 151.39L514.5 166.76L495.53 153.53L521.36 151.39Z" fill="url(#paint40_linear_2470_84463)" fill-opacity="0.6"/>
</g>
<path d="M630.8 215.23C626.73 219.27 622.96 206.1 621.8 184.69C620.64 163.28 608.26 178.37 604.3 153.42L639.15 148.61L637.16 179.54L635.2 183.47C634.06 185.77 633.35 188.25 633.11 190.81L630.81 215.24H630.8V215.23Z" fill="#175047"/>
<mask id="mask21_2470_84463" style="mask-type:luminance" maskUnits="userSpaceOnUse" x="604" y="148" width="36" height="68">
<path d="M630.8 215.23C626.73 219.27 622.96 206.1 621.8 184.69C620.64 163.28 608.26 178.37 604.3 153.42L639.15 148.61L637.16 179.54L635.2 183.47C634.06 185.77 633.35 188.25 633.11 190.81L630.81 215.24H630.8V215.23Z" fill="white"/>
</mask>
<g mask="url(#mask21_2470_84463)">
<path d="M640.36 146.67C640.36 146.67 645.74 177.4 621.22 184.69C576.03 198.12 523.4 162.42 523.4 162.42L640.36 146.67Z" fill="url(#paint41_linear_2470_84463)" fill-opacity="0.6"/>
</g>
<path d="M610.73 69.4103L600.5 66.7603C587.69 63.4403 574.65 71.3103 571.63 84.2003L570.62 88.5203L549.25 82.4803C538.25 79.3703 526.89 86.0703 524.28 97.1903C523.21 101.75 519.75 105.37 515.24 106.64L500.26 110.86C492.72 112.99 487.59 119.96 487.79 127.79L488.25 145.37C488.34 148.9 490.66 151.98 494.02 153.05L525.28 163.02C545.67 169.52 566.81 173.35 588.19 174.39C616.2 175.76 641.14 156.81 647.33 129.46C653.35 102.85 637.15 76.2603 610.74 69.4103H610.73Z" fill="#175047"/>
<mask id="mask22_2470_84463" style="mask-type:luminance" maskUnits="userSpaceOnUse" x="487" y="66" width="162" height="109">
<path d="M610.73 69.4103L600.5 66.7603C587.69 63.4403 574.65 71.3103 571.63 84.2003L570.62 88.5203L549.25 82.4803C538.25 79.3703 526.89 86.0703 524.28 97.1903C523.21 101.75 519.75 105.37 515.24 106.64L500.26 110.86C492.72 112.99 487.59 119.96 487.79 127.79L488.25 145.37C488.34 148.9 490.66 151.98 494.02 153.05L525.28 163.02C545.67 169.52 566.81 173.35 588.19 174.39C616.2 175.76 641.14 156.81 647.33 129.46C653.35 102.85 637.15 76.2603 610.74 69.4103H610.73Z" fill="white"/>
</mask>
<g mask="url(#mask22_2470_84463)">
<path d="M631 80.0202C655.68 102.22 647.45 144.21 612.57 136.62C565.16 126.31 568.6 178.23 507.7 157.42C446.8 136.6 552.11 212.75 552.11 212.75L780.13 338.94L648.57 78.7202L631 80.0102V80.0202Z" fill="url(#paint42_linear_2470_84463)" fill-opacity="0.6"/>
<path d="M571.26 74.5203L579.54 83.3303C582.31 86.2803 579.44 91.0103 575.54 89.9103L570.62 88.5203L571.26 74.5203Z" fill="url(#paint43_linear_2470_84463)" fill-opacity="0.6"/>
<path d="M516.58 91.4902L532.56 95.5102C535.76 96.3202 535.82 100.84 532.65 101.73L515.24 106.64L516.58 91.4902Z" fill="url(#paint44_linear_2470_84463)" fill-opacity="0.6"/>
</g>
<path d="M472.97 299.75C466.55 313.25 469.04 342.56 479.42 353.32C489.05 363.29 501.74 370.16 515.86 372.56C544.67 377.47 574.11 377.47 602.93 372.56C617.05 370.15 629.74 363.29 639.37 353.32C649.76 342.56 652.25 313.26 645.82 299.75L636.83 280.85C636.83 280.85 608.55 300.11 559.4 300.11C510.25 300.11 481.97 280.85 481.97 280.85L472.98 299.75H472.97Z" fill="#208C6E"/>
<mask id="mask23_2470_84463" style="mask-type:luminance" maskUnits="userSpaceOnUse" x="469" y="280" width="181" height="97">
<path d="M472.97 299.75C466.55 313.25 469.04 342.56 479.42 353.32C489.05 363.29 501.74 370.16 515.86 372.56C544.67 377.47 574.11 377.47 602.93 372.56C617.05 370.15 629.74 363.29 639.37 353.32C649.76 342.56 652.25 313.26 645.82 299.75L636.83 280.85C636.83 280.85 608.55 300.11 559.4 300.11C510.25 300.11 481.97 280.85 481.97 280.85L472.98 299.75H472.97Z" fill="white"/>
</mask>
<g mask="url(#mask23_2470_84463)">
<path d="M507.71 370.63C527.75 374.3 554.89 362.74 583.47 361.06C612.05 359.38 622.03 371.99 639.37 353.31C658.79 332.39 631.01 379.13 631.01 379.13L519.17 388.38L507.72 370.63H507.71Z" fill="url(#paint45_linear_2470_84463)" fill-opacity="0.6"/>
<g opacity="0.8">
<path d="M565.36 297.59H553.42L553.47 298.57L553.8 305.47L554.17 313.35L554.54 321.23L554.91 329.11L554.97 330.34L555.29 336.99L555.66 344.87L556.03 352.75L556.4 360.63L556.77 368.51L557.14 376.39L557.51 384.27L557.88 392.15L558.25 400.03L558.62 407.91L558.99 415.79L559.32 422.69L559.36 423.52C559.38 423.24 559.39 422.97 559.41 422.69L559.74 415.79L560.11 407.91L560.48 400.03L560.85 392.15L561.22 384.27L561.59 376.39L561.96 368.51L562.33 360.63L562.7 352.75L563.07 344.87L563.44 336.99L563.76 330.34L563.82 329.11L564.19 321.23L564.56 313.35L564.93 305.47L565.26 298.57L565.31 297.59H565.36Z" fill="url(#paint46_linear_2470_84463)" fill-opacity="0.6"/>
</g>
</g>
<path d="M548.53 805.12C548.53 805.12 546.85 801.76 554.83 801.13C560.23 800.7 562.94 798.12 565.74 796.21L582.86 784.53C593.23 777.46 606.57 776.4 617.92 781.76L692.89 817.15C701.49 821.21 703.86 832.35 697.65 839.56C691.72 846.45 683.01 850.3 673.93 850.05L463.62 844.28L548.53 805.12Z" fill="#208C6E"/>
<mask id="mask24_2470_84463" style="mask-type:luminance" maskUnits="userSpaceOnUse" x="463" y="778" width="239" height="73">
<path d="M548.53 805.12C548.53 805.12 546.85 801.76 554.83 801.13C560.23 800.7 562.94 798.12 565.74 796.21L582.86 784.53C593.23 777.46 606.57 776.4 617.92 781.76L692.89 817.15C701.49 821.21 703.86 832.35 697.65 839.56C691.72 846.45 683.01 850.3 673.93 850.05L463.62 844.28L548.53 805.12Z" fill="white"/>
</mask>
<g mask="url(#mask24_2470_84463)">
<path d="M577.76 788.01C606.88 805.61 631.84 796.13 652.84 811.22C673.84 826.31 718.45 844.28 718.45 844.28L674.23 787.12L599.7 764.56L577.77 788.01H577.76Z" fill="#123633"/>
<path d="M549.58 808.41C573.12 810.79 648.77 777.59 685.34 800.7L644.54 836.52L550 834.94L549.58 808.4V808.41Z" fill="url(#paint47_linear_2470_84463)" fill-opacity="0.6"/>
</g>
<path d="M548.53 805.12L485.72 798.771L463.62 844.281L567.37 833.07C567.37 833.07 585.11 808.35 548.53 805.12Z" fill="#FF8F71"/>
<mask id="mask25_2470_84463" style="mask-type:luminance" maskUnits="userSpaceOnUse" x="463" y="798" width="109" height="47">
<path d="M548.53 805.12L485.72 798.771L463.62 844.281L567.37 833.07C567.37 833.07 585.11 808.35 548.53 805.12Z" fill="white"/>
</mask>
<g mask="url(#mask25_2470_84463)">
<path d="M598.07 790.621H518.77V852.431H598.07V790.621Z" fill="url(#paint48_linear_2470_84463)" fill-opacity="0.6"/>
</g>
<path d="M284.78 758.68L316.75 767.08C336.94 772.39 357.7 775.25 378.58 775.6L386.65 775.74C410.33 776.14 433.94 778.41 457.26 782.54L484.55 787.37C494.98 789.22 504.57 794.3 511.95 801.9L520.55 810.75C531.35 821.86 533.95 838.58 527.04 852.45L526.68 853.18C521.64 863.31 511.68 870.07 500.4 871.01L322.36 885.94C279.06 889.57 235.58 881.56 196.42 862.72L186.25 857.83C168.29 849.2 158.46 829.51 162.33 809.96L166.32 789.85L284.79 758.67H284.78V758.68Z" fill="#175047"/>
<mask id="mask26_2470_84463" style="mask-type:luminance" maskUnits="userSpaceOnUse" x="161" y="758" width="370" height="129">
<path d="M284.78 758.68L316.75 767.08C336.94 772.39 357.7 775.25 378.58 775.6L386.65 775.74C410.33 776.14 433.94 778.41 457.26 782.54L484.55 787.37C494.98 789.22 504.57 794.3 511.95 801.9L520.55 810.75C531.35 821.86 533.95 838.58 527.04 852.45L526.68 853.18C521.64 863.31 511.68 870.07 500.4 871.01L322.36 885.94C279.06 889.57 235.58 881.56 196.42 862.72L186.25 857.83C168.29 849.2 158.46 829.51 162.33 809.96L166.32 789.85L284.79 758.67H284.78V758.68Z" fill="white"/>
</mask>
<g mask="url(#mask26_2470_84463)">
<path d="M164.54 798.77C162.32 809.96 177.6 855.47 245.69 855.62C313.78 855.77 412.13 791.16 499.56 814.22C586.99 837.28 379.35 923.86 379.35 923.86L138.86 891.08L149.28 816.26L164.54 798.77Z" fill="url(#paint49_linear_2470_84463)" fill-opacity="0.6"/>
</g>
<path d="M504.32 826.83C517.14 824.04 516.18 870.55 529.29 869.95L660.68 863.9L641.07 808.42L576.12 821.67C570.42 822.83 564.63 822.27 559.4 820.21C560.3 812.27 532.56 818.69 529.41 815.14L504.33 826.83H504.32Z" fill="#FF8F71"/>
<mask id="mask27_2470_84463" style="mask-type:luminance" maskUnits="userSpaceOnUse" x="504" y="808" width="157" height="62">
<path d="M504.32 826.83C517.14 824.04 516.18 870.55 529.29 869.95L660.68 863.9L641.07 808.42L576.12 821.67C570.42 822.83 564.63 822.27 559.4 820.21C560.3 812.27 532.56 818.69 529.41 815.14L504.33 826.83H504.32Z" fill="white"/>
</mask>
<g mask="url(#mask27_2470_84463)">
<path d="M513.29 839.26C535.84 842.62 582.37 826.45 636.58 825.51L620.89 881.27L526.18 883.51L513.29 839.26Z" fill="url(#paint50_linear_2470_84463)" fill-opacity="0.6"/>
<path d="M609.28 824.56C617.53 843.72 608.49 866.3 586.12 867.32C563.75 868.35 578.86 879.02 578.86 879.02L632.1 874.54L627.08 825.82L609.27 824.56H609.28Z" fill="url(#paint51_linear_2470_84463)" fill-opacity="0.6"/>
</g>
<path d="M377.19 867.53L379.81 870.06C393.7 883.44 413.36 889.01 432.21 884.91L473.99 875.8C483.43 873.74 492.99 872.27 502.6 871.4C508.81 870.84 515.07 871.02 521.24 871.98C526.48 872.79 531.53 869.6 533.05 864.52C535.26 857.12 533.32 852.64 530.1 849.92C521.88 842.97 522.93 830.02 532.51 825.11C543.05 819.7 555.61 818.35 559.39 820.21C560.29 812.27 551.23 815.85 548.08 812.29L535.66 798.25C530.66 792.59 522.61 790.73 515.63 793.62L466.97 813.77C459.37 816.92 451.63 819.71 443.77 822.13L430.24 826.3C412.09 831.9 394.8 839.97 378.86 850.29C372.88 854.16 372.07 862.58 377.2 867.52L377.19 867.53Z" fill="#208C6E"/>
<mask id="mask28_2470_84463" style="mask-type:luminance" maskUnits="userSpaceOnUse" x="373" y="792" width="187" height="95">
<path d="M377.19 867.53L379.81 870.06C393.7 883.44 413.36 889.01 432.21 884.91L473.99 875.8C483.43 873.74 492.99 872.27 502.6 871.4C508.81 870.84 515.07 871.02 521.24 871.98C526.48 872.79 531.53 869.6 533.05 864.52C535.26 857.12 533.32 852.64 530.1 849.92C521.88 842.97 522.93 830.02 532.51 825.11C543.05 819.7 555.61 818.35 559.39 820.21C560.29 812.27 551.23 815.85 548.08 812.29L535.66 798.25C530.66 792.59 522.61 790.73 515.63 793.62L466.97 813.77C459.37 816.92 451.63 819.71 443.77 822.13L430.24 826.3C412.09 831.9 394.8 839.97 378.86 850.29C372.88 854.16 372.07 862.58 377.2 867.52L377.19 867.53Z" fill="white"/>
</mask>
<g mask="url(#mask28_2470_84463)">
<path d="M379.82 870.06C373.81 863.33 410.46 842.04 455.57 831.95C501.93 821.59 517.65 820.62 547.2 806.45C571.86 794.63 521.7 778.37 521.7 778.37L348.53 842.04L363.1 875.11L379.82 870.07V870.06Z" fill="#123633"/>
<path d="M373.81 844.28C373.81 844.28 387.76 875.1 430.63 864.17C473.5 853.24 495.56 820.69 538.56 822.73C581.56 824.77 538.56 907.89 538.56 907.89L357.49 894.98L363.37 850.07L373.8 844.29H373.81V844.28Z" fill="url(#paint52_linear_2470_84463)" fill-opacity="0.6"/>
</g>
<path d="M834.01 758.68L824.34 766.02C813.71 774.09 801.03 779.03 787.74 780.29L776 781.4C745.26 784.3 714.76 789.36 684.72 796.54L599.69 816.86C617.46 812.61 621.87 894 600.71 894.98L796.42 885.94C863.47 882.84 883.2 881.56 922.36 862.72L932.53 857.83C950.49 849.2 960.32 829.51 956.45 809.96L952.46 789.85L833.99 758.67H834.01V758.68Z" fill="#175047"/>
<mask id="mask29_2470_84463" style="mask-type:luminance" maskUnits="userSpaceOnUse" x="599" y="758" width="359" height="137">
<path d="M834.01 758.68L824.34 766.02C813.71 774.09 801.03 779.03 787.74 780.29L776 781.4C745.26 784.3 714.76 789.36 684.72 796.54L599.69 816.86C617.46 812.61 621.87 894 600.71 894.98L796.42 885.94C863.47 882.84 883.2 881.56 922.36 862.72L932.53 857.83C950.49 849.2 960.32 829.51 956.45 809.96L952.46 789.85L833.99 758.67H834.01V758.68Z" fill="white"/>
</mask>
<g mask="url(#mask29_2470_84463)">
<path d="M614.86 857.04C650.59 855.61 634.98 884.99 688.7 863.89C793.5 822.73 976.59 875.75 952.47 789.85C928.35 703.95 979.92 816.25 979.92 816.25L953.32 886.78L591.46 911.24L596.23 855.61L614.86 857.04Z" fill="url(#paint53_linear_2470_84463)" fill-opacity="0.6"/>
</g>
<path opacity="0.8" d="M570.69 203.91L566.55 220.2C564.63 227.76 566.1 235.64 570.47 241.1L575.81 247.78C578.4 251.02 578.9 255.92 577.08 260.16C575.56 263.7 572.64 266.24 569.33 266.9L572.29 268.09C577.2 270.07 582.92 268.62 586.07 264.37C586.1 264.33 586.12 264.3 586.15 264.26C590.3 258.53 589.99 250.38 585.46 245.87L573.71 234.18C570.89 231.37 569.4 227.16 569.65 222.68L570.7 203.93V203.91H570.69Z" fill="url(#paint54_linear_2470_84463)" fill-opacity="0.6"/>
<g opacity="0.8">
<path d="M955.47 1004.17C889.46 1010.84 823.45 1014.16 757.43 1016.71C691.42 1019.06 625.41 1020.15 559.39 1020.17C493.38 1020.2 427.36 1019.1 361.35 1016.76C295.34 1014.23 229.32 1010.88 163.31 1004.18H955.47V1004.17Z" fill="url(#paint55_linear_2470_84463)" fill-opacity="0.6"/>
</g>
<defs>
<linearGradient id="paint0_linear_2470_84463" x1="958.28" y1="712.01" x2="916.28" y2="712.01" gradientUnits="userSpaceOnUse">
<stop stop-opacity="0"/>
<stop offset="1"/>
</linearGradient>
<linearGradient id="paint1_linear_2470_84463" x1="921.43" y1="697.04" x2="904.22" y2="697.04" gradientUnits="userSpaceOnUse">
<stop stop-opacity="0"/>
<stop offset="1"/>
</linearGradient>
<linearGradient id="paint2_linear_2470_84463" x1="997.789" y1="724.07" x2="917.229" y2="724.07" gradientUnits="userSpaceOnUse">
<stop/>
<stop offset="1" stop-opacity="0"/>
</linearGradient>
<linearGradient id="paint3_linear_2470_84463" x1="992.07" y1="733.1" x2="911.51" y2="733.1" gradientUnits="userSpaceOnUse">
<stop/>
<stop offset="1" stop-opacity="0"/>
</linearGradient>
<linearGradient id="paint4_linear_2470_84463" x1="832.669" y1="734.38" x2="971.639" y2="734.38" gradientUnits="userSpaceOnUse">
<stop/>
<stop offset="0.09" stop-opacity="0.84"/>
<stop offset="0.26" stop-opacity="0.59"/>
<stop offset="0.42" stop-opacity="0.38"/>
<stop offset="0.58" stop-opacity="0.21"/>
<stop offset="0.73" stop-opacity="0.09"/>
<stop offset="0.87" stop-opacity="0.02"/>
<stop offset="1" stop-opacity="0"/>
</linearGradient>
<linearGradient id="paint5_linear_2470_84463" x1="758.65" y1="603.03" x2="706.78" y2="603.03" gradientUnits="userSpaceOnUse">
<stop/>
<stop offset="0.09" stop-opacity="0.84"/>
<stop offset="0.26" stop-opacity="0.59"/>
<stop offset="0.42" stop-opacity="0.38"/>
<stop offset="0.58" stop-opacity="0.21"/>
<stop offset="0.73" stop-opacity="0.09"/>
<stop offset="0.87" stop-opacity="0.02"/>
<stop offset="1" stop-opacity="0"/>
</linearGradient>
<linearGradient id="paint6_linear_2470_84463" x1="677.49" y1="665.21" x2="890.05" y2="665.21" gradientUnits="userSpaceOnUse">
<stop/>
<stop offset="0.09" stop-opacity="0.84"/>
<stop offset="0.26" stop-opacity="0.59"/>
<stop offset="0.42" stop-opacity="0.38"/>
<stop offset="0.58" stop-opacity="0.21"/>
<stop offset="0.73" stop-opacity="0.09"/>
<stop offset="0.87" stop-opacity="0.02"/>
<stop offset="1" stop-opacity="0"/>
</linearGradient>
<linearGradient id="paint7_linear_2470_84463" x1="696.62" y1="677.55" x2="696.62" y2="348.87" gradientUnits="userSpaceOnUse">
<stop stop-opacity="0"/>
<stop offset="0.13" stop-opacity="0.02"/>
<stop offset="0.27" stop-opacity="0.09"/>
<stop offset="0.42" stop-opacity="0.21"/>
<stop offset="0.58" stop-opacity="0.38"/>
<stop offset="0.74" stop-opacity="0.59"/>
<stop offset="0.91" stop-opacity="0.84"/>
<stop offset="1"/>
</linearGradient>
<linearGradient id="paint8_linear_2470_84463" x1="160.51" y1="1020" x2="202.51" y2="1020" gradientUnits="userSpaceOnUse">
<stop stop-opacity="0"/>
<stop offset="1"/>
</linearGradient>
<linearGradient id="paint9_linear_2470_84463" x1="197.36" y1="697.04" x2="214.56" y2="697.04" gradientUnits="userSpaceOnUse">
<stop stop-opacity="0"/>
<stop offset="1"/>
</linearGradient>
<linearGradient id="paint10_linear_2470_84463" x1="121" y1="1020" x2="201.56" y2="1020" gradientUnits="userSpaceOnUse">
<stop/>
<stop offset="1" stop-opacity="0"/>
</linearGradient>
<linearGradient id="paint11_linear_2470_84463" x1="126.709" y1="733.1" x2="207.269" y2="733.1" gradientUnits="userSpaceOnUse">
<stop/>
<stop offset="1" stop-opacity="0"/>
</linearGradient>
<linearGradient id="paint12_linear_2470_84463" x1="218.57" y1="721.05" x2="286.04" y2="721.05" gradientUnits="userSpaceOnUse">
<stop stop-opacity="0"/>
<stop offset="0.13" stop-opacity="0.02"/>
<stop offset="0.27" stop-opacity="0.09"/>
<stop offset="0.42" stop-opacity="0.21"/>
<stop offset="0.58" stop-opacity="0.38"/>
<stop offset="0.74" stop-opacity="0.59"/>
<stop offset="0.91" stop-opacity="0.84"/>
<stop offset="1"/>
</linearGradient>
<linearGradient id="paint13_linear_2470_84463" x1="366.27" y1="617.29" x2="366.27" y2="500.14" gradientUnits="userSpaceOnUse">
<stop/>
<stop offset="0.09" stop-opacity="0.84"/>
<stop offset="0.26" stop-opacity="0.59"/>
<stop offset="0.42" stop-opacity="0.38"/>
<stop offset="0.58" stop-opacity="0.21"/>
<stop offset="0.73" stop-opacity="0.09"/>
<stop offset="0.87" stop-opacity="0.02"/>
<stop offset="1" stop-opacity="0"/>
</linearGradient>
<linearGradient id="paint14_linear_2470_84463" x1="289.9" y1="689.03" x2="458.5" y2="689.03" gradientUnits="userSpaceOnUse">
<stop stop-opacity="0"/>
<stop offset="0.13" stop-opacity="0.02"/>
<stop offset="0.27" stop-opacity="0.09"/>
<stop offset="0.42" stop-opacity="0.21"/>
<stop offset="0.58" stop-opacity="0.38"/>
<stop offset="0.74" stop-opacity="0.59"/>
<stop offset="0.91" stop-opacity="0.84"/>
<stop offset="1"/>
</linearGradient>
<linearGradient id="paint15_linear_2470_84463" x1="264" y1="792.5" x2="857.4" y2="792.5" gradientUnits="userSpaceOnUse">
<stop stop-opacity="0"/>
<stop offset="0.13" stop-opacity="0.02"/>
<stop offset="0.27" stop-opacity="0.09"/>
<stop offset="0.42" stop-opacity="0.21"/>
<stop offset="0.58" stop-opacity="0.38"/>
<stop offset="0.74" stop-opacity="0.59"/>
<stop offset="0.91" stop-opacity="0.84"/>
<stop offset="1"/>
</linearGradient>
<linearGradient id="paint16_linear_2470_84463" x1="384.52" y1="693.79" x2="901.77" y2="693.79" gradientUnits="userSpaceOnUse">
<stop stop-opacity="0"/>
<stop offset="0.13" stop-opacity="0.02"/>
<stop offset="0.27" stop-opacity="0.09"/>
<stop offset="0.42" stop-opacity="0.21"/>
<stop offset="0.58" stop-opacity="0.38"/>
<stop offset="0.74" stop-opacity="0.59"/>
<stop offset="0.91" stop-opacity="0.84"/>
<stop offset="1"/>
</linearGradient>
<linearGradient id="paint17_linear_2470_84463" x1="208.89" y1="706.76" x2="478.55" y2="706.76" gradientUnits="userSpaceOnUse">
<stop stop-opacity="0"/>
<stop offset="0.13" stop-opacity="0.02"/>
<stop offset="0.27" stop-opacity="0.09"/>
<stop offset="0.42" stop-opacity="0.21"/>
<stop offset="0.58" stop-opacity="0.38"/>
<stop offset="0.74" stop-opacity="0.59"/>
<stop offset="0.91" stop-opacity="0.84"/>
<stop offset="1"/>
</linearGradient>
<linearGradient id="paint18_linear_2470_84463" x1="423.3" y1="607.16" x2="751.32" y2="607.16" gradientUnits="userSpaceOnUse">
<stop stop-opacity="0"/>
<stop offset="0.28" stop-opacity="0.36"/>
<stop offset="0.52" stop-opacity="0.63"/>
<stop offset="0.73" stop-opacity="0.83"/>
<stop offset="0.9" stop-opacity="0.96"/>
<stop offset="1"/>
</linearGradient>
<linearGradient id="paint19_linear_2470_84463" x1="559.4" y1="749.54" x2="559.4" y2="623.46" gradientUnits="userSpaceOnUse">
<stop offset="0.27" stop-opacity="0.2"/>
<stop offset="0.38" stop-opacity="0.38"/>
<stop offset="0.59" stop-opacity="0.68"/>
<stop offset="0.69" stop-opacity="0.8"/>
<stop offset="0.78" stop-opacity="0.65"/>
<stop offset="0.97" stop-opacity="0.27"/>
<stop offset="1" stop-opacity="0.2"/>
</linearGradient>
<linearGradient id="paint20_linear_2470_84463" x1="423.48" y1="717.41" x2="723.97" y2="717.41" gradientUnits="userSpaceOnUse">
<stop stop-opacity="0"/>
<stop offset="0.28" stop-opacity="0.36"/>
<stop offset="0.52" stop-opacity="0.63"/>
<stop offset="0.73" stop-opacity="0.83"/>
<stop offset="0.9" stop-opacity="0.96"/>
<stop offset="1"/>
</linearGradient>
<linearGradient id="paint21_linear_2470_84463" x1="406.249" y1="542.73" x2="734.269" y2="542.73" gradientUnits="userSpaceOnUse">
<stop stop-opacity="0"/>
<stop offset="0.28" stop-opacity="0.36"/>
<stop offset="0.52" stop-opacity="0.63"/>
<stop offset="0.73" stop-opacity="0.83"/>
<stop offset="0.9" stop-opacity="0.96"/>
<stop offset="1"/>
</linearGradient>
<linearGradient id="paint22_linear_2470_84463" x1="559.389" y1="681.15" x2="559.389" y2="555.07" gradientUnits="userSpaceOnUse">
<stop offset="0.27" stop-opacity="0.2"/>
<stop offset="0.38" stop-opacity="0.38"/>
<stop offset="0.59" stop-opacity="0.68"/>
<stop offset="0.69" stop-opacity="0.8"/>
<stop offset="0.78" stop-opacity="0.65"/>
<stop offset="0.97" stop-opacity="0.27"/>
<stop offset="1" stop-opacity="0.2"/>
</linearGradient>
<linearGradient id="paint23_linear_2470_84463" x1="387.75" y1="434.67" x2="753.32" y2="434.67" gradientUnits="userSpaceOnUse">
<stop stop-opacity="0"/>
<stop offset="0.28" stop-opacity="0.36"/>
<stop offset="0.52" stop-opacity="0.63"/>
<stop offset="0.73" stop-opacity="0.83"/>
<stop offset="0.9" stop-opacity="0.96"/>
<stop offset="1"/>
</linearGradient>
<linearGradient id="paint24_linear_2470_84463" x1="121" y1="583.75" x2="122" y2="457.67" gradientUnits="userSpaceOnUse">
<stop offset="0.27" stop-opacity="0.2"/>
<stop offset="0.38" stop-opacity="0.38"/>
<stop offset="0.59" stop-opacity="0.68"/>
<stop offset="0.69" stop-opacity="0.8"/>
<stop offset="0.78" stop-opacity="0.65"/>
<stop offset="0.97" stop-opacity="0.27"/>
<stop offset="1" stop-opacity="0.2"/>
</linearGradient>
<linearGradient id="paint25_linear_2470_84463" x1="456.01" y1="321.12" x2="736.49" y2="321.12" gradientUnits="userSpaceOnUse">
<stop stop-opacity="0"/>
<stop offset="0.14" stop-opacity="0.27"/>
<stop offset="0.28" stop-opacity="0.49"/>
<stop offset="0.42" stop-opacity="0.68"/>
<stop offset="0.57" stop-opacity="0.82"/>
<stop offset="0.71" stop-opacity="0.92"/>
<stop offset="0.85" stop-opacity="0.98"/>
<stop offset="1"/>
</linearGradient>
<linearGradient id="paint26_linear_2470_84463" x1="121" y1="499.15" x2="122" y2="373.07" gradientUnits="userSpaceOnUse">
<stop offset="0.27" stop-opacity="0.2"/>
<stop offset="0.38" stop-opacity="0.38"/>
<stop offset="0.59" stop-opacity="0.68"/>
<stop offset="0.69" stop-opacity="0.8"/>
<stop offset="0.78" stop-opacity="0.65"/>
<stop offset="0.97" stop-opacity="0.27"/>
<stop offset="1" stop-opacity="0.2"/>
</linearGradient>
<linearGradient id="paint27_linear_2470_84463" x1="512.71" y1="320.96" x2="605.58" y2="228.09" gradientUnits="userSpaceOnUse">
<stop stop-opacity="0.2"/>
<stop offset="1"/>
</linearGradient>
<linearGradient id="paint28_linear_2470_84463" x1="602.79" y1="262.08" x2="658.7" y2="262.08" gradientUnits="userSpaceOnUse">
<stop stop-opacity="0"/>
<stop offset="1"/>
</linearGradient>
<linearGradient id="paint29_linear_2470_84463" x1="555.41" y1="205.71" x2="555.41" y2="189.19" gradientUnits="userSpaceOnUse">
<stop/>
<stop offset="1" stop-opacity="0"/>
</linearGradient>
<linearGradient id="paint30_linear_2470_84463" x1="483.12" y1="259.69" x2="483.12" y2="192" gradientUnits="userSpaceOnUse">
<stop stop-opacity="0.5"/>
<stop offset="0.57" stop-opacity="0"/>
</linearGradient>
<linearGradient id="paint31_linear_2470_84463" x1="485.7" y1="251.55" x2="485.7" y2="193.9" gradientUnits="userSpaceOnUse">
<stop/>
<stop offset="1" stop-opacity="0"/>
</linearGradient>
<linearGradient id="paint32_linear_2470_84463" x1="635.67" y1="259.69" x2="635.67" y2="192" gradientUnits="userSpaceOnUse">
<stop stop-opacity="0.5"/>
<stop offset="0.57" stop-opacity="0"/>
</linearGradient>
<linearGradient id="paint33_linear_2470_84463" x1="633.09" y1="251.55" x2="633.09" y2="193.9" gradientUnits="userSpaceOnUse">
<stop/>
<stop offset="1" stop-opacity="0"/>
</linearGradient>
<linearGradient id="paint34_linear_2470_84463" x1="619.839" y1="126.14" x2="553.479" y2="192.49" gradientUnits="userSpaceOnUse">
<stop stop-opacity="0"/>
<stop offset="1"/>
</linearGradient>
<linearGradient id="paint35_linear_2470_84463" x1="494.12" y1="302.73" x2="624.66" y2="302.73" gradientUnits="userSpaceOnUse">
<stop stop-opacity="0.2"/>
<stop offset="1" stop-opacity="0.5"/>
</linearGradient>
<linearGradient id="paint36_linear_2470_84463" x1="616.03" y1="193.46" x2="571.65" y2="188.17" gradientUnits="userSpaceOnUse">
<stop stop-color="#123633" stop-opacity="0.2"/>
<stop offset="1" stop-color="#123633"/>
</linearGradient>
<linearGradient id="paint37_linear_2470_84463" x1="547.41" y1="191.5" x2="504.08" y2="186.33" gradientUnits="userSpaceOnUse">
<stop stop-color="#123633" stop-opacity="0.2"/>
<stop offset="1" stop-color="#123633"/>
</linearGradient>
<linearGradient id="paint38_linear_2470_84463" x1="542.66" y1="218.56" x2="512.47" y2="223.23" gradientUnits="userSpaceOnUse">
<stop stop-opacity="0.2"/>
<stop offset="1"/>
</linearGradient>
<linearGradient id="paint39_linear_2470_84463" x1="608.73" y1="218.56" x2="578.54" y2="223.23" gradientUnits="userSpaceOnUse">
<stop stop-opacity="0.2"/>
<stop offset="1"/>
</linearGradient>
<linearGradient id="paint40_linear_2470_84463" x1="508.45" y1="166.76" x2="508.45" y2="151.39" gradientUnits="userSpaceOnUse">
<stop stop-opacity="0"/>
<stop offset="1"/>
</linearGradient>
<linearGradient id="paint41_linear_2470_84463" x1="620.94" y1="127.25" x2="554.59" y2="193.61" gradientUnits="userSpaceOnUse">
<stop stop-opacity="0"/>
<stop offset="1"/>
</linearGradient>
<linearGradient id="paint42_linear_2470_84463" x1="634.44" y1="338.94" x2="634.44" y2="78.7202" gradientUnits="userSpaceOnUse">
<stop/>
<stop offset="1" stop-opacity="0"/>
</linearGradient>
<linearGradient id="paint43_linear_2470_84463" x1="575.63" y1="90.0703" x2="575.63" y2="74.5203" gradientUnits="userSpaceOnUse">
<stop/>
<stop offset="1" stop-opacity="0"/>
</linearGradient>
<linearGradient id="paint44_linear_2470_84463" x1="525.12" y1="106.64" x2="525.12" y2="91.4902" gradientUnits="userSpaceOnUse">
<stop/>
<stop offset="1" stop-opacity="0"/>
</linearGradient>
<linearGradient id="paint45_linear_2470_84463" x1="507.71" y1="368.15" x2="646.26" y2="368.15" gradientUnits="userSpaceOnUse">
<stop stop-opacity="0"/>
<stop offset="1"/>
</linearGradient>
<linearGradient id="paint46_linear_2470_84463" x1="559.39" y1="423.67" x2="559.39" y2="297.59" gradientUnits="userSpaceOnUse">
<stop offset="0.27" stop-opacity="0.2"/>
<stop offset="0.38" stop-opacity="0.38"/>
<stop offset="0.59" stop-opacity="0.68"/>
<stop offset="0.69" stop-opacity="0.8"/>
<stop offset="0.78" stop-opacity="0.65"/>
<stop offset="0.97" stop-opacity="0.27"/>
<stop offset="1" stop-opacity="0.2"/>
</linearGradient>
<linearGradient id="paint47_linear_2470_84463" x1="549.58" y1="814.5" x2="685.34" y2="814.5" gradientUnits="userSpaceOnUse">
<stop stop-opacity="0"/>
<stop offset="0.13" stop-opacity="0.02"/>
<stop offset="0.27" stop-opacity="0.09"/>
<stop offset="0.42" stop-opacity="0.21"/>
<stop offset="0.58" stop-opacity="0.38"/>
<stop offset="0.74" stop-opacity="0.59"/>
<stop offset="0.91" stop-opacity="0.84"/>
<stop offset="1"/>
</linearGradient>
<linearGradient id="paint48_linear_2470_84463" x1="518.77" y1="821.521" x2="598.07" y2="821.521" gradientUnits="userSpaceOnUse">
<stop/>
<stop offset="0.09" stop-opacity="0.84"/>
<stop offset="0.26" stop-opacity="0.59"/>
<stop offset="0.42" stop-opacity="0.38"/>
<stop offset="0.58" stop-opacity="0.21"/>
<stop offset="0.73" stop-opacity="0.09"/>
<stop offset="0.87" stop-opacity="0.02"/>
<stop offset="1" stop-opacity="0"/>
</linearGradient>
<linearGradient id="paint49_linear_2470_84463" x1="138.86" y1="861.31" x2="521.05" y2="861.31" gradientUnits="userSpaceOnUse">
<stop stop-opacity="0"/>
<stop offset="0.13" stop-opacity="0.02"/>
<stop offset="0.27" stop-opacity="0.09"/>
<stop offset="0.42" stop-opacity="0.21"/>
<stop offset="0.58" stop-opacity="0.38"/>
<stop offset="0.74" stop-opacity="0.59"/>
<stop offset="0.91" stop-opacity="0.84"/>
<stop offset="1"/>
</linearGradient>
<linearGradient id="paint50_linear_2470_84463" x1="513.29" y1="854.51" x2="636.58" y2="854.51" gradientUnits="userSpaceOnUse">
<stop/>
<stop offset="0.09" stop-opacity="0.84"/>
<stop offset="0.26" stop-opacity="0.59"/>
<stop offset="0.42" stop-opacity="0.38"/>
<stop offset="0.58" stop-opacity="0.21"/>
<stop offset="0.73" stop-opacity="0.09"/>
<stop offset="0.87" stop-opacity="0.02"/>
<stop offset="1" stop-opacity="0"/>
</linearGradient>
<linearGradient id="paint51_linear_2470_84463" x1="573.87" y1="851.79" x2="632.1" y2="851.79" gradientUnits="userSpaceOnUse">
<stop stop-opacity="0"/>
<stop offset="0.13" stop-opacity="0.02"/>
<stop offset="0.27" stop-opacity="0.09"/>
<stop offset="0.42" stop-opacity="0.21"/>
<stop offset="0.58" stop-opacity="0.38"/>
<stop offset="0.74" stop-opacity="0.59"/>
<stop offset="0.91" stop-opacity="0.84"/>
<stop offset="1"/>
</linearGradient>
<linearGradient id="paint52_linear_2470_84463" x1="357.49" y1="865.26" x2="557.67" y2="865.26" gradientUnits="userSpaceOnUse">
<stop stop-opacity="0"/>
<stop offset="0.13" stop-opacity="0.02"/>
<stop offset="0.27" stop-opacity="0.09"/>
<stop offset="0.42" stop-opacity="0.21"/>
<stop offset="0.58" stop-opacity="0.38"/>
<stop offset="0.74" stop-opacity="0.59"/>
<stop offset="0.91" stop-opacity="0.84"/>
<stop offset="1"/>
</linearGradient>
<linearGradient id="paint53_linear_2470_84463" x1="591.46" y1="834.37" x2="979.92" y2="834.37" gradientUnits="userSpaceOnUse">
<stop/>
<stop offset="0.09" stop-opacity="0.84"/>
<stop offset="0.26" stop-opacity="0.59"/>
<stop offset="0.42" stop-opacity="0.38"/>
<stop offset="0.58" stop-opacity="0.21"/>
<stop offset="0.73" stop-opacity="0.09"/>
<stop offset="0.87" stop-opacity="0.02"/>
<stop offset="1" stop-opacity="0"/>
</linearGradient>
<linearGradient id="paint54_linear_2470_84463" x1="570.427" y1="267.732" x2="585.679" y2="207.72" gradientUnits="userSpaceOnUse">
<stop/>
<stop offset="0.08" stop-opacity="0.86"/>
<stop offset="0.25" stop-opacity="0.6"/>
<stop offset="0.42" stop-opacity="0.39"/>
<stop offset="0.58" stop-opacity="0.22"/>
<stop offset="0.73" stop-opacity="0.1"/>
<stop offset="0.87" stop-opacity="0.02"/>
<stop offset="1" stop-opacity="0"/>
</linearGradient>
<linearGradient id="paint55_linear_2470_84463" x1="155.32" y1="1012.17" x2="963.47" y2="1012.17" gradientUnits="userSpaceOnUse">
<stop stop-opacity="0"/>
<stop offset="1"/>
</linearGradient>
</defs>
</svg>
