<svg width="1080" height="1080" viewBox="0 0 1080 1080" fill="none" xmlns="http://www.w3.org/2000/svg">
<path d="M828.248 548.362L876.838 353.092C878.118 347.952 883.368 344.872 888.478 346.252C896.238 348.362 901.528 355.542 901.228 363.572L895.628 516.012L967.148 351.592C968.848 347.692 973.628 346.232 977.208 348.532C984.258 353.042 987.778 361.452 986.038 369.642L948.938 544.482L1012.1 574.692L1002.05 660.112C997.888 695.452 981.678 728.282 956.128 753.062L903.618 804.012L768.358 764.192L828.238 548.352L828.248 548.362Z" fill="#FF8F71"/>
<mask id="mask0_2470_84407" style="mask-type:luminance" maskUnits="userSpaceOnUse" x="768" y="345" width="245" height="460">
<path d="M828.248 548.362L876.838 353.092C878.118 347.952 883.368 344.872 888.478 346.252C896.238 348.362 901.528 355.542 901.228 363.572L895.628 516.012L967.148 351.592C968.848 347.692 973.628 346.232 977.208 348.532C984.258 353.042 987.778 361.452 986.038 369.642L948.938 544.482L1012.1 574.692L1002.05 660.112C997.888 695.452 981.678 728.282 956.128 753.062L903.618 804.012L768.358 764.192L828.238 548.352L828.248 548.362Z" fill="white"/>
</mask>
<g mask="url(#mask0_2470_84407)">
<path style="mix-blend-mode:multiply" opacity="0.8" d="M860.898 709.182C936.578 687.982 917.528 648.302 971.768 648.302C1020.17 648.302 1022.08 576.142 1022.08 576.142L897.108 568.742L860.898 709.182Z" fill="url(#paint0_linear_2470_84407)" fill-opacity="0.6"/>
<path style="mix-blend-mode:multiply" opacity="0.5" d="M840.308 587.602C891.308 562.702 883.998 551.302 916.678 532.412C944.488 516.342 952.188 530.622 956.448 512.402C960.708 494.182 971.778 539.872 971.778 539.872L863.648 633.392L840.318 587.592L840.308 587.602Z" fill="url(#paint1_linear_2470_84407)" fill-opacity="0.6"/>
<path style="mix-blend-mode:multiply" opacity="0.8" d="M895.628 516.022L894.748 539.892C925.428 498.492 926.548 449.622 934.108 432.552C941.668 415.492 905.598 460.902 905.598 460.902L895.628 516.022Z" fill="url(#paint2_linear_2470_84407)" fill-opacity="0.6"/>
<path style="mix-blend-mode:multiply" opacity="0.8" d="M802.318 770.602C842.978 778.272 953.668 773.652 982.028 720.012C1010.39 666.362 993.288 756.762 993.288 756.762L928.118 850.712L853.848 825.452L802.308 770.602H802.318Z" fill="url(#paint3_linear_2470_84407)" fill-opacity="0.6"/>
</g>
<path d="M989.658 540.202L972.348 603.922C970.018 612.512 974.918 621.402 983.418 624.022L983.758 624.132C990.508 626.212 997.838 623.972 1002.28 618.472L1007.68 611.792C1015.91 601.602 1020.92 589.202 1022.07 576.152L1023.48 560.172C1024.46 549.122 1015.62 539.662 1004.53 539.892L989.648 540.202H989.658Z" fill="#FF8F71"/>
<mask id="mask1_2470_84407" style="mask-type:luminance" maskUnits="userSpaceOnUse" x="971" y="539" width="53" height="86">
<path d="M989.658 540.202L972.348 603.922C970.018 612.512 974.918 621.402 983.418 624.022L983.758 624.132C990.508 626.212 997.838 623.972 1002.28 618.472L1007.68 611.792C1015.91 601.602 1020.92 589.202 1022.07 576.152L1023.48 560.172C1024.46 549.122 1015.62 539.662 1004.53 539.892L989.648 540.202H989.658Z" fill="white"/>
</mask>
<g mask="url(#mask1_2470_84407)">
<path style="mix-blend-mode:multiply" opacity="0.8" d="M997.668 523.892C997.668 523.892 1006.73 612.972 961.538 634.252L943.918 580.032L997.678 523.902L997.668 523.892Z" fill="url(#paint4_linear_2470_84407)" fill-opacity="0.6"/>
</g>
<path d="M471.948 234.932L440.658 197.562C401.038 150.231 339.948 126.461 278.758 134.561C232.008 140.751 189.538 165.012 160.458 202.132C126.488 245.501 106.938 298.421 104.548 353.451L104.108 363.572L471.948 234.932Z" fill="#123633"/>
<mask id="mask2_2470_84407" style="mask-type:luminance" maskUnits="userSpaceOnUse" x="104" y="133" width="368" height="231">
<path d="M471.948 234.932L440.658 197.562C401.038 150.231 339.948 126.461 278.758 134.561C232.008 140.751 189.538 165.012 160.458 202.132C126.488 245.501 106.938 298.421 104.548 353.451L104.108 363.572L471.948 234.932Z" fill="white"/>
</mask>
<g mask="url(#mask2_2470_84407)">
<path style="mix-blend-mode:multiply" d="M171.788 189.022C87.7982 289.202 315.948 126.702 410.848 211.152L106.168 358.422L70.1182 268.822L171.788 189.022Z" fill="url(#paint5_linear_2470_84407)" fill-opacity="0.6"/>
</g>
<path d="M550.328 496.731C570.738 592.071 639.638 570.661 677.748 755.951L646.318 709.181L655.668 761.001L151.918 876.151C151.918 876.151 137.138 835.781 135.548 803.481C122.788 840.961 133.068 880.461 133.068 880.461L65.0081 896.021L59.7981 872.981C53.8381 846.641 57.4681 819.042 70.0281 795.141C78.0781 779.831 80.3981 762.151 76.5781 745.271L72.1581 725.711C66.1981 699.371 69.8281 671.771 82.3881 647.871L103.788 607.141C118.708 578.751 123.958 546.261 118.738 514.621L102.338 415.131L332.058 283.271L550.328 496.761V496.731Z" fill="#208C6E"/>
<mask id="mask3_2470_84407" style="mask-type:luminance" maskUnits="userSpaceOnUse" x="57" y="283" width="621" height="614">
<path d="M550.328 496.731C570.738 592.071 639.638 570.661 677.748 755.951L646.318 709.181L655.668 761.001L151.918 876.151C151.918 876.151 137.138 835.781 135.548 803.481C122.788 840.961 133.068 880.461 133.068 880.461L65.0081 896.021L59.7981 872.981C53.8381 846.641 57.4681 819.042 70.0281 795.141C78.0781 779.831 80.3981 762.151 76.5781 745.271L72.1581 725.711C66.1981 699.371 69.8281 671.771 82.3881 647.871L103.788 607.141C118.708 578.751 123.958 546.261 118.738 514.621L102.338 415.131L332.058 283.271L550.328 496.761V496.731Z" fill="white"/>
</mask>
<g mask="url(#mask3_2470_84407)">
<path style="mix-blend-mode:multiply" d="M160.048 625.161C188.578 723.021 157.098 736.131 158.038 806.601C158.478 839.511 179.868 869.761 211.958 862.421L285.178 845.681L210.508 629.271L177.228 627.211" fill="url(#paint6_linear_2470_84407)" fill-opacity="0.6"/>
<path style="mix-blend-mode:multiply" d="M557.528 559.931C568.588 613.821 613.098 679.461 603.488 740.701C600.318 760.901 585.128 777.131 565.188 781.681L501.638 796.211L513.998 612.801L557.528 559.931Z" fill="url(#paint7_linear_2470_84407)" fill-opacity="0.6"/>
</g>
<path d="M501.638 981.452L426.098 886.702C469.398 886.702 507.518 905.812 519.758 933.642L540.778 981.442H501.648L501.638 981.452Z" fill="#123633"/>
<mask id="mask4_2470_84407" style="mask-type:luminance" maskUnits="userSpaceOnUse" x="426" y="886" width="115" height="96">
<path d="M501.638 981.452L426.098 886.702C469.398 886.702 507.518 905.812 519.758 933.642L540.778 981.442H501.648L501.638 981.452Z" fill="white"/>
</mask>
<g mask="url(#mask4_2470_84407)">
<path style="mix-blend-mode:multiply" d="M506.788 896.012L501.638 981.452L447.748 881.832L506.788 896.012Z" fill="url(#paint8_linear_2470_84407)" fill-opacity="0.6"/>
</g>
<path d="M162.468 584.862L214.538 748.252C233.268 807.022 241.948 868.522 240.218 930.182L238.778 981.442H501.638L440.878 749.772L162.468 584.862Z" fill="#FF8F71"/>
<mask id="mask5_2470_84407" style="mask-type:luminance" maskUnits="userSpaceOnUse" x="162" y="584" width="340" height="398">
<path d="M162.468 584.862L214.538 748.252C233.268 807.022 241.948 868.522 240.218 930.182L238.778 981.442H501.638L440.878 749.772L162.468 584.862Z" fill="white"/>
</mask>
<g mask="url(#mask5_2470_84407)">
<path style="mix-blend-mode:multiply" d="M239.588 759.102C239.588 759.102 316.778 911.982 532.018 940.912L471.948 783.152L239.588 759.102Z" fill="url(#paint9_linear_2470_84407)" fill-opacity="0.6"/>
</g>
<path d="M334.918 822.251L427.438 842.731C464.698 850.981 502.658 832.041 518.478 797.311L538.088 754.281C559.398 707.501 567.768 655.871 562.318 604.761L553.498 522.031C548.468 474.871 538.728 428.331 524.418 383.111C501.978 312.191 444.038 258.191 371.708 240.811C309.888 225.951 244.668 239.591 193.988 277.991C131.558 325.281 105.728 406.791 129.508 481.411L198.408 697.601C218.458 760.511 270.458 807.991 334.918 822.261V822.251Z" fill="#FF8F71"/>
<mask id="mask6_2470_84407" style="mask-type:luminance" maskUnits="userSpaceOnUse" x="120" y="234" width="444" height="611">
<path d="M334.918 822.251L427.438 842.731C464.698 850.981 502.658 832.041 518.478 797.311L538.088 754.281C559.398 707.501 567.768 655.871 562.318 604.761L553.498 522.031C548.468 474.871 538.728 428.331 524.418 383.111C501.978 312.191 444.038 258.191 371.708 240.811C309.888 225.951 244.668 239.591 193.988 277.991C131.558 325.281 105.728 406.791 129.508 481.411L198.408 697.601C218.458 760.511 270.458 807.991 334.918 822.261V822.251Z" fill="white"/>
</mask>
<g mask="url(#mask6_2470_84407)">
<path style="mix-blend-mode:multiply" d="M279.218 367.171C370.208 339.121 490.308 345.051 516.398 428.461C533.628 483.551 559.568 510.761 559.568 510.761L552.098 316.201L278.848 322.381L279.218 367.171Z" fill="url(#paint10_linear_2470_84407)" fill-opacity="0.6"/>
<path style="mix-blend-mode:multiply" opacity="0.8" d="M175.708 542.342L243.488 516.822L261.398 566.972L187.208 543.632L175.708 542.342Z" fill="url(#paint11_linear_2470_84407)" fill-opacity="0.6"/>
<path style="mix-blend-mode:multiply" opacity="0.8" d="M210.528 639.441C210.528 639.441 226.688 684.351 199.568 699.571L170.018 653.691L210.528 639.441Z" fill="url(#paint12_linear_2470_84407)" fill-opacity="0.6"/>
<path style="mix-blend-mode:multiply" opacity="0.8" d="M344.188 624.481C287.498 635.781 265.298 584.031 257.378 554.721C253.858 541.691 256.788 527.881 265.108 518.621C274.808 507.841 291.298 495.011 317.338 489.821C343.378 484.631 363.538 490.151 376.628 496.391C387.868 501.741 395.868 513.381 397.608 526.761C401.528 556.861 400.878 613.171 344.178 624.471L344.188 624.481Z" fill="url(#paint13_linear_2470_84407)" fill-opacity="0.6"/>
<path style="mix-blend-mode:multiply" opacity="0.8" d="M554.328 493.151C552.588 479.761 568.388 469.941 557.148 464.581C544.058 458.341 526.878 452.221 500.838 457.421C474.798 462.611 455.328 476.031 445.628 486.811C437.668 495.651 434.658 508.661 437.478 521.171L420.968 488.561C423.038 519.241 434.918 548.431 454.878 571.831L472.428 592.411C479.998 599.301 482.818 610.201 479.108 620.201C476.978 625.921 472.728 630.611 467.408 633.611L451.898 642.391C451.898 642.391 474.688 639.061 483.138 636.791C491.588 634.521 498.538 628.491 501.948 620.431C505.858 611.191 504.488 601.141 499.338 593.481C506.908 594.671 515.298 594.351 524.698 592.671C574.228 583.781 558.248 523.251 554.318 493.151H554.328Z" fill="url(#paint14_linear_2470_84407)" fill-opacity="0.6"/>
<path d="M315.378 618.051C277.938 618.051 249.478 590.741 235.998 540.841C231.778 525.211 235.418 508.532 245.498 497.322C255.498 486.202 273.448 471.741 302.108 466.031C330.768 460.321 352.888 466.791 366.388 473.221C379.998 479.711 389.758 493.711 391.848 509.771C399.488 568.401 377.698 607.251 332.068 616.341C326.338 617.481 320.758 618.051 315.378 618.051Z" fill="#123633"/>
<path d="M499.858 581.271C462.418 581.271 433.958 553.961 420.478 504.061C416.258 488.431 419.898 471.751 429.978 460.541C440.578 448.751 461.798 434.191 489.558 428.661C517.508 423.091 536.228 429.471 550.868 436.451C564.478 442.941 574.238 456.941 576.328 473.001C583.968 531.631 562.178 570.481 516.548 579.571C510.818 580.711 505.238 581.281 499.858 581.281V581.271Z" fill="#123633"/>
</g>
<path d="M218.558 967.812L203.428 886.702L346.118 900.122C373.898 902.732 397.288 922.002 405.168 948.762L426.098 1019.79H281.128C250.478 1019.79 224.178 997.942 218.558 967.812Z" fill="#123633"/>
<mask id="mask7_2470_84407" style="mask-type:luminance" maskUnits="userSpaceOnUse" x="203" y="886" width="224" height="134">
<path d="M218.558 967.812L203.428 886.702L346.118 900.122C373.898 902.732 397.288 922.002 405.168 948.762L426.098 1019.79H281.128C250.478 1019.79 224.178 997.942 218.558 967.812Z" fill="white"/>
</mask>
<g mask="url(#mask7_2470_84407)">
<path style="mix-blend-mode:multiply" d="M210.668 925.492C225.608 1010.18 289.818 939.462 341.308 933.282C392.798 927.102 420.418 989.922 426.098 1019.79L216.008 1035.24L196.438 931.222L210.658 925.492H210.668Z" fill="url(#paint15_linear_2470_84407)" fill-opacity="0.6"/>
</g>
<path d="M509.288 391.532L426.098 393.752C427.768 391.342 429.448 389.452 431.138 387.712C432.828 385.952 434.518 384.472 436.218 383.072C439.618 380.332 443.028 378.172 446.448 376.512C453.298 373.142 460.188 371.602 467.118 371.372C474.048 371.182 481.018 372.352 488.038 375.342C491.548 376.822 495.068 378.802 498.608 381.362C499.498 382.052 500.378 382.682 501.268 383.422C502.158 384.192 503.038 384.892 503.928 385.752C505.708 387.402 507.488 389.212 509.288 391.542V391.532Z" fill="url(#paint16_linear_2470_84407)"/>
<path d="M358.488 404.432L258.278 441.722C259.388 438.312 260.708 435.482 262.098 432.822C263.478 430.142 264.968 427.762 266.498 425.472C269.578 420.972 272.898 417.122 276.418 413.812C283.448 407.162 291.238 402.542 299.568 399.382C307.918 396.262 316.828 394.672 326.498 395.092C331.328 395.292 336.358 396.042 341.628 397.442C342.968 397.842 344.278 398.182 345.638 398.642C347.008 399.132 348.348 399.552 349.768 400.152C352.558 401.262 355.418 402.552 358.488 404.422V404.432Z" fill="url(#paint17_linear_2470_84407)"/>
<path d="M183.408 548.361C183.408 548.361 241.698 503.922 208.128 345.052L111.238 469.132L118.728 514.602L183.408 548.361Z" fill="#208C6E"/>
<mask id="mask8_2470_84407" style="mask-type:luminance" maskUnits="userSpaceOnUse" x="111" y="345" width="108" height="204">
<path d="M183.408 548.361C183.408 548.361 241.698 503.922 208.128 345.052L111.238 469.132L118.728 514.602L183.408 548.361Z" fill="white"/>
</mask>
<g mask="url(#mask8_2470_84407)">
<path style="mix-blend-mode:multiply" d="M118.728 514.601C172.768 486.811 158.728 446.341 195.878 423.481C234.898 399.471 159.108 382.511 159.108 382.511L37.8582 463.471L118.728 514.601Z" fill="url(#paint18_linear_2470_84407)" fill-opacity="0.6"/>
</g>
<path d="M115.068 492.372C109.018 452.992 275.728 307.662 497.998 356.782C509.188 359.252 518.398 367.162 522.488 377.862L523.868 381.482C540.268 373.082 532.088 348.212 520.678 298.252C509.268 248.292 458.538 202.462 401.508 198.572C255.838 188.632 144.648 272.272 102.368 325.332C86.3181 345.472 87.5581 500.482 115.058 492.372H115.068Z" fill="#123633"/>
<mask id="mask9_2470_84407" style="mask-type:luminance" maskUnits="userSpaceOnUse" x="91" y="197" width="443" height="296">
<path d="M115.068 492.372C109.018 452.992 275.728 307.662 497.998 356.782C509.188 359.252 518.398 367.162 522.488 377.862L523.868 381.482C540.268 373.082 532.088 348.212 520.678 298.252C509.268 248.292 458.538 202.462 401.508 198.572C255.838 188.632 144.648 272.272 102.368 325.332C86.3181 345.472 87.5581 500.482 115.058 492.372H115.068Z" fill="white"/>
</mask>
<g mask="url(#mask9_2470_84407)">
<path style="mix-blend-mode:multiply" d="M147.408 280.981C123.508 341.731 137.818 417.921 177.228 389.301C216.638 360.681 325.298 336.611 450.028 349.581L64.978 562.341L56.988 321.351L147.408 280.981Z" fill="url(#paint19_linear_2470_84407)" fill-opacity="0.6"/>
</g>
<path d="M335.828 605.852C279.138 617.152 256.938 565.402 249.018 536.092C245.498 523.062 248.428 509.252 256.748 499.992C266.448 489.212 282.938 476.382 308.978 471.192C335.018 466.002 355.178 471.522 368.268 477.762C379.508 483.112 387.508 494.752 389.248 508.132C393.168 538.232 392.518 594.542 335.818 605.842L335.828 605.852Z" fill="#123633"/>
<mask id="mask10_2470_84407" style="mask-type:luminance" maskUnits="userSpaceOnUse" x="247" y="469" width="144" height="139">
<path d="M335.828 605.852C279.138 617.152 256.938 565.402 249.018 536.092C245.498 523.062 248.428 509.252 256.748 499.992C266.448 489.212 282.938 476.382 308.978 471.192C335.018 466.002 355.178 471.522 368.268 477.762C379.508 483.112 387.508 494.752 389.248 508.132C393.168 538.232 392.518 594.542 335.818 605.842L335.828 605.852Z" fill="white"/>
</mask>
<g mask="url(#mask10_2470_84407)">
<path style="mix-blend-mode:multiply" d="M257.388 454.572L430.328 472.912L350.058 640.732L225.808 607.722L257.388 454.572Z" fill="url(#paint20_linear_2470_84407)" fill-opacity="0.6"/>
<path style="mix-blend-mode:multiply" d="M334.058 478.491C265.998 446.911 444.488 481.061 444.488 481.061L364.218 648.881C364.218 648.881 313.458 640.791 305.738 601.351C298.018 561.911 402.118 510.061 334.058 478.491Z" fill="url(#paint21_linear_2470_84407)" fill-opacity="0.6"/>
<path style="mix-blend-mode:overlay" opacity="0.5" d="M293.348 476.091C302.698 478.931 261.838 570.251 249.158 532.111C239.888 504.221 283.988 473.251 293.348 476.091Z" fill="url(#paint22_linear_2470_84407)"/>
</g>
<path d="M520.308 569.081C463.618 580.381 441.418 528.631 433.498 499.321C429.978 486.291 432.908 472.481 441.228 463.221C450.928 452.441 470.388 439.021 496.438 433.831C522.478 428.641 539.658 434.761 552.748 440.991C563.988 446.341 571.988 457.981 573.728 471.361C577.648 501.461 576.998 557.771 520.298 569.071L520.308 569.081Z" fill="#123633"/>
<mask id="mask11_2470_84407" style="mask-type:luminance" maskUnits="userSpaceOnUse" x="432" y="431" width="144" height="140">
<path d="M520.308 569.081C463.618 580.381 441.418 528.631 433.498 499.321C429.978 486.291 432.908 472.481 441.228 463.221C450.928 452.441 470.388 439.021 496.438 433.831C522.478 428.641 539.658 434.761 552.748 440.991C563.988 446.341 571.988 457.981 573.728 471.361C577.648 501.461 576.998 557.771 520.298 569.071L520.308 569.081Z" fill="white"/>
</mask>
<g mask="url(#mask11_2470_84407)">
<path style="mix-blend-mode:multiply" d="M448.668 415.921L621.598 434.261L541.328 602.081L417.078 569.071L448.668 415.921Z" fill="url(#paint23_linear_2470_84407)" fill-opacity="0.6"/>
<path style="mix-blend-mode:multiply" d="M525.328 439.841C457.268 408.261 635.758 442.411 635.758 442.411L555.488 610.231C555.488 610.231 504.728 602.141 497.008 562.701C489.288 523.261 593.388 471.411 525.328 439.841Z" fill="url(#paint24_linear_2470_84407)" fill-opacity="0.6"/>
<path style="mix-blend-mode:overlay" opacity="0.5" d="M500.368 452.121C510.148 452.111 464.948 536.761 452.278 498.621C443.008 470.731 480.018 452.151 500.368 452.121Z" fill="url(#paint25_linear_2470_84407)"/>
</g>
<path d="M171.788 525.331L252.488 497.751L248.298 533.761L178.258 538.301L171.788 525.331Z" fill="#175047"/>
<mask id="mask12_2470_84407" style="mask-type:luminance" maskUnits="userSpaceOnUse" x="171" y="497" width="82" height="42">
<path d="M171.788 525.331L252.488 497.751L248.298 533.761L178.258 538.301L171.788 525.331Z" fill="white"/>
</mask>
<g mask="url(#mask12_2470_84407)">
<path style="mix-blend-mode:multiply" opacity="0.8" d="M186.118 526.942C215.338 520.502 210.958 536.192 240.438 534.272C269.478 532.392 253.368 554.152 253.368 554.152L200.158 546.632C200.158 546.632 160.558 532.572 186.128 526.932L186.118 526.942Z" fill="url(#paint26_linear_2470_84407)" fill-opacity="0.6"/>
</g>
<path d="M382.658 509.001C382.528 508.001 382.348 507.001 382.138 506.021C380.088 496.601 383.568 486.611 390.998 480.561C395.418 476.961 400.248 474.621 405.368 473.601C410.478 472.581 415.848 472.891 421.308 474.521C430.488 477.261 437.528 485.151 439.258 494.641C439.438 495.621 439.658 496.611 439.918 497.581L427.078 501.051C426.718 499.721 425.228 499.231 424.978 497.881C424.138 493.281 421.928 488.591 417.508 487.271C414.138 486.271 410.938 486.061 407.968 486.651C405.008 487.241 402.118 488.661 399.398 490.881C395.818 493.791 395.548 498.811 396.538 503.381C396.828 504.711 395.668 505.911 395.848 507.281L382.658 509.011V509.001Z" fill="#175047"/>
<mask id="mask13_2470_84407" style="mask-type:luminance" maskUnits="userSpaceOnUse" x="381" y="473" width="59" height="37">
<path d="M382.658 509.001C382.528 508.001 382.348 507.001 382.138 506.021C380.088 496.601 383.568 486.611 390.998 480.561C395.418 476.961 400.248 474.621 405.368 473.601C410.478 472.581 415.848 472.891 421.308 474.521C430.488 477.261 437.528 485.151 439.258 494.641C439.438 495.621 439.658 496.611 439.918 497.581L427.078 501.051C426.718 499.721 425.228 499.231 424.978 497.881C424.138 493.281 421.928 488.591 417.508 487.271C414.138 486.271 410.938 486.061 407.968 486.651C405.008 487.241 402.118 488.661 399.398 490.881C395.818 493.791 395.548 498.811 396.538 503.381C396.828 504.711 395.668 505.911 395.848 507.281L382.658 509.011V509.001Z" fill="white"/>
</mask>
<g mask="url(#mask13_2470_84407)">
<path style="mix-blend-mode:multiply" opacity="0.8" d="M388.678 477.131C388.678 477.131 408.908 497.631 400.758 531.431L386.048 523.761L373.688 483.371L388.688 477.131H388.678Z" fill="url(#paint27_linear_2470_84407)" fill-opacity="0.6"/>
<g style="mix-blend-mode:multiply" opacity="0.8">
<path d="M430.408 501.251C430.408 501.251 421.498 494.841 421.378 489.761C421.238 484.071 422.728 478.711 424.178 474.621C426.118 469.131 437.528 461.161 437.528 461.161L430.408 501.251Z" fill="url(#paint28_linear_2470_84407)" fill-opacity="0.6"/>
</g>
</g>
<path d="M320.698 615.392C283.258 615.392 254.798 588.082 241.318 538.182C237.098 522.552 240.738 505.872 250.818 494.662C260.818 483.542 278.768 469.082 307.428 463.372C336.088 457.662 358.208 464.132 371.708 470.562C385.318 477.052 395.078 491.052 397.168 507.112C404.808 565.742 383.018 604.592 337.388 613.682C331.658 614.822 326.078 615.392 320.698 615.392ZM329.248 477.132C323.468 477.132 317.218 477.692 310.538 479.022C286.178 483.882 271.068 496.012 262.678 505.332C256.178 512.562 253.888 523.552 256.718 534.012C260.398 547.612 267.428 566.782 280.068 580.872C294.378 596.832 312.108 602.442 334.258 598.022C356.408 593.602 370.628 581.632 377.728 561.402C383.998 543.542 383.148 523.142 381.328 509.172C379.928 498.432 373.608 489.152 364.828 484.972C356.608 481.052 344.558 477.132 329.248 477.132Z" fill="#175047"/>
<path d="M505.178 578.612C467.738 578.612 439.278 551.302 425.798 501.402C421.578 485.772 425.218 469.092 435.298 457.882C445.898 446.092 467.118 431.532 494.878 426.002C522.828 420.432 541.548 426.812 556.188 433.792C569.798 440.282 579.558 454.282 581.648 470.342C589.288 528.972 567.498 567.822 521.868 576.912C516.138 578.052 510.558 578.622 505.178 578.622V578.612ZM515.348 439.842C510.088 439.842 504.348 440.392 497.998 441.652C474.078 446.422 456.058 458.672 447.168 468.552C440.668 475.782 438.378 486.772 441.208 497.232C444.888 510.832 451.918 530.002 464.558 544.092C478.878 560.052 496.598 565.662 518.748 561.242C540.898 556.822 555.118 544.852 562.218 524.622C568.488 506.762 567.638 486.362 565.818 472.392C564.418 461.652 558.098 452.372 549.318 448.192C539.948 443.722 529.378 439.842 515.348 439.842Z" fill="#175047"/>
<path d="M113.248 581.621C118.768 616.121 153.348 684.821 194.458 678.241C221.698 673.881 220.998 622.741 211.898 565.831C206.378 531.331 179.818 506.901 152.578 511.261C125.338 515.621 107.728 547.121 113.248 581.611V581.621Z" fill="#FF8F71"/>
<path d="M95.0681 505.562C92.7381 520.752 77.8481 532.252 62.5481 530.492L95.0681 505.562Z" fill="#208C6E"/>
<path d="M61.1982 599.062L104.108 513.072C104.948 515.722 105.398 518.192 105.738 520.602C110.038 552.432 91.2782 586.962 61.1982 599.062Z" fill="#208C6E"/>
<path style="mix-blend-mode:multiply" opacity="0.4" d="M343.468 661.622C343.468 685.802 362.178 750.862 424.068 756.472C472.688 760.882 451.948 712.192 458.198 685.522C365.668 674.762 343.478 661.632 343.478 661.632L343.468 661.622Z" fill="url(#paint29_linear_2470_84407)" fill-opacity="0.6"/>
<path d="M350.128 674.762C352.768 679.972 357.928 689.842 365.658 699.972L444.198 725.792C451.168 717.522 446.968 702.892 452.428 689.722L350.128 674.762Z" fill="#0F0017"/>
<path d="M365.658 699.962C377.428 715.362 395.148 731.332 419.078 732.362C433.148 732.962 440.358 730.332 444.198 725.782C426.588 698.902 389.378 706.032 365.658 699.962Z" fill="#FF757F"/>
<mask id="mask14_2470_84407" style="mask-type:luminance" maskUnits="userSpaceOnUse" x="365" y="699" width="80" height="34">
<path d="M365.658 699.962C377.428 715.362 395.148 731.332 419.078 732.362C433.148 732.962 440.358 730.332 444.198 725.782C426.588 698.902 389.378 706.032 365.658 699.962Z" fill="white"/>
</mask>
<g mask="url(#mask14_2470_84407)">
<path style="mix-blend-mode:multiply" d="M453.038 691.742H354.638V749.662H453.038V691.742Z" fill="url(#paint30_linear_2470_84407)" fill-opacity="0.6"/>
</g>
<g style="mix-blend-mode:multiply" opacity="0.8">
<path d="M343.468 661.622C343.468 661.622 383.488 682.082 460.068 682.082C460.068 682.082 485.448 658.912 455.488 658.002C396.058 656.212 343.468 661.622 343.468 661.622Z" fill="black" fill-opacity="0.6"/>
</g>
<path d="M461.308 677.042C435.458 680.792 343.478 661.622 343.478 661.622L350.138 674.762C419.398 693.472 445.048 692.702 453.948 690.832C456.508 690.292 458.538 688.352 459.158 685.812L461.308 677.052V677.042Z" fill="white"/>
<mask id="mask15_2470_84407" style="mask-type:luminance" maskUnits="userSpaceOnUse" x="343" y="661" width="119" height="31">
<path d="M461.308 677.042C435.458 680.792 343.478 661.622 343.478 661.622L350.138 674.762C419.398 693.472 445.048 692.702 453.948 690.832C456.508 690.292 458.538 688.352 459.158 685.812L461.308 677.052V677.042Z" fill="white"/>
</mask>
<g mask="url(#mask15_2470_84407)">
<path style="mix-blend-mode:multiply" d="M446.288 634.802H315.968V712.812H446.288V634.802Z" fill="url(#paint31_linear_2470_84407)" fill-opacity="0.6"/>
</g>
<path d="M734.388 886.701H869.458C888.438 886.701 905.308 874.591 911.378 856.601L932.128 795.091L768.378 764.191L734.388 886.701Z" fill="#123633"/>
<mask id="mask16_2470_84407" style="mask-type:luminance" maskUnits="userSpaceOnUse" x="734" y="764" width="199" height="123">
<path d="M734.388 886.701H869.458C888.438 886.701 905.308 874.591 911.378 856.601L932.128 795.091L768.378 764.191L734.388 886.701Z" fill="white"/>
</mask>
<g mask="url(#mask16_2470_84407)">
<path style="mix-blend-mode:multiply" d="M741.258 861.931C820.898 861.931 834.408 789.891 921.888 825.441C1009.37 860.991 890.248 904.251 890.248 904.251L716.888 899.101L721.008 869.231L741.268 861.931H741.258Z" fill="url(#paint32_linear_2470_84407)" fill-opacity="0.6"/>
</g>
<path d="M955.748 512.412L946.788 554.632L928.998 603.242C926.008 612.052 930.888 621.592 939.778 624.322C946.208 626.302 953.198 624.372 957.698 619.372L973.948 601.322C983.568 590.642 989.428 577.112 990.648 562.792L993.218 532.632C994.148 521.752 985.568 512.412 974.648 512.412H955.748Z" fill="#FF8F71"/>
<mask id="mask17_2470_84407" style="mask-type:luminance" maskUnits="userSpaceOnUse" x="928" y="512" width="66" height="114">
<path d="M955.748 512.412L946.788 554.632L928.998 603.242C926.008 612.052 930.888 621.592 939.778 624.322C946.208 626.302 953.198 624.372 957.698 619.372L973.948 601.322C983.568 590.642 989.428 577.112 990.648 562.792L993.218 532.632C994.148 521.752 985.568 512.412 974.648 512.412H955.748Z" fill="white"/>
</mask>
<g mask="url(#mask17_2470_84407)">
<path style="mix-blend-mode:multiply" opacity="0.8" d="M966.488 535.902C966.488 535.902 981.558 576.412 928.118 624.892L910.498 570.672L947.958 547.412L956.848 487.502L960.088 539.882L966.508 535.902H966.488Z" fill="url(#paint33_linear_2470_84407)" fill-opacity="0.6"/>
</g>
<path d="M768.378 764.192L800.928 646.852L804.868 632.632C810.178 613.482 822.958 597.302 840.298 587.602C863.578 574.592 892.998 561.972 908.038 555.302L958.378 532.962C962.498 531.132 967.128 534.152 967.128 538.652C967.128 553.992 960.748 568.642 949.518 579.092L910.488 615.392L910.738 631.452C911.218 662.552 894.288 691.312 866.868 705.992L846.638 716.822L768.368 764.192H768.378Z" fill="#FF8F71"/>
<defs>
<linearGradient id="paint0_linear_2470_84407" x1="967.958" y1="669.132" x2="882.338" y2="583.512" gradientUnits="userSpaceOnUse">
<stop stop-opacity="0"/>
<stop offset="0.06" stop-opacity="0.14"/>
<stop offset="1"/>
</linearGradient>
<linearGradient id="paint1_linear_2470_84407" x1="840.308" y1="570.762" x2="971.768" y2="570.762" gradientUnits="userSpaceOnUse">
<stop/>
<stop offset="0.87" stop-opacity="0.14"/>
<stop offset="0.93" stop-opacity="0"/>
</linearGradient>
<linearGradient id="paint2_linear_2470_84407" x1="894.748" y1="484.302" x2="935.158" y2="484.302" gradientUnits="userSpaceOnUse">
<stop/>
<stop offset="0.87" stop-opacity="0.14"/>
<stop offset="0.93" stop-opacity="0"/>
</linearGradient>
<linearGradient id="paint3_linear_2470_84407" x1="802.318" y1="776.852" x2="998.398" y2="776.852" gradientUnits="userSpaceOnUse">
<stop stop-opacity="0"/>
<stop offset="0.06" stop-opacity="0.14"/>
<stop offset="1"/>
</linearGradient>
<linearGradient id="paint4_linear_2470_84407" x1="971.168" y1="634.252" x2="971.168" y2="523.892" gradientUnits="userSpaceOnUse">
<stop stop-opacity="0"/>
<stop offset="0.06" stop-opacity="0.14"/>
<stop offset="1"/>
</linearGradient>
<linearGradient id="paint5_linear_2470_84407" x1="70.1282" y1="272.142" x2="410.858" y2="272.142" gradientUnits="userSpaceOnUse">
<stop/>
<stop offset="1" stop-opacity="0"/>
</linearGradient>
<linearGradient id="paint6_linear_2470_84407" x1="221.598" y1="863.531" x2="221.598" y2="625.161" gradientUnits="userSpaceOnUse">
<stop stop-opacity="0"/>
<stop offset="1"/>
</linearGradient>
<linearGradient id="paint7_linear_2470_84407" x1="553.238" y1="796.211" x2="553.238" y2="559.931" gradientUnits="userSpaceOnUse">
<stop stop-opacity="0"/>
<stop offset="1"/>
</linearGradient>
<linearGradient id="paint8_linear_2470_84407" x1="447.748" y1="931.642" x2="506.788" y2="931.642" gradientUnits="userSpaceOnUse">
<stop stop-opacity="0"/>
<stop offset="1"/>
</linearGradient>
<linearGradient id="paint9_linear_2470_84407" x1="385.808" y1="940.912" x2="385.808" y2="759.102" gradientUnits="userSpaceOnUse">
<stop stop-opacity="0"/>
<stop offset="1"/>
</linearGradient>
<linearGradient id="paint10_linear_2470_84407" x1="278.848" y1="413.481" x2="559.578" y2="413.481" gradientUnits="userSpaceOnUse">
<stop/>
<stop offset="1" stop-opacity="0"/>
</linearGradient>
<linearGradient id="paint11_linear_2470_84407" x1="175.708" y1="541.902" x2="261.398" y2="541.902" gradientUnits="userSpaceOnUse">
<stop/>
<stop offset="1" stop-opacity="0"/>
</linearGradient>
<linearGradient id="paint12_linear_2470_84407" x1="192.668" y1="699.571" x2="192.668" y2="639.441" gradientUnits="userSpaceOnUse">
<stop/>
<stop offset="1" stop-opacity="0"/>
</linearGradient>
<linearGradient id="paint13_linear_2470_84407" x1="255.908" y1="556.911" x2="398.998" y2="556.911" gradientUnits="userSpaceOnUse">
<stop stop-opacity="0"/>
<stop offset="1"/>
</linearGradient>
<linearGradient id="paint14_linear_2470_84407" x1="420.968" y1="548.931" x2="561.218" y2="548.931" gradientUnits="userSpaceOnUse">
<stop/>
<stop offset="0.94" stop-opacity="0.14"/>
<stop offset="1" stop-opacity="0"/>
</linearGradient>
<linearGradient id="paint15_linear_2470_84407" x1="196.438" y1="980.362" x2="426.098" y2="980.362" gradientUnits="userSpaceOnUse">
<stop stop-opacity="0"/>
<stop offset="1"/>
</linearGradient>
<linearGradient id="paint16_linear_2470_84407" x1="520.058" y1="391.052" x2="417.168" y2="378.772" gradientUnits="userSpaceOnUse">
<stop stop-color="#123633" stop-opacity="0.2"/>
<stop offset="1" stop-color="#123633"/>
</linearGradient>
<linearGradient id="paint17_linear_2470_84407" x1="368.478" y1="427.392" x2="248.968" y2="413.132" gradientUnits="userSpaceOnUse">
<stop stop-color="#123633" stop-opacity="0.2"/>
<stop offset="1" stop-color="#123633"/>
</linearGradient>
<linearGradient id="paint18_linear_2470_84407" x1="37.8582" y1="448.561" x2="207.048" y2="448.561" gradientUnits="userSpaceOnUse">
<stop/>
<stop offset="1" stop-opacity="0"/>
</linearGradient>
<linearGradient id="paint19_linear_2470_84407" x1="56.988" y1="421.661" x2="450.028" y2="421.661" gradientUnits="userSpaceOnUse">
<stop/>
<stop offset="0.14" stop-opacity="0.61"/>
<stop offset="1" stop-opacity="0"/>
</linearGradient>
<linearGradient id="paint20_linear_2470_84407" x1="328.068" y1="640.732" x2="328.068" y2="454.572" gradientUnits="userSpaceOnUse">
<stop/>
<stop offset="1" stop-opacity="0"/>
</linearGradient>
<linearGradient id="paint21_linear_2470_84407" x1="374.898" y1="648.881" x2="374.898" y2="465.091" gradientUnits="userSpaceOnUse">
<stop/>
<stop offset="1" stop-opacity="0"/>
</linearGradient>
<linearGradient id="paint22_linear_2470_84407" x1="271.308" y1="541.401" x2="271.308" y2="475.901" gradientUnits="userSpaceOnUse">
<stop stop-color="white"/>
<stop offset="1" stop-color="white" stop-opacity="0"/>
</linearGradient>
<linearGradient id="paint23_linear_2470_84407" x1="519.338" y1="602.081" x2="519.338" y2="415.921" gradientUnits="userSpaceOnUse">
<stop/>
<stop offset="1" stop-opacity="0"/>
</linearGradient>
<linearGradient id="paint24_linear_2470_84407" x1="566.178" y1="610.231" x2="566.178" y2="426.441" gradientUnits="userSpaceOnUse">
<stop/>
<stop offset="1" stop-opacity="0"/>
</linearGradient>
<linearGradient id="paint25_linear_2470_84407" x1="476.278" y1="508.491" x2="476.278" y2="452.121" gradientUnits="userSpaceOnUse">
<stop stop-color="white"/>
<stop offset="1" stop-color="white" stop-opacity="0"/>
</linearGradient>
<linearGradient id="paint26_linear_2470_84407" x1="177.518" y1="539.762" x2="257.818" y2="539.762" gradientUnits="userSpaceOnUse">
<stop/>
<stop offset="1" stop-opacity="0"/>
</linearGradient>
<linearGradient id="paint27_linear_2470_84407" x1="373.678" y1="504.281" x2="402.688" y2="504.281" gradientUnits="userSpaceOnUse">
<stop/>
<stop offset="1" stop-opacity="0"/>
</linearGradient>
<linearGradient id="paint28_linear_2470_84407" x1="429.448" y1="501.251" x2="429.448" y2="461.161" gradientUnits="userSpaceOnUse">
<stop stop-opacity="0"/>
<stop offset="1"/>
</linearGradient>
<linearGradient id="paint29_linear_2470_84407" x1="343.468" y1="709.182" x2="458.198" y2="709.182" gradientUnits="userSpaceOnUse">
<stop stop-opacity="0.2"/>
<stop offset="0.96" stop-opacity="0.93"/>
<stop offset="1"/>
</linearGradient>
<linearGradient id="paint30_linear_2470_84407" x1="354.638" y1="720.702" x2="453.028" y2="720.702" gradientUnits="userSpaceOnUse">
<stop/>
<stop offset="1" stop-opacity="0"/>
</linearGradient>
<linearGradient id="paint31_linear_2470_84407" x1="315.968" y1="673.812" x2="446.288" y2="673.812" gradientUnits="userSpaceOnUse">
<stop/>
<stop offset="0.15" stop-opacity="0.54"/>
<stop offset="1" stop-opacity="0"/>
</linearGradient>
<linearGradient id="paint32_linear_2470_84407" x1="716.878" y1="859.921" x2="953.968" y2="859.921" gradientUnits="userSpaceOnUse">
<stop stop-opacity="0"/>
<stop offset="1"/>
</linearGradient>
<linearGradient id="paint33_linear_2470_84407" x1="939.468" y1="624.892" x2="939.468" y2="487.502" gradientUnits="userSpaceOnUse">
<stop stop-opacity="0"/>
<stop offset="0.06" stop-opacity="0.14"/>
<stop offset="1"/>
</linearGradient>
</defs>
</svg>
