<svg width="73" height="70" viewBox="0 0 73 70" fill="none" xmlns="http://www.w3.org/2000/svg">
<path d="M23.1717 26.2816C22.9146 26.2658 22.6628 26.1971 22.4218 26.0756C22.4004 26.0598 22.3736 26.0492 22.3468 26.0333C22.3254 26.0175 22.2986 26.0069 22.2772 25.9911C22.2504 25.9858 22.229 25.9647 22.2022 25.9541C22.1808 25.9382 22.154 25.9171 22.1326 25.9118C22.1058 25.896 22.0844 25.8854 22.0576 25.8696C22.0415 25.8537 22.0094 25.8432 21.988 25.8273C21.9612 25.822 21.9398 25.8009 21.913 25.785C21.8916 25.7798 21.8701 25.7586 21.8434 25.7481C21.8166 25.7322 21.7952 25.7216 21.7684 25.7058C21.747 25.6899 21.7202 25.6794 21.6987 25.6635C21.672 25.6477 21.6505 25.6371 21.6238 25.6213C21.6023 25.616 21.5756 25.5949 21.5541 25.5843C21.5274 25.5684 21.5059 25.5579 21.4791 25.542C21.4577 25.5262 21.4309 25.5156 21.4095 25.4998C21.3827 25.4839 21.3667 25.4733 21.3345 25.4575C21.3131 25.4522 21.2863 25.4311 21.2649 25.4152C21.2381 25.4099 21.2167 25.3888 21.1953 25.3782C21.1685 25.3624 21.1417 25.3518 21.1203 25.336C21.0935 25.3201 21.0721 25.3096 21.0453 25.2937C21.0239 25.2779 20.9971 25.2673 20.9757 25.2515C20.9489 25.2462 20.9275 25.225 20.9007 25.2092C20.8793 25.2039 20.8525 25.1828 20.8364 25.1722C20.7989 25.1564 20.7829 25.1458 20.7507 25.1299C20.7293 25.1141 20.7025 25.1035 20.6811 25.0877C20.6597 25.0824 20.6329 25.0613 20.6061 25.0454C20.5847 25.0401 20.5579 25.019 20.5365 25.0084C20.5097 24.9926 20.4883 24.982 20.4615 24.9662C20.4401 24.9503 20.4133 24.9398 20.3919 24.9239C20.3651 24.9081 20.3437 24.8975 20.3169 24.8816C20.2955 24.8764 20.2687 24.8552 20.2472 24.8447C18.7154 24.1526 17.5638 21.1624 17.5638 17.5699C17.5638 13.9774 18.7154 10.9925 20.2472 10.3005C20.2687 10.2952 20.2955 10.274 20.3169 10.2635C20.3437 10.2476 20.3651 10.2265 20.3919 10.2212C20.4133 10.2054 20.4401 10.1948 20.4615 10.1789C20.4883 10.1631 20.5097 10.1525 20.5365 10.1367C20.5579 10.1208 20.5847 10.1103 20.6061 10.0944C20.6329 10.0891 20.6597 10.068 20.6811 10.0574C20.7025 10.0416 20.7293 10.031 20.7507 10.0152C20.7775 9.99932 20.7989 9.98876 20.8364 9.97291C20.8525 9.95706 20.8793 9.94649 20.9007 9.93064C20.9275 9.92536 20.9489 9.90423 20.9757 9.89366C20.9971 9.87781 21.0239 9.85668 21.0453 9.8514C21.0721 9.83555 21.0935 9.82498 21.1203 9.80913C21.1417 9.79328 21.1685 9.78272 21.1953 9.76687C21.2167 9.76159 21.2381 9.74045 21.2649 9.72989C21.2863 9.71404 21.3131 9.69291 21.3345 9.68762C21.372 9.67177 21.3827 9.66121 21.4095 9.64536C21.4309 9.62951 21.4577 9.61894 21.4791 9.60309C21.5059 9.58724 21.5274 9.57668 21.5541 9.56083C21.5756 9.55555 21.6023 9.53441 21.6238 9.52385C21.6505 9.508 21.672 9.48687 21.6987 9.48158C21.7202 9.46573 21.747 9.45517 21.7684 9.43932C21.7952 9.42347 21.8166 9.4129 21.8434 9.39706C21.8701 9.39177 21.8916 9.37064 21.913 9.35479C21.9398 9.34951 21.9612 9.32838 21.988 9.31781C22.0094 9.30196 22.0415 9.29139 22.0576 9.27555C22.0844 9.2597 22.1058 9.24913 22.1326 9.23328C22.154 9.21743 22.1808 9.20687 22.2022 9.19102C22.229 9.18573 22.2504 9.1646 22.2772 9.15404C22.2986 9.13819 22.3254 9.11705 22.3468 9.11177C22.3736 9.09592 22.4004 9.08536 22.4218 9.06951C22.4754 9.04309 22.5343 9.01668 22.5986 8.99554C21.1792 11.3888 20.3544 14.1729 20.3544 17.1526C20.3544 20.5126 21.3934 23.6296 23.1717 26.2077V26.2816Z" fill="#DEDDE8" stroke="black" stroke-width="0.8" stroke-miterlimit="10"/>
<path d="M61.5295 44.4235V52.2688C61.5295 57.8108 58.4712 62.6447 53.94 65.2229C53.3401 65.5663 52.6973 65.878 52.0439 66.1315C50.2925 66.8289 48.3803 67.2146 46.3718 67.2146C45.2202 67.2146 44.1008 67.0878 43.0242 66.8395C40.0088 66.1685 37.3414 64.6206 35.3061 62.4757C33.9778 61.0862 32.9226 59.4326 32.221 57.6206C31.5729 55.9617 31.2141 54.1549 31.2141 52.2636V44.4183C31.2141 43.293 31.3426 42.1941 31.589 41.1428C32.2746 38.0997 33.9028 35.416 36.147 33.3767C36.2541 33.3873 36.3559 33.3873 36.463 33.3873H53.0241C54.1274 33.3873 55.1986 33.2763 56.2377 33.065C56.5323 33.3133 56.8215 33.5775 57.0893 33.8469C57.9624 34.708 58.7337 35.6854 59.3657 36.7367C59.6978 37.2809 60.0031 37.8567 60.2601 38.4484C60.544 39.0877 60.7904 39.7586 60.9725 40.456C61.3367 41.7133 61.5242 43.0499 61.5242 44.4183L61.5295 44.4235Z" fill="#DEDDE8" stroke="black" stroke-width="0.8" stroke-miterlimit="10"/>
<path d="M67.3774 9.21758C67.3774 9.21758 67.3399 9.19645 67.3238 9.19116C67.3024 9.17531 67.2756 9.16475 67.2542 9.1489C66.9757 9.01154 66.6864 8.93758 66.3919 8.93758C64.2334 8.93758 62.4766 12.8259 62.4766 17.6123C62.4766 22.3988 64.2334 26.2924 66.3919 26.2924C66.5097 26.2924 66.6382 26.2765 66.74 26.2501C66.1455 27.1165 65.476 27.9195 64.7261 28.6592C62.4819 30.878 59.5896 32.4524 56.3599 33.0811C55.3208 33.2871 54.2496 33.398 53.1462 33.398H36.5852C36.4781 33.398 36.3763 33.398 36.2692 33.3928C30.7524 33.2977 25.8998 30.4977 23.0129 26.2924C21.2346 23.7142 20.1956 20.5972 20.1956 17.2372C20.1956 14.2576 21.0204 11.4734 22.4398 9.08022C23.1468 7.88097 24.0037 6.7821 25 5.80474C27.9619 2.88322 32.0593 1.07642 36.5852 1.07642H53.1462C59.2361 1.07642 64.5547 4.35718 67.3774 9.22814V9.21758Z" fill="#DEDDE8" stroke="black" stroke-width="0.8" stroke-miterlimit="10"/>
<path d="M70.8643 23.1909C70.4305 24.0256 69.9056 24.6173 69.3271 24.8815C69.3057 24.8868 69.2789 24.9079 69.2575 24.9185C69.2307 24.9343 69.2093 24.9449 69.1825 24.9607C69.1611 24.9766 69.1343 24.9871 69.1183 25.003C69.0808 25.0188 69.0647 25.0294 69.0326 25.0452C69.0111 25.0505 68.9844 25.0717 68.9629 25.0822C68.9415 25.0981 68.9147 25.1192 68.888 25.1245C68.8665 25.1403 68.8397 25.1509 68.8183 25.1668C68.7915 25.1826 68.7701 25.1932 68.7433 25.209C68.7166 25.2143 68.6951 25.2354 68.6737 25.246C68.6469 25.2619 68.6255 25.283 68.5987 25.2883C68.5719 25.3041 68.5505 25.3147 68.5291 25.3305C68.5023 25.3464 68.4809 25.3569 68.4541 25.3728C68.4273 25.3886 68.4059 25.3992 68.3791 25.4151C68.3577 25.4203 68.3363 25.4415 68.3095 25.452C68.2827 25.4679 68.2666 25.489 68.2345 25.4943C68.2131 25.5102 68.1863 25.5207 68.1649 25.5366C68.1381 25.5524 68.1167 25.563 68.0952 25.5788C68.0685 25.5947 68.0417 25.6052 68.0203 25.6211C67.9935 25.6264 67.9721 25.6475 67.9453 25.6581C67.9238 25.6739 67.8971 25.6845 67.8756 25.7003C67.8489 25.7162 67.8274 25.7268 67.8007 25.7426C67.7792 25.7585 67.7525 25.769 67.7364 25.7849C67.6989 25.7902 67.6828 25.8113 67.6507 25.8219C67.6293 25.8377 67.6025 25.8588 67.5811 25.8641C67.5596 25.88 67.5329 25.8905 67.5061 25.9064C67.4847 25.9222 67.4579 25.9328 67.4364 25.9486C67.4097 25.9539 67.3882 25.9751 67.3615 25.9909C67.34 25.9962 67.3133 26.0173 67.2918 26.0279C67.265 26.0437 67.2436 26.0543 67.2168 26.0702C67.1954 26.086 67.1686 26.0966 67.1472 26.1124C66.9812 26.197 66.8098 26.2551 66.6384 26.2868C66.5313 26.3132 66.4081 26.329 66.2902 26.329C64.1317 26.329 62.3749 22.4407 62.3749 17.649C62.3749 12.8573 64.1317 8.97424 66.2902 8.97424C66.5848 8.97424 66.8687 9.04821 67.1526 9.18556C67.174 9.20141 67.2008 9.21198 67.2222 9.22783C67.2436 9.23311 67.2597 9.24368 67.2758 9.25424C67.2811 9.25953 67.2918 9.25953 67.2972 9.27009C67.3186 9.27538 67.3454 9.29651 67.3668 9.30707C67.3936 9.32292 67.415 9.33349 67.4418 9.34934C67.4632 9.36519 67.49 9.37575 67.5114 9.3916C67.5382 9.40745 67.565 9.41802 67.5864 9.43387C67.6078 9.43915 67.6346 9.46028 67.656 9.47085C67.6828 9.4867 67.7042 9.50783 67.7417 9.51311C67.7578 9.52896 67.7846 9.53953 67.806 9.55538C67.8328 9.57123 67.8542 9.58179 67.881 9.59764C67.9024 9.60292 67.9292 9.62406 67.9506 9.63991C67.9774 9.64519 67.9988 9.66632 68.0256 9.67689C68.047 9.69274 68.0738 9.7033 68.1006 9.71915C68.122 9.735 68.1434 9.74557 68.1702 9.76142C68.1917 9.77726 68.2184 9.78783 68.2399 9.80368C68.2774 9.80896 68.2881 9.8301 68.3148 9.84594C68.3416 9.85123 68.3631 9.87236 68.3845 9.88293C68.4113 9.89877 68.4327 9.90934 68.4595 9.92519C68.4862 9.94104 68.5077 9.9516 68.5291 9.96745C68.5559 9.97274 68.5773 9.99387 68.6041 10.0097C68.6309 10.015 68.6523 10.0361 68.6791 10.0467C68.7005 10.0625 68.7219 10.0731 68.7487 10.089C68.7755 10.1048 68.7969 10.1154 68.8237 10.1312C68.8451 10.1471 68.8719 10.1576 68.8933 10.1735C68.9201 10.1788 68.9469 10.1999 68.9683 10.2105C68.9897 10.2263 69.0165 10.2369 69.0379 10.2527C69.0647 10.2686 69.0861 10.2792 69.1236 10.295C69.1397 10.3109 69.1665 10.3214 69.1879 10.3373C69.2147 10.3426 69.2361 10.3637 69.2629 10.3795C69.2843 10.3848 69.3111 10.4059 69.3325 10.4165C69.9967 10.7176 70.5912 11.4573 71.0572 12.4927C70.7519 11.9327 70.393 11.6105 70.0181 11.6105C69.5575 11.6105 69.1397 12.0912 68.7862 12.8995C68.3202 14.0143 68.0149 15.7629 68.0149 17.7282C68.0149 19.4875 68.2613 21.0724 68.6523 22.1818C69.0004 23.2173 69.4825 23.846 70.0181 23.846C70.318 23.846 70.6073 23.64 70.8697 23.2754L70.8643 23.1909Z" fill="#DEDDE8" stroke="black" stroke-width="0.8" stroke-miterlimit="10"/>
<path d="M72 16.9465C72 16.6824 71.9732 16.4235 71.9518 16.1646C71.8232 14.7382 71.5126 13.4544 71.0734 12.4506C71.0627 12.4506 71.0573 12.4295 71.0466 12.4189C70.7467 11.8589 70.3932 11.5367 70.0129 11.5367C69.5523 11.5367 69.1238 12.0174 68.781 12.8257C68.3096 13.9405 68.0097 15.6839 68.0097 17.6492C68.0097 19.4084 68.2561 20.9933 68.6471 22.108C68.9952 23.1435 69.4773 23.7669 70.0075 23.7669C70.3075 23.7669 70.5967 23.5609 70.8484 23.1911C71.4162 22.108 71.8125 20.6235 71.9518 18.9277C71.9786 18.5103 72 18.0877 72 17.6492V17.5593C72 17.3533 72 17.1473 71.9839 16.9465H72Z" fill="#C5C4D2"/>
<path d="M72 16.9465V17.3465H72.4V16.9465H72ZM71.9518 16.1646L72.3504 16.1316L72.3502 16.1287L71.9518 16.1646ZM71.0734 12.4506L71.4398 12.2903L71.335 12.0506H71.0734V12.4506ZM71.0466 12.4189L70.694 12.6078L70.7226 12.6612L70.7657 12.7037L71.0466 12.4189ZM68.781 12.8257L68.4127 12.6696L68.4126 12.67L68.781 12.8257ZM68.6471 22.108L69.0263 21.9806L69.0245 21.9756L68.6471 22.108ZM70.8484 23.1911L71.1791 23.4161L71.192 23.3971L71.2027 23.3768L70.8484 23.1911ZM71.9518 18.9277L72.3505 18.9604L72.351 18.9533L71.9518 18.9277ZM71.9839 16.9465V16.5465H71.5506L71.5852 16.9784L71.9839 16.9465ZM72.4 16.9465C72.4 16.6611 72.3709 16.3791 72.3504 16.1316L71.5532 16.1976C71.5755 16.4679 71.6 16.7037 71.6 16.9465H72.4ZM72.3502 16.1287C72.2187 14.6693 71.8999 13.3418 71.4398 12.2903L70.7069 12.611C71.1253 13.567 71.4278 14.8071 71.5534 16.2005L72.3502 16.1287ZM71.0734 12.0506C71.2155 12.0506 71.3084 12.1243 71.3471 12.1624C71.3825 12.1973 71.4017 12.2309 71.4018 12.2309C71.4031 12.2332 71.4046 12.2356 71.4024 12.2318C71.4011 12.2298 71.3974 12.2233 71.3926 12.2158C71.3846 12.203 71.3629 12.1691 71.3275 12.1342L70.7657 12.7037C70.7357 12.6741 70.7187 12.6468 70.715 12.6409C70.7124 12.6369 70.7108 12.634 70.7116 12.6354C70.7118 12.6358 70.7118 12.6358 70.7123 12.6366C70.7126 12.6371 70.7131 12.6379 70.7136 12.6388C70.7146 12.6406 70.7162 12.6433 70.7182 12.6466C70.7223 12.6532 70.7456 12.6927 70.7853 12.7319C70.8283 12.7744 70.9259 12.8506 71.0734 12.8506V12.0506ZM71.3992 12.2301C71.0884 11.6498 70.6332 11.1367 70.0129 11.1367V11.9367C70.1531 11.9367 70.4049 12.0681 70.694 12.6078L71.3992 12.2301ZM70.0129 11.1367C69.6331 11.1367 69.3126 11.3363 69.061 11.6044C68.8094 11.8726 68.5943 12.2414 68.4127 12.6696L69.1492 12.9819C69.3105 12.6018 69.4809 12.3261 69.6445 12.1518C69.808 11.9775 69.9321 11.9367 70.0129 11.9367V11.1367ZM68.4126 12.67C67.913 13.8514 67.6097 15.6532 67.6097 17.6492H68.4097C68.4097 15.7146 68.7063 14.0296 69.1494 12.9815L68.4126 12.67ZM67.6097 17.6492C67.6097 19.4399 67.8598 21.072 68.2696 22.2404L69.0245 21.9756C68.6524 20.9146 68.4097 19.3769 68.4097 17.6492H67.6097ZM68.2679 22.2355C68.4502 22.7776 68.6765 23.241 68.9478 23.577C69.2168 23.9102 69.5726 24.1669 70.0075 24.1669V23.3669C69.9122 23.3669 69.7619 23.3119 69.5703 23.0745C69.3809 22.84 69.1921 22.474 69.0262 21.9806L68.2679 22.2355ZM70.0075 24.1669C70.5033 24.1669 70.8976 23.8297 71.1791 23.4161L70.5178 22.966C70.2958 23.2921 70.1117 23.3669 70.0075 23.3669V24.1669ZM71.2027 23.3768C71.8018 22.234 72.2081 20.694 72.3504 18.9604L71.5531 18.8949C71.417 20.553 71.0306 21.982 70.4942 23.0053L71.2027 23.3768ZM72.351 18.9533C72.378 18.5328 72.4 18.1003 72.4 17.6492H71.6C71.6 18.075 71.5792 18.4878 71.5526 18.902L72.351 18.9533ZM72.4 17.6492V17.5593H71.6V17.6492H72.4ZM72.4 17.5593C72.4 17.3563 72.4002 17.134 72.3827 16.9146L71.5852 16.9784C71.5998 17.1605 71.6 17.3504 71.6 17.5593H72.4ZM71.9839 17.3465H72V16.5465H71.9839V17.3465Z" fill="black"/>
<path d="M71.9677 18.9277C71.8445 20.8243 71.4214 22.3933 70.8643 23.1964C71.4321 22.1133 71.8284 20.6235 71.9677 18.9277Z" stroke="black" stroke-width="0.8" stroke-miterlimit="10"/>
<path d="M50.2006 10.6332H32.6112C28.3811 10.6332 24.952 14.0156 24.952 18.188V22.7948C24.952 26.9672 28.3811 30.3495 32.6112 30.3495H50.2006C54.4307 30.3495 57.8598 26.9672 57.8598 22.7948V18.188C57.8598 14.0156 54.4307 10.6332 50.2006 10.6332Z" fill="white" stroke="black" stroke-width="0.8" stroke-miterlimit="10"/>
<path d="M67.983 42.5796C68.1705 45.9238 64.6837 48.3857 61.5236 49.923C60.6131 50.3721 59.7347 50.7366 58.9741 51.0219C58.0743 51.3653 57.3458 51.6031 56.9441 51.7193L55.7819 47.9842C56.1247 47.8785 56.4728 47.7728 56.8156 47.6461C58.5135 47.0544 60.206 46.2619 61.5182 45.4536C63.034 44.5132 64.0624 43.5411 64.0195 42.8068C63.966 41.7924 63.6982 41.1109 63.2215 40.7675C62.5787 40.3079 61.4807 40.3766 60.9612 40.4664C60.7791 39.769 60.5327 39.1034 60.2488 38.4588C59.9918 37.8671 59.6918 37.2913 59.3544 36.7471C60.9398 36.5358 63.816 36.3668 65.5353 37.5977C66.5637 38.3268 67.8224 39.7902 67.9777 42.5902L67.983 42.5796Z" fill="#DEDDE8" stroke="black" stroke-width="0.8" stroke-miterlimit="10"/>
<path d="M34.47 58.7512V55.4493H28.7872V58.7512H25.5093V68.7732H46.4409V58.7512H34.47Z" fill="#E6E6FF" stroke="black" stroke-width="0.8" stroke-miterlimit="10"/>
<path d="M63.8958 58.7512V55.4493H58.2076V58.7512H46.3813V68.7732H67.313V58.7512H63.8958Z" fill="#EEEBF4" stroke="black" stroke-width="0.8" stroke-miterlimit="10"/>
<path d="M56.0815 48.7345V58.7617H35.1552V48.7345H38.4224V45.4379H44.1106V48.7345H47.4582V45.4379H53.141V48.7345H56.0815Z" fill="#C2B3FF" stroke="black" stroke-width="0.8" stroke-miterlimit="10"/>
<path d="M56.0815 38.7126V48.7345H35.1552V38.7126H38.4331V35.4054H44.116V38.7126H47.4582V35.4054H53.141V38.7126H56.0815Z" fill="#E6E6FF" stroke="black" stroke-width="0.8" stroke-miterlimit="10"/>
<path d="M57.4804 54.5986C56.6931 55.09 55.7236 55.2167 54.8452 55.5179C54.7542 55.5443 54.6631 55.5813 54.5667 55.5866C54.2079 55.613 53.8597 55.6024 53.6669 55.2432C53.4527 54.8733 53.5009 54.493 53.7419 54.1443C53.8329 54.0069 53.9936 53.9118 54.09 53.7798C54.1382 53.7164 54.1436 53.579 54.1115 53.5103C54.0686 53.4469 53.9454 53.4205 53.8597 53.4047C53.7901 53.3994 53.7205 53.4522 53.6455 53.4575C53.458 53.4945 53.2973 53.4998 53.1581 53.4786C52.8903 53.4364 52.6975 53.2937 52.5153 53.019C52.4189 52.8658 52.3814 52.6598 52.4029 52.4537C52.4189 52.2424 52.4779 52.0258 52.585 51.8515C52.7296 51.6243 53.2009 51.5345 53.0242 51.1964C52.9492 51.0379 52.5582 51.0379 52.3118 50.9481C51.7441 50.7262 51.5566 49.939 52.0065 49.4952C52.2368 49.268 52.5636 49.1043 52.8689 48.9616C52.9813 48.9141 53.0777 48.8665 53.1634 48.819C53.9186 48.4175 53.7098 48.1903 53.7098 48.1903C53.5437 48.2273 53.2706 48.3699 53.1634 48.1163C53.1474 48.1005 53.1474 48.0899 53.142 48.0688C53.1152 47.9526 53.1206 47.8469 53.1634 47.7518C53.2116 47.6092 53.3295 47.4877 53.5062 47.419C53.7098 47.3345 53.924 47.2763 54.1275 47.2235C55.3273 46.9382 56.2111 47.2182 56.8324 47.6356C57.7 48.222 58.0643 49.0779 58.0643 49.0779L58.9855 51.0167L59.1408 51.3337C59.2105 51.9624 59.1033 53.6001 57.4912 54.5933L57.4804 54.5986Z" fill="white" stroke="black" stroke-width="0.8" stroke-miterlimit="10"/>
<path d="M31.5824 41.1482C31.336 42.2048 31.2128 43.2984 31.2128 44.4237V45.0471C22.2574 44.7248 16.505 43.0818 14.0947 40.1655C14.4375 40.1286 14.7642 40.0018 15.0428 39.7112C15.0428 39.7112 16.9495 37.6614 17.0299 37.5187C17.0674 37.5716 17.1156 37.635 17.1691 37.7036C17.9404 38.6282 20.8648 40.7837 31.5824 41.1535V41.1482Z" fill="#DEDDE8" stroke="black" stroke-width="0.8" stroke-miterlimit="10"/>
<path d="M18.2625 33.0705C18.2411 33.3188 18.1447 33.5882 18.0268 33.8207C17.8715 34.1746 17.6626 34.5022 17.4752 34.8508C17.0681 35.5693 16.9931 36.272 17.277 36.9799C17.4644 37.4501 17.4752 37.8992 17.2556 38.3165C17.1806 38.4592 17.0788 38.6071 16.9503 38.7444L15.2738 40.509C14.9953 40.7995 14.6632 40.9316 14.3258 40.9633C14.149 40.9845 13.9616 40.9845 13.7795 40.9633C13.4313 40.9211 13.0778 40.8048 12.7511 40.6728C12.0601 40.3875 11.6263 39.7905 11.0853 39.3203C10.539 38.8501 9.98734 38.401 9.43031 37.9573C8.88934 37.5346 8.23054 37.1965 7.80741 36.6524C7.64137 36.441 7.6253 36.1769 7.78063 35.9233C7.91989 35.6909 8.18769 35.675 8.38051 35.712C8.61618 35.7542 8.85721 35.8652 9.05002 35.9973C9.58028 36.3512 10.0838 36.7422 10.6086 37.1014C10.7426 37.1912 10.9139 37.2546 11.0211 37.355C11.2032 37.038 11.3906 36.7475 11.5942 36.478C11.5513 36.478 10.4908 35.5588 10.4212 35.5007C9.90164 35.0463 9.14108 34.5497 8.95361 33.8471C8.81436 33.3293 9.13572 32.838 9.71418 32.9225C10.0998 32.9701 10.4962 33.1708 10.7479 33.435C11.3746 34.0637 11.9477 34.7399 12.5636 35.3844C12.9225 35.0463 13.2546 34.7822 13.5438 34.5867C13.4688 34.5444 13.4099 34.4705 13.3403 34.4018C13.0939 34.1271 12.8529 33.8576 12.6065 33.5829C12.2637 33.192 11.7656 32.7905 11.6584 32.2463C11.562 31.7867 11.7549 31.2531 12.3226 31.2372C12.7511 31.232 13.0992 31.4433 13.3349 31.7603C14.0526 32.6848 14.3044 33.9369 15.1238 34.8086C15.6112 35.3422 15.8094 35.2524 16.0558 34.4916C16.1897 34.069 16.329 33.641 16.5111 33.229C16.6717 32.875 16.9503 32.5897 17.3413 32.4471C17.9304 32.2357 18.3054 32.484 18.2625 33.0757V33.0705Z" fill="white" stroke="black" stroke-width="0.8" stroke-miterlimit="10"/>
<path d="M18.1235 37.2595L5.38674 43.5305L0.775146 34.4278L5.16714 32.2829L7.10069 35.9757L10.8125 34.1848L8.9539 30.4391L13.5494 28.1621L18.1235 37.2595Z" fill="#C2B3FF" stroke="black" stroke-width="0.8" stroke-miterlimit="10"/>
<path d="M37.3515 17.4325H36.8801C36.4512 17.4325 36.1035 17.7755 36.1035 18.1986V19.7888C36.1035 20.2118 36.4512 20.5548 36.8801 20.5548H37.3515C37.7804 20.5548 38.1281 20.2118 38.1281 19.7888V18.1986C38.1281 17.7755 37.7804 17.4325 37.3515 17.4325Z" fill="black"/>
<path d="M44.5019 17.3903H44.0306C43.6017 17.3903 43.254 17.7333 43.254 18.1563V19.7465C43.254 20.1696 43.6017 20.5126 44.0306 20.5126H44.5019C44.9309 20.5126 45.2786 20.1696 45.2786 19.7465V18.1563C45.2786 17.7333 44.9309 17.3903 44.5019 17.3903Z" fill="black"/>
<path d="M44.3696 25.763C44.3696 25.763 41.5854 23.1489 37.6861 25.763" stroke="black" stroke-width="0.8" stroke-miterlimit="10"/>
<path d="M32.8364 16.9993C32.8364 16.9993 33.7683 15.0287 37.0677 14.754" stroke="black" stroke-width="0.8" stroke-miterlimit="10"/>
<path d="M49.4133 16.6821C49.4133 16.6821 48.4813 14.7116 45.1819 14.4369" stroke="black" stroke-width="0.8" stroke-miterlimit="10"/>
<path d="M13.2317 18.0369C13.2317 18.0369 10.4305 16.2935 10.0288 17.4082C9.6271 18.523 13.2317 18.0369 13.2317 18.0369Z" fill="#24D76C" stroke="#221F20" stroke-width="0.8" stroke-miterlimit="10"/>
<path d="M14.2517 21.9558C14.2517 21.9558 7.3047 21.3446 7.63867 23.8067C7.97264 26.2688 14.2517 21.9558 14.2517 21.9558Z" fill="#24D76C" stroke="#221F20" stroke-width="0.8" stroke-miterlimit="10"/>
<path d="M20.132 58.7544H6.18561V68.8905H20.132V58.7544Z" fill="#EEEBF4" stroke="black" stroke-width="0.8" stroke-miterlimit="10"/>
<path d="M59.8317 11.6269C59.1461 11.6269 58.5248 11.1672 58.3588 10.4804C57.2019 5.73099 49.0981 6.49175 49.0124 6.49703C48.1822 6.58685 47.4323 5.98458 47.3466 5.16043C47.2609 4.33627 47.8662 3.60193 48.7017 3.5174C49.1409 3.46985 59.5425 2.50834 61.31 9.7778C61.5028 10.5808 61.0047 11.3891 60.1852 11.5846C60.0674 11.611 59.9495 11.6269 59.8317 11.6269Z" fill="white"/>
<path d="M44.2989 6.43332H41.2138C40.3729 6.43332 39.698 5.76237 39.698 4.93822C39.698 4.11406 40.3782 3.44312 41.2138 3.44312H44.2989C45.1398 3.44312 45.8147 4.11406 45.8147 4.93822C45.8147 5.76237 45.1344 6.43332 44.2989 6.43332Z" fill="white"/>
</svg>
