<svg width="242" height="178" viewBox="0 0 242 178" fill="none" xmlns="http://www.w3.org/2000/svg">
<g id="Group 1527">
<path id="Vector" d="M121.085 177.111C187.551 177.111 241.433 151.754 241.433 120.474C241.433 89.1948 187.551 63.8379 121.085 63.8379C54.6181 63.8379 0.736328 89.1948 0.736328 120.474C0.736328 151.754 54.6181 177.111 121.085 177.111Z" fill="#D9EEE8"/>
<path id="Vector_2" d="M121.085 120.273C187.551 120.273 241.433 94.9157 241.433 63.6363C241.433 32.3569 187.551 7 121.085 7C54.6181 7 0.736328 32.3569 0.736328 63.6363C0.736328 94.9157 54.6181 120.273 121.085 120.273Z" fill="#D9EEE8"/>
<path id="Vector_3" d="M89.595 67.6971C88.9451 67.6565 88.3087 67.4805 87.6993 67.169C87.6452 67.1284 87.5775 67.1013 87.5098 67.0607C87.4556 67.0201 87.3879 66.993 87.3337 66.9524C87.266 66.9389 87.2119 66.8847 87.1442 66.8576C87.09 66.817 87.0223 66.7628 86.9682 66.7493C86.9004 66.7087 86.8463 66.6816 86.7786 66.641C86.738 66.6003 86.6567 66.5733 86.6026 66.5326C86.5348 66.5191 86.4807 66.4649 86.413 66.4243C86.3588 66.4108 86.3047 66.3566 86.237 66.3295C86.1692 66.2889 86.1151 66.2618 86.0474 66.2212C85.9932 66.1806 85.9255 66.1535 85.8714 66.1129C85.8037 66.0723 85.7495 66.0452 85.6818 66.0045C85.6276 65.991 85.5599 65.9368 85.5058 65.9098C85.4381 65.8691 85.3839 65.8421 85.3162 65.8014C85.262 65.7608 85.1943 65.7337 85.1402 65.6931C85.0725 65.6525 85.0318 65.6254 84.9506 65.5848C84.8964 65.5712 84.8287 65.5171 84.7746 65.4765C84.7069 65.4629 84.6527 65.4088 84.5985 65.3817C84.5308 65.3411 84.4631 65.314 84.409 65.2734C84.3413 65.2327 84.2871 65.2056 84.2194 65.165C84.1652 65.1244 84.0975 65.0973 84.0434 65.0567C83.9757 65.0432 83.9215 64.989 83.8538 64.9484C83.7996 64.9348 83.7319 64.8807 83.6913 64.8536C83.5965 64.813 83.5559 64.7859 83.4747 64.7453C83.4205 64.7046 83.3528 64.6776 83.2986 64.6369C83.2445 64.6234 83.1768 64.5692 83.1091 64.5286C83.0549 64.5151 82.9872 64.4609 82.933 64.4338C82.8653 64.3932 82.8112 64.3661 82.7435 64.3255C82.6893 64.2849 82.6216 64.2578 82.5674 64.2172C82.4997 64.1766 82.4456 64.1495 82.3779 64.1089C82.3237 64.0953 82.256 64.0412 82.2018 64.0141C78.3292 62.2402 75.418 54.5762 75.418 45.3686C75.418 36.1609 78.3292 28.5105 82.2018 26.7366C82.256 26.7231 82.3237 26.6689 82.3779 26.6418C82.4456 26.6012 82.4997 26.5471 82.5674 26.5335C82.6216 26.4929 82.6893 26.4658 82.7435 26.4252C82.8112 26.3846 82.8653 26.3575 82.933 26.3169C82.9872 26.2763 83.0549 26.2492 83.1091 26.2085C83.1768 26.195 83.2445 26.1408 83.2986 26.1138C83.3528 26.0731 83.4205 26.0461 83.4747 26.0054C83.5424 25.9648 83.5965 25.9377 83.6913 25.8971C83.7319 25.8565 83.7996 25.8294 83.8538 25.7888C83.9215 25.7752 83.9757 25.7211 84.0434 25.694C84.0975 25.6534 84.1652 25.5992 84.2194 25.5857C84.2871 25.5451 84.3413 25.518 84.409 25.4774C84.4631 25.4367 84.5308 25.4096 84.5985 25.369C84.6527 25.3555 84.7069 25.3013 84.7746 25.2742C84.8287 25.2336 84.8964 25.1795 84.9506 25.1659C85.0454 25.1253 85.0725 25.0982 85.1402 25.0576C85.1943 25.017 85.262 24.9899 85.3162 24.9493C85.3839 24.9086 85.4381 24.8816 85.5058 24.8409C85.5599 24.8274 85.6276 24.7732 85.6818 24.7462C85.7495 24.7055 85.8037 24.6514 85.8714 24.6378C85.9255 24.5972 85.9932 24.5701 86.0474 24.5295C86.1151 24.4889 86.1692 24.4618 86.237 24.4212C86.3047 24.4076 86.3588 24.3535 86.413 24.3129C86.4807 24.2993 86.5348 24.2452 86.6026 24.2181C86.6567 24.1774 86.738 24.1504 86.7786 24.1097C86.8463 24.0691 86.9004 24.042 86.9682 24.0014C87.0223 23.9608 87.09 23.9337 87.1442 23.8931C87.2119 23.8796 87.266 23.8254 87.3337 23.7983C87.3879 23.7577 87.4556 23.7035 87.5098 23.69C87.5775 23.6494 87.6452 23.6223 87.6993 23.5817C87.8348 23.514 87.9837 23.4463 88.1462 23.3921C84.5579 29.526 82.4727 36.6619 82.4727 44.2989C82.4727 52.9107 85.0995 60.8997 89.595 67.5076V67.6971Z" fill="#DEDDE8" stroke="black" stroke-miterlimit="10"/>
<path id="Vector_4" d="M186.568 114.196V134.304C186.568 148.508 178.836 160.897 167.381 167.505C165.864 168.385 164.239 169.184 162.587 169.834C158.16 171.622 153.326 172.61 148.248 172.61C145.337 172.61 142.507 172.285 139.785 171.649C132.161 169.929 125.418 165.962 120.273 160.464C116.915 156.903 114.247 152.665 112.473 148.02C110.835 143.768 109.928 139.138 109.928 134.29V114.182C109.928 111.298 110.253 108.482 110.876 105.787C112.609 97.9875 116.725 91.1088 122.399 85.8822C122.669 85.9092 122.927 85.9092 123.198 85.9092H165.065C167.855 85.9092 170.563 85.6249 173.19 85.0833C173.934 85.7197 174.666 86.3967 175.343 87.0873C177.55 89.2944 179.5 91.7994 181.097 94.494C181.937 95.8887 182.709 97.3646 183.359 98.8812C184.076 100.52 184.699 102.239 185.16 104.027C186.08 107.249 186.554 110.675 186.554 114.182L186.568 114.196Z" fill="#DEDDE8" stroke="black" stroke-miterlimit="10"/>
<path id="Vector_5" d="M201.354 23.9611C201.354 23.9611 201.259 23.907 201.218 23.8934C201.164 23.8528 201.097 23.8257 201.042 23.7851C200.338 23.433 199.607 23.2435 198.862 23.2435C193.406 23.2435 188.964 33.2094 188.964 45.4772C188.964 57.7451 193.406 67.7245 198.862 67.7245C199.16 67.7245 199.485 67.6839 199.743 67.6162C198.24 69.8369 196.547 71.8951 194.651 73.7908C188.978 79.4778 181.666 83.513 173.501 85.1243C170.874 85.6524 168.166 85.9367 165.376 85.9367H123.509C123.238 85.9367 122.981 85.9367 122.71 85.9232C108.763 85.6795 96.495 78.5029 89.1966 67.7245C84.7011 61.1167 82.0742 53.1277 82.0742 44.5159C82.0742 36.8789 84.1595 29.743 87.7478 23.6091C89.5351 20.5353 91.7016 17.7189 94.2202 15.2139C101.708 7.72588 112.067 3.09497 123.509 3.09497H165.376C180.772 3.09497 194.218 11.5037 201.354 23.9882V23.9611Z" fill="#DEDDE8" stroke="black" stroke-miterlimit="10"/>
<path id="Vector_6" d="M210.169 59.7756C209.072 61.915 207.745 63.4315 206.283 64.1086C206.229 64.1221 206.161 64.1763 206.107 64.2034C206.039 64.244 205.985 64.2711 205.917 64.3117C205.863 64.3523 205.795 64.3794 205.755 64.42C205.66 64.4606 205.619 64.4877 205.538 64.5283C205.484 64.5419 205.416 64.596 205.362 64.6231C205.308 64.6637 205.24 64.7179 205.172 64.7314C205.118 64.7721 205.051 64.7991 204.996 64.8398C204.929 64.8804 204.875 64.9075 204.807 64.9481C204.739 64.9616 204.685 65.0158 204.631 65.0429C204.563 65.0835 204.509 65.1377 204.441 65.1512C204.374 65.1918 204.319 65.2189 204.265 65.2595C204.198 65.3002 204.143 65.3272 204.076 65.3679C204.008 65.4085 203.954 65.4356 203.886 65.4762C203.832 65.4897 203.778 65.5439 203.71 65.571C203.642 65.6116 203.602 65.6657 203.521 65.6793C203.466 65.7199 203.399 65.747 203.344 65.7876C203.277 65.8282 203.223 65.8553 203.168 65.8959C203.101 65.9366 203.033 65.9636 202.979 66.0043C202.911 66.0178 202.857 66.072 202.789 66.0991C202.735 66.1397 202.667 66.1668 202.613 66.2074C202.546 66.248 202.491 66.2751 202.424 66.3157C202.37 66.3563 202.302 66.3834 202.261 66.424C202.166 66.4376 202.126 66.4917 202.045 66.5188C201.99 66.5594 201.923 66.6136 201.869 66.6271C201.814 66.6678 201.747 66.6948 201.679 66.7355C201.625 66.7761 201.557 66.8032 201.503 66.8438C201.435 66.8573 201.381 66.9115 201.313 66.9521C201.259 66.9657 201.192 67.0198 201.137 67.0469C201.07 67.0875 201.015 67.1146 200.948 67.1552C200.894 67.1958 200.826 67.2229 200.772 67.2635C200.352 67.4802 199.919 67.6291 199.485 67.7104C199.215 67.7781 198.903 67.8187 198.605 67.8187C193.148 67.8187 188.707 57.8528 188.707 45.5714C188.707 33.29 193.148 23.3376 198.605 23.3376C199.35 23.3376 200.068 23.5272 200.785 23.8793C200.839 23.9199 200.907 23.947 200.961 23.9876C201.015 24.0011 201.056 24.0282 201.097 24.0553C201.11 24.0688 201.137 24.0688 201.151 24.0959C201.205 24.1095 201.273 24.1636 201.327 24.1907C201.395 24.2313 201.449 24.2584 201.516 24.299C201.571 24.3397 201.638 24.3667 201.693 24.4074C201.76 24.448 201.828 24.4751 201.882 24.5157C201.936 24.5292 202.004 24.5834 202.058 24.6105C202.126 24.6511 202.18 24.7053 202.275 24.7188C202.315 24.7594 202.383 24.7865 202.437 24.8271C202.505 24.8677 202.559 24.8948 202.627 24.9354C202.681 24.949 202.749 25.0031 202.803 25.0438C202.871 25.0573 202.925 25.1115 202.992 25.1386C203.047 25.1792 203.114 25.2063 203.182 25.2469C203.236 25.2875 203.29 25.3146 203.358 25.3552C203.412 25.3958 203.48 25.4229 203.534 25.4635C203.629 25.4771 203.656 25.5312 203.724 25.5719C203.791 25.5854 203.845 25.6396 203.9 25.6666C203.967 25.7073 204.022 25.7343 204.089 25.775C204.157 25.8156 204.211 25.8427 204.265 25.8833C204.333 25.8968 204.387 25.951 204.455 25.9916C204.523 26.0052 204.577 26.0593 204.644 26.0864C204.699 26.127 204.753 26.1541 204.82 26.1947C204.888 26.2353 204.942 26.2624 205.01 26.303C205.064 26.3437 205.132 26.3708 205.186 26.4114C205.254 26.4249 205.321 26.4791 205.376 26.5062C205.43 26.5468 205.497 26.5739 205.552 26.6145C205.619 26.6551 205.673 26.6822 205.768 26.7228C205.809 26.7634 205.877 26.7905 205.931 26.8311C205.998 26.8447 206.053 26.8988 206.12 26.9395C206.174 26.953 206.242 27.0072 206.296 27.0342C207.975 27.8061 209.478 29.7018 210.656 32.3557C209.885 30.9204 208.977 30.0944 208.03 30.0944C206.865 30.0944 205.809 31.3266 204.915 33.3984C203.737 36.2554 202.965 40.7374 202.965 45.7745C202.965 50.2836 203.588 54.3458 204.577 57.1893C205.457 59.8433 206.675 61.4546 208.03 61.4546C208.788 61.4546 209.519 60.9265 210.183 59.9922L210.169 59.7756Z" fill="#DEDDE8" stroke="black" stroke-miterlimit="10"/>
<path id="Vector_7" d="M213.039 43.7709C213.039 43.0939 212.971 42.4304 212.917 41.7669C212.592 38.1109 211.807 34.8205 210.696 32.2478C210.669 32.2478 210.656 32.1936 210.629 32.1666C209.87 30.7313 208.977 29.9053 208.015 29.9053C206.851 29.9053 205.768 31.1375 204.901 33.2092C203.709 36.0663 202.951 40.5347 202.951 45.5718C202.951 50.0809 203.574 54.1431 204.563 57.0001C205.443 59.6541 206.661 61.2519 208.002 61.2519C208.76 61.2519 209.491 60.7238 210.128 59.776C211.563 57.0001 212.565 53.1952 212.917 48.8487C212.985 47.7789 213.039 46.6957 213.039 45.5718V45.3416C213.039 44.8135 213.039 44.2855 212.998 43.7709H213.039ZM208.029 55.9304C207.081 55.9304 206.242 54.7253 205.632 52.8025V52.7754C205.036 50.9204 204.671 48.3747 204.671 45.5718C204.671 42.3627 205.145 39.4921 205.903 37.5828C206.485 36.0934 207.23 35.2132 208.029 35.2132C209.87 35.2132 211.36 39.8441 211.36 45.5718C211.36 51.2995 209.87 55.9304 208.029 55.9304Z" fill="#FBF9FF" stroke="black" stroke-miterlimit="10"/>
<path id="Vector_8" d="M211.359 45.5715C211.359 51.2992 209.87 55.9301 208.028 55.9301C207.08 55.9301 206.241 54.725 205.631 52.8022V52.7751C205.036 50.9201 204.67 48.3744 204.67 45.5715C204.67 42.3624 205.144 39.4917 205.902 37.5825C206.484 36.093 207.229 35.2129 208.028 35.2129C209.87 35.2129 211.359 39.8438 211.359 45.5715Z" fill="#C5C4D2" stroke="black" stroke-miterlimit="10"/>
<path id="Vector_9" d="M212.957 48.8486C212.646 53.7097 211.576 57.7313 210.168 59.7895C211.603 57.0137 212.605 53.1952 212.957 48.8486Z" stroke="black" stroke-miterlimit="10"/>
<path id="Vector_10" d="M211.359 45.5715C211.359 51.2992 209.856 55.9301 208.015 55.9301C207.08 55.9301 206.227 54.725 205.631 52.8022C205.036 50.9336 204.684 48.388 204.684 45.5715C204.684 42.3488 205.158 39.4917 205.902 37.5825C206.484 36.093 207.229 35.2129 208.028 35.2129C209.87 35.2129 211.373 39.8438 211.373 45.5715H211.359Z" stroke="black" stroke-miterlimit="10"/>
<path id="Vector_11" d="M157.928 27.5896H113.461C102.767 27.5896 94.0977 36.2588 94.0977 46.9527V58.7602C94.0977 69.4542 102.767 78.1233 113.461 78.1233H157.928C168.622 78.1233 177.291 69.4542 177.291 58.7602V46.9527C177.291 36.2588 168.622 27.5896 157.928 27.5896Z" fill="white" stroke="black" stroke-miterlimit="10"/>
<path id="Vector_12" d="M202.883 109.47C203.357 118.041 194.542 124.351 186.553 128.291C184.251 129.442 182.03 130.376 180.107 131.108C177.833 131.988 175.991 132.597 174.975 132.895L172.037 123.322C172.904 123.051 173.784 122.78 174.65 122.455C178.943 120.939 183.222 118.907 186.539 116.836C190.371 114.425 192.971 111.934 192.863 110.052C192.727 107.452 192.05 105.705 190.845 104.825C189.22 103.647 186.444 103.823 185.131 104.053C184.671 102.266 184.048 100.56 183.33 98.9079C182.68 97.3913 181.922 95.9154 181.069 94.5207C185.077 93.9791 192.348 93.5458 196.695 96.7008C199.294 98.5694 202.477 102.32 202.869 109.497L202.883 109.47Z" fill="#DEDDE8" stroke="black" stroke-miterlimit="10"/>
<path id="Vector_13" d="M118.159 150.918V142.455H103.793V150.918H95.5059V176.605H148.423V150.918H118.159Z" fill="#E6E6FF" stroke="black" stroke-miterlimit="10"/>
<path id="Vector_14" d="M192.551 150.918V142.455H178.171V150.918H148.273V176.605H201.19V150.918H192.551Z" fill="#EEEBF4" stroke="black" stroke-miterlimit="10"/>
<path id="Vector_15" d="M172.796 125.245V150.945H119.893V125.245H128.152V116.795H142.533V125.245H150.995V116.795H165.362V125.245H172.796Z" fill="#C2B3FF" stroke="black" stroke-miterlimit="10"/>
<path id="Vector_16" d="M172.796 99.5582V125.245H119.893V99.5582H128.179V91.0818H142.546V99.5582H150.995V91.0818H165.362V99.5582H172.796Z" fill="#E6E6FF" stroke="black" stroke-miterlimit="10"/>
<path id="Vector_17" d="M176.33 140.275C174.34 141.534 171.889 141.859 169.668 142.631C169.438 142.699 169.208 142.794 168.964 142.807C168.057 142.875 167.177 142.848 166.689 141.927C166.148 140.979 166.27 140.004 166.879 139.111C167.109 138.758 167.515 138.515 167.759 138.176C167.881 138.014 167.894 137.662 167.813 137.486C167.705 137.323 167.393 137.255 167.177 137.215C167.001 137.201 166.825 137.337 166.635 137.35C166.161 137.445 165.755 137.459 165.403 137.404C164.726 137.296 164.238 136.93 163.778 136.226C163.534 135.834 163.44 135.306 163.494 134.777C163.534 134.236 163.683 133.681 163.954 133.234C164.32 132.652 165.511 132.421 165.064 131.555C164.875 131.149 163.886 131.149 163.264 130.918C161.828 130.35 161.354 128.332 162.492 127.195C163.074 126.612 163.9 126.193 164.672 125.827C164.956 125.705 165.2 125.583 165.417 125.462C167.326 124.432 166.798 123.85 166.798 123.85C166.378 123.945 165.687 124.311 165.417 123.661C165.376 123.62 165.376 123.593 165.362 123.539C165.295 123.241 165.308 122.97 165.417 122.726C165.538 122.361 165.836 122.049 166.283 121.873C166.798 121.657 167.339 121.508 167.854 121.372C170.887 120.641 173.121 121.359 174.692 122.428C176.885 123.931 177.806 126.125 177.806 126.125L180.135 131.094L180.528 131.907C180.704 133.518 180.433 137.716 176.357 140.261L176.33 140.275Z" fill="white" stroke="black" stroke-miterlimit="10"/>
<path id="Vector_18" d="M110.861 105.801C110.238 108.509 109.926 111.312 109.926 114.196V115.794C87.2864 114.968 72.7437 110.757 66.6504 103.282C67.517 103.187 68.343 102.862 69.0471 102.118C69.0471 102.118 73.8676 96.8639 74.0707 96.4983C74.1655 96.6337 74.2873 96.7962 74.4227 96.9722C76.3726 99.3418 83.7658 104.866 110.861 105.814V105.801Z" fill="#DEDDE8" stroke="black" stroke-miterlimit="10"/>
<path id="Vector_19" d="M77.1853 85.0973C77.1311 85.7337 76.8874 86.4243 76.5895 87.0201C76.1968 87.9273 75.6687 88.7668 75.1948 89.6605C74.1657 91.502 73.9762 93.3029 74.6938 95.1174C75.1677 96.3225 75.1948 97.4735 74.6397 98.5432C74.4501 98.9088 74.1928 99.2879 73.8678 99.64L69.6296 104.163C68.9255 104.907 68.086 105.246 67.2329 105.327C66.7861 105.381 66.3122 105.381 65.8518 105.327C64.9716 105.219 64.0779 104.921 63.252 104.582C61.5052 103.851 60.4084 102.321 59.0408 101.116C57.6597 99.9108 56.265 98.7598 54.8568 97.6224C53.4891 96.5392 51.8236 95.6725 50.7539 94.2779C50.3342 93.7362 50.2935 93.0592 50.6862 92.4093C51.0383 91.8135 51.7153 91.7728 52.2028 91.8676C52.7986 91.976 53.4079 92.2603 53.8954 92.5988C55.2359 93.506 56.5087 94.508 57.8357 95.4288C58.1742 95.659 58.6075 95.8215 58.8783 96.0788C59.3387 95.2663 59.8126 94.5216 60.3272 93.831C60.2189 93.831 57.5378 91.4749 57.3618 91.326C56.0483 90.1615 54.1256 88.8887 53.6516 87.0878C53.2996 85.7608 54.112 84.5015 55.5744 84.7182C56.5493 84.84 57.5513 85.3546 58.1878 86.0316C59.772 87.6429 61.2209 89.3761 62.778 91.0281C63.6853 90.1615 64.5248 89.4845 65.256 88.9835C65.0664 88.8751 64.9175 88.6856 64.7414 88.5095C64.1186 87.8054 63.5092 87.1149 62.8864 86.4107C62.0198 85.4087 60.7605 84.3796 60.4897 82.985C60.2459 81.8069 60.7334 80.4393 62.1687 80.3987C63.252 80.3851 64.1321 80.9268 64.7279 81.7392C66.5423 84.1088 67.1788 87.318 69.2505 89.5522C70.4827 90.9198 70.9837 90.6896 71.6065 88.7397C71.9451 87.6565 72.2971 86.5597 72.7575 85.5035C73.1637 84.5963 73.8678 83.8651 74.8563 83.4995C76.3458 82.9579 77.2936 83.5943 77.1853 85.1108V85.0973Z" fill="white" stroke="black" stroke-miterlimit="10"/>
<path id="Vector_20" d="M76.8328 95.8341L44.6331 111.907L32.9746 88.5763L44.078 83.0788L48.9661 92.5437L58.3498 87.9534L53.6512 78.3531L65.2691 72.5171L76.8328 95.8341Z" fill="#C2B3FF" stroke="black" stroke-miterlimit="10"/>
<path id="Vector_21" d="M125.444 45.0166H124.252C123.168 45.0166 122.289 45.8956 122.289 46.98V51.0557C122.289 52.1401 123.168 53.0191 124.252 53.0191H125.444C126.528 53.0191 127.407 52.1401 127.407 51.0557V46.98C127.407 45.8956 126.528 45.0166 125.444 45.0166Z" fill="black"/>
<path id="Vector_22" d="M143.52 44.9082H142.329C141.244 44.9082 140.365 45.7872 140.365 46.8716V50.9473C140.365 52.0317 141.244 52.9107 142.329 52.9107H143.52C144.605 52.9107 145.484 52.0317 145.484 50.9473V46.8716C145.484 45.7872 144.605 44.9082 143.52 44.9082Z" fill="black"/>
<path id="Vector_23" d="M143.562 65.3007C143.562 65.3007 152.621 69.3629 158.904 60.6833" stroke="black" stroke-miterlimit="10"/>
<path id="Vector_24" d="M114.029 43.9061C114.029 43.9061 116.385 38.8555 124.726 38.1514" stroke="black" stroke-miterlimit="10"/>
<path id="Vector_25" d="M155.937 43.0934C155.937 43.0934 153.581 38.0427 145.24 37.3386" stroke="black" stroke-miterlimit="10"/>
<path id="Vector_26" d="M71.0122 21.7141C71.0122 21.7141 63.9305 17.2457 62.9149 20.1028C61.8994 22.9599 71.0122 21.7141 71.0122 21.7141Z" fill="#24D76C" stroke="#221F20" stroke-miterlimit="10"/>
<path id="Vector_27" d="M75.7753 13.2368C75.7753 13.2368 67.5291 -2.34849 62.695 1.79495C57.861 5.93839 75.7753 13.2368 75.7753 13.2368Z" fill="#24D76C" stroke="#221F20" stroke-miterlimit="10"/>
<path id="Vector_28" d="M81.914 150.926H46.6562V176.906H81.914V150.926Z" fill="#EEEBF4" stroke="black" stroke-miterlimit="10"/>
<g id="Group">
<path id="Vector_29" d="M182.275 30.1364C180.542 30.1364 178.971 28.9584 178.551 27.1981C175.627 15.025 155.14 16.9749 154.923 16.9884C152.824 17.2186 150.928 15.675 150.712 13.5626C150.495 11.4503 152.025 9.56815 154.138 9.3515C155.248 9.22963 181.544 6.76523 186.012 25.3972C186.5 27.4554 185.241 29.5271 183.169 30.0281C182.871 30.0958 182.573 30.1364 182.275 30.1364Z" fill="white"/>
<path id="Vector_30" d="M143.006 16.8251H135.207C133.081 16.8251 131.375 15.1055 131.375 12.9931C131.375 10.8808 133.095 9.16113 135.207 9.16113H143.006C145.132 9.16113 146.838 10.8808 146.838 12.9931C146.838 15.1055 145.119 16.8251 143.006 16.8251Z" fill="white"/>
</g>
</g>
</svg>
