<svg width="305" height="302" viewBox="0 0 305 302" fill="none" xmlns="http://www.w3.org/2000/svg">
<ellipse cx="164" cy="244.5" rx="82" ry="9.5" fill="#C2B3FF"/>
<path d="M210 144.074V215.926C210 233.088 197.759 247 182.63 247C176.178 247 169.96 244.179 165.12 239.379C162.727 237.016 153.178 224.92 156.704 221.361C160.398 217.639 163.976 212.913 159.696 207.448C157.367 204.48 153.699 201.866 156.379 197.686C158.265 194.747 162.284 192.354 161.608 188.012C160.932 183.67 155.806 182.134 155.624 177.511C155.455 173.406 159.266 171.545 160.997 168.473C164.054 163.082 159.084 159.848 156.743 155.771C154.518 151.902 154.922 146.703 155.286 142.317C156.613 126.071 167.982 113 182.643 113C190.201 113 197.056 116.471 201.987 122.098C206.943 127.725 210 135.479 210 144.059V144.074Z" fill="#0F0017" stroke="#221F20" stroke-linejoin="round"/>
<path d="M27 166.167C27 166.167 53.0973 165.306 71.4997 144.348L89.9021 123.376L119.429 143.487C119.429 143.487 101.027 177.722 63.8048 188.417L27.013 166.167H27Z" fill="#DEEEE9" stroke="#221F20" stroke-linejoin="round"/>
<path d="M129.195 70.6098C129.195 70.6098 104.976 65.3408 82.765 81.7347L60.5673 98.1417L38.4609 71.3532C38.4609 71.3532 64.0104 41.852 100.946 40L129.195 70.6098Z" fill="#DEEEE9" stroke="#221F20" stroke-linejoin="round"/>
<path d="M213 142.074V213.926C213 231.088 200.759 245 185.63 245C179.178 245 172.96 242.179 168.12 237.379C165.727 235.016 156.178 222.92 159.704 219.361C163.398 215.639 166.976 210.913 162.696 205.448C160.367 202.48 156.699 199.866 159.379 195.686C161.265 192.747 165.284 190.354 164.608 186.012C163.932 181.67 158.806 180.134 158.624 175.511C158.455 171.406 162.266 169.545 163.997 166.473C167.054 161.082 162.084 157.848 159.743 153.771C157.518 149.902 157.922 144.703 158.286 140.317C159.613 124.071 170.982 111 185.643 111C193.201 111 200.056 114.471 204.987 120.098C209.943 125.725 213 133.479 213 142.059V142.074Z" fill="#C5C4D2" stroke="#221F20" stroke-linejoin="round"/>
<path d="M224 144.074V215.926C224 233.088 211.759 247 196.63 247C190.178 247 183.96 244.179 179.12 239.379C176.727 237.016 167.178 224.92 170.704 221.361C174.398 217.639 177.976 212.913 173.696 207.448C171.367 204.48 167.699 201.866 170.379 197.686C172.265 194.747 176.284 192.354 175.608 188.012C174.932 183.67 169.806 182.134 169.624 177.511C169.455 173.406 173.266 171.545 174.997 168.473C178.054 163.082 173.084 159.848 170.743 155.771C168.518 151.902 168.922 146.703 169.286 142.317C170.613 126.071 181.982 113 196.643 113C204.201 113 211.056 116.471 215.987 122.098C220.943 127.725 224 135.479 224 144.059V144.074Z" fill="white" stroke="#221F20" stroke-linejoin="round"/>
<path d="M96.8588 94.3368C95.9553 93.8427 96.2983 92.4704 97.328 92.4594L198.477 91.3878C199.812 91.3736 201.13 91.6941 202.31 92.3201L251.107 118.205C252.029 118.694 251.679 120.091 250.636 120.088L143.72 119.825C143.553 119.824 143.389 119.782 143.243 119.702L96.8588 94.3368Z" fill="url(#paint0_linear_1952_241538)" stroke="black" stroke-linejoin="round"/>
<path d="M250.693 119H147C144.791 119 143 120.791 143 123V141.749C143 143.959 144.791 145.749 147 145.749H250.693C252.902 145.749 254.693 143.959 254.693 141.749V123C254.693 120.791 252.902 119 250.693 119Z" fill="white" stroke="#221F20" stroke-linejoin="round"/>
<path d="M97.9546 92.6048C96.6219 91.8809 95 92.8457 95 94.3623V114.674C95 115.376 95.3687 116.027 95.9712 116.389L143.971 145.183C145.304 145.983 147 145.022 147 143.468V120.433C147 119.7 146.599 119.026 145.955 118.676L97.9546 92.6048Z" fill="#DEDDE8" stroke="#221F20" stroke-linejoin="round"/>
<path d="M137.115 127.614C133.802 127.262 130.62 127.471 127.62 128.084L121.216 124.328L112.309 119.098L102.644 113.424L99.5273 111.598V105.912L103.818 108.403H103.831L105.722 109.499L119.312 117.337L128.911 122.88L137.115 127.614Z" fill="#A19CAC" stroke="#221F20" stroke-linejoin="round"/>
<path d="M137.115 127.614C133.802 127.262 130.62 127.471 127.62 128.084C112.804 131.07 102.488 143.604 102.488 143.604L64.1309 121.224C77.4469 101.517 99.2924 105.782 99.2924 105.782L99.5271 105.912L103.818 108.403H103.831L105.722 109.499L119.312 117.337L128.911 122.88L137.115 127.614Z" fill="#DEEEE9" stroke="#221F20" stroke-linejoin="round"/>
<path d="M128.911 122.88C126.381 122.867 123.773 123.428 121.216 124.328C110.887 127.954 101.366 137.188 101.366 137.188L72.165 119.894C77.2123 110.021 91.0891 108.339 99.5274 108.299C101.21 108.286 102.684 108.339 103.818 108.404" stroke="#16CC86" stroke-linejoin="round"/>
<path d="M47.9033 71.5875C47.9033 71.5875 74.9527 46.2075 99.3675 46.2075L117.5 64.5C117.5 64.5 82.0805 62.9332 61.5 89.5L47.9033 71.5744V71.5875Z" fill="#DEEEE9" stroke="#16CC86" stroke-linejoin="round"/>
<path d="M81.0562 68.5879C85.0322 68.5879 88.2554 65.3647 88.2554 61.3887C88.2554 57.4127 85.0322 54.1895 81.0562 54.1895C77.0801 54.1895 73.8569 57.4127 73.8569 61.3887C73.8569 65.3647 77.0801 68.5879 81.0562 68.5879Z" fill="#DEEEE9" stroke="#16CC86" stroke-linejoin="round"/>
<path d="M119.312 117.337C117.904 118.642 115.256 119.294 112.309 119.098C111.422 119.033 110.496 118.889 109.57 118.668C105.696 117.716 102.997 115.577 102.644 113.425C102.54 112.916 102.592 112.394 102.801 111.886C103.231 110.829 104.288 110.008 105.722 109.499L119.312 117.337Z" fill="#DEEEE9" stroke="#16CC86" stroke-linejoin="round"/>
<path d="M137.428 123.832V133.836L127.62 128.084C130.62 127.471 133.802 127.262 137.115 127.614L128.911 122.88L119.312 117.337L105.722 109.499L103.831 108.403H103.818L99.5273 105.912V101.595L112.387 109.134L120.016 113.607L137.428 123.832Z" fill="#0F0017" stroke="#221F20" stroke-linejoin="round"/>
<path d="M266.199 194.877C267.267 195.171 267.267 196.829 266.199 197.123C258.74 199.139 256.163 201.722 254.131 209.197C253.838 210.268 252.162 210.268 251.869 209.197C249.837 201.743 247.281 199.16 239.801 197.123C238.733 196.829 238.733 195.171 239.801 194.877C247.26 192.84 249.837 190.278 251.869 182.803C252.162 181.732 253.838 181.732 254.11 182.803C256.143 190.257 258.698 192.84 266.178 194.877H266.199Z" fill="#00FF99" stroke="#221F20" stroke-miterlimit="10"/>
<path d="M43.5135 40.818C44.1622 40.9964 44.1622 42.0036 43.5135 42.182C38.9852 43.4059 37.4207 44.9739 36.1869 49.5124C36.0088 50.1625 34.9912 50.1625 34.8131 49.5124C33.5793 44.9867 32.0275 43.4186 27.4865 42.182C26.8378 42.0036 26.8378 40.9964 27.4865 40.818C32.0148 39.5814 33.5793 38.0261 34.8131 33.4876C34.9912 32.8375 36.0088 32.8375 36.1741 33.4876C37.408 38.0133 38.9598 39.5814 43.5007 40.818H43.5135Z" fill="#00FF99" stroke="#221F20" stroke-miterlimit="10"/>
<path d="M229.216 53.8732V33" stroke="black"/>
<path d="M229.216 85.4189V64.5457" stroke="black"/>
<path d="M234.546 59.2158H255.419" stroke="black"/>
<path d="M203 59.2158H223.873" stroke="black"/>
<path d="M220.284 50.2842L225.438 55.4384" stroke="black"/>
<path d="M238.54 50.2842L233.386 55.4384" stroke="black"/>
<path d="M238.54 67.8378L233.386 62.6836" stroke="black"/>
<path d="M220.284 67.8378L225.438 62.6836" stroke="black"/>
<path d="M86.5 135C82 143.167 66.1 160.4 42.5 168L65 182C75.3333 178.5 99.3 166.4 112.5 146L106 140.5" stroke="#16CC86"/>
<path d="M89.2968 152.977C91.3273 155.803 90.0993 160.404 86.1859 163.215C82.2724 166.026 77.5207 165.722 75.4902 162.895C73.4597 160.069 74.6876 155.468 78.6011 152.657C82.5146 149.846 87.2663 150.15 89.2968 152.977Z" stroke="#16CC86"/>
<path d="M102.199 174.877C103.267 175.171 103.267 176.829 102.199 177.123C94.7404 179.139 92.1635 181.722 90.1313 189.197C89.838 190.268 88.162 190.268 87.8687 189.197C85.8365 181.743 83.2806 179.16 75.8013 177.123C74.7329 176.829 74.7329 175.171 75.8013 174.877C83.2596 172.84 85.8365 170.278 87.8687 162.803C88.162 161.732 89.838 161.732 90.1104 162.803C92.1425 170.257 94.6985 172.84 102.178 174.877H102.199Z" fill="#00FF99" stroke="#221F20" stroke-miterlimit="10"/>
<defs>
<linearGradient id="paint0_linear_1952_241538" x1="24.2909" y1="96.4039" x2="43.3697" y2="168.961" gradientUnits="userSpaceOnUse">
<stop stop-color="white"/>
<stop offset="1" stop-color="#E6E6FF"/>
</linearGradient>
</defs>
</svg>
